<svg width="852" height="478" viewBox="0 0 852 478" fill="none" xmlns="http://www.w3.org/2000/svg">
<path d="M89.8407 51.04V62.23C89.8407 82.81 78.3807 95.05 60.9407 95.05C49.7507 95.05 39.8407 97.13 31.2607 101.3V4.16H0.0107422V190.11H31.2607V159.64C31.2607 139.06 42.9807 126.82 60.6807 126.82C78.3808 126.82 89.8507 139.05 89.8507 159.64V190.11H121.111V154.95C121.111 136.71 114.851 121.36 103.911 110.94C114.851 100.52 121.111 85.16 121.111 66.92V51.04H89.8407Z" fill="#232559"/>
<path d="M141.931 51.04V190.11H173.181V51.04H141.931ZM157.551 0C145.831 0 138.021 7.81 138.021 19.53C138.021 31.25 145.831 39.06 157.551 39.06C169.271 39.06 177.081 31.25 177.081 19.53C177.081 7.81 169.271 0 157.551 0Z" fill="#232559"/>
<path d="M305.991 4.15991V59.1099C294.781 52.0799 280.721 48.1699 264.841 48.1699C221.611 48.1699 192.701 77.0899 192.701 120.57C192.701 164.05 221.601 192.71 264.841 192.71C308.081 192.71 337.241 163.81 337.241 120.57V4.15991H305.991ZM264.841 161.46C240.361 161.46 223.951 145.05 223.951 120.57C223.951 96.0899 240.361 79.4299 264.841 79.4299C289.321 79.4299 305.991 95.8399 305.991 120.57C305.991 145.3 289.581 161.46 264.841 161.46Z" fill="#232559"/>
<path d="M394.271 160.15L460.151 80.73V51.04H357.811V80.98H421.101L355.471 160.15V190.11H462.771V160.15H394.271Z" fill="#232559"/>
<path d="M61.21 276.17C50 276.17 39.85 278.26 31.25 282.42V232.16H0V418.11H31.25V340.76C31.25 320.19 42.97 307.94 60.68 307.94C78.39 307.94 89.85 320.19 89.85 340.76V418.11H121.1V336.07C121.1 300.13 97.15 276.17 61.21 276.17Z" fill="#232559"/>
<path d="M210.42 276.17C166.94 276.17 138.03 305.09 138.03 348.32C138.03 391.55 166.93 420.71 210.42 420.71C253.91 420.71 282.56 391.81 282.56 348.32C282.56 304.83 253.66 276.17 210.42 276.17ZM210.42 389.45C185.69 389.45 169.28 373.04 169.28 348.31C169.28 323.58 185.69 307.42 210.42 307.42C235.15 307.42 251.31 323.83 251.31 348.31C251.31 372.79 234.9 389.45 210.42 389.45Z" fill="#232559"/>
<path d="M299.49 232.16V418.11H330.74V232.16H299.49Z" fill="#232559"/>
<path d="M460.94 232.16V287.11C449.75 280.08 435.68 276.17 419.79 276.17C376.57 276.17 347.65 305.09 347.65 348.57C347.65 392.05 376.57 420.71 419.79 420.71C463.01 420.71 492.19 391.81 492.19 348.57V232.16H460.94ZM419.79 389.45C395.31 389.45 378.92 373.04 378.92 348.56C378.92 324.08 395.32 307.42 419.79 307.42C444.26 307.42 460.94 323.83 460.94 348.56C460.94 373.29 444.53 389.45 419.79 389.45Z" fill="#232559"/>
<path d="M513.03 279.04V418.11H544.28V279.04H513.03ZM528.66 228C516.94 228 509.13 235.81 509.13 247.53C509.13 259.25 516.94 267.06 528.66 267.06C540.38 267.06 548.19 259.25 548.19 247.53C548.19 235.81 540.38 228 528.66 228Z" fill="#232559"/>
<path d="M626.31 276.17C589.07 276.17 565.1 300.14 565.1 336.07V418.11H596.36V340.76C596.36 320.19 608.08 307.94 625.78 307.94C643.48 307.94 654.95 320.19 654.95 340.76V418.11H686.2V336.07C686.2 300.13 662.25 276.17 626.31 276.17Z" fill="#232559"/>
<path d="M775.54 276.17C732.05 276.17 703.14 305.09 703.14 348.32C703.14 391.55 732.04 420.71 775.54 420.71C819.04 420.71 847.68 391.81 847.68 348.32C847.68 304.83 818.78 276.17 775.54 276.17ZM775.54 389.45C750.8 389.45 734.39 373.04 734.39 348.31C734.39 323.58 750.8 307.42 775.54 307.42C800.28 307.42 816.43 323.83 816.43 348.31C816.43 372.79 800.02 389.45 775.54 389.45Z" fill="#4AC7F4"/>
<path d="M714.069 463.42L726.569 433.99C740.109 442.06 756.779 446.75 775.789 446.75C794.799 446.75 811.469 442.06 825.009 433.99L837.509 463.42C820.059 472.8 799.229 478 775.789 478C752.349 478 731.519 472.79 714.069 463.42Z" fill="#4AC7F4"/>
<path d="M832.04 238.41C843.76 238.41 851.57 246.22 851.57 257.94C851.57 269.66 843.76 277.47 832.04 277.47C820.32 277.47 812.51 269.66 812.51 257.94C812.51 246.22 820.32 238.41 832.04 238.41Z" fill="#4AC7F4"/>
</svg>
