<svg width="103" height="79" viewBox="0 0 103 79" fill="none" xmlns="http://www.w3.org/2000/svg">
<path d="M10.8665 18.1734V19.5269C10.8665 22.0161 9.4804 23.4966 7.37097 23.4966C6.01751 23.4966 4.81886 23.7482 3.78108 24.2526V12.5032H0.0012993V34.9944H3.78108V31.309C3.78108 28.8197 5.19866 27.3393 7.33953 27.3393C9.4804 27.3393 10.8677 28.8185 10.8677 31.309V34.9944H14.6487V30.7417C14.6487 28.5355 13.8916 26.6789 12.5683 25.4185C13.8916 24.1582 14.6487 22.3004 14.6487 20.0942V18.1734H10.8665Z" fill="#E0E8F5"/>
<path d="M17.1669 18.1734V34.9944H20.9467V18.1734H17.1669ZM19.0562 12C17.6387 12 16.694 12.9446 16.694 14.3622C16.694 15.7798 17.6387 16.7244 19.0562 16.7244C20.4738 16.7244 21.4184 15.7798 21.4184 14.3622C21.4184 12.9446 20.4738 12 19.0562 12Z" fill="#E0E8F5"/>
<path d="M37.0106 12.5032V19.1495C35.6547 18.2992 33.9541 17.8263 32.0334 17.8263C26.8046 17.8263 23.3078 21.3243 23.3078 26.5833C23.3078 31.8423 26.8034 35.3089 32.0334 35.3089C37.2634 35.3089 40.7904 31.8133 40.7904 26.5833V12.5032H37.0106ZM32.0334 31.5291C29.0724 31.5291 27.0876 29.5442 27.0876 26.5833C27.0876 23.6224 29.0724 21.6073 32.0334 21.6073C34.9943 21.6073 37.0106 23.5921 37.0106 26.5833C37.0106 29.5745 35.0257 31.5291 32.0334 31.5291Z" fill="#E0E8F5"/>
<path d="M47.6883 31.3706L55.6567 21.7645V18.1734H43.2783V21.7948H50.9334L42.9953 31.3706V34.9944H55.9736V31.3706H47.6883Z" fill="#E0E8F5"/>
<path d="M7.40354 45.4036C6.04766 45.4036 4.81998 45.6564 3.77978 46.1596V40.0805H0V62.5717H3.77978V53.216C3.77978 50.728 5.19736 49.2463 7.33944 49.2463C9.48152 49.2463 10.8676 50.728 10.8676 53.216V62.5717H14.6474V52.6487C14.6474 48.3017 11.7506 45.4036 7.40354 45.4036Z" fill="#E0E8F5"/>
<path d="M25.451 45.4036C20.1919 45.4036 16.6952 48.9016 16.6952 54.1304C16.6952 59.3592 20.1907 62.8862 25.451 62.8862C30.7112 62.8862 34.1766 59.3906 34.1766 54.1304C34.1766 48.8701 30.681 45.4036 25.451 45.4036ZM25.451 59.1052C22.4598 59.1052 20.475 57.1203 20.475 54.1292C20.475 51.138 22.4598 49.1834 25.451 49.1834C28.4422 49.1834 30.3968 51.1682 30.3968 54.1292C30.3968 57.0901 28.4119 59.1052 25.451 59.1052Z" fill="#E0E8F5"/>
<path d="M36.2243 40.0805V62.5717H40.0041V40.0805H36.2243Z" fill="#E0E8F5"/>
<path d="M55.7522 40.0805V46.7268C54.3987 45.8765 52.6969 45.4036 50.775 45.4036C45.5474 45.4036 42.0494 48.9016 42.0494 54.1606C42.0494 59.4197 45.5474 62.8862 50.775 62.8862C56.0025 62.8862 59.532 59.3906 59.532 54.1606V40.0805H55.7522ZM50.775 59.1052C47.814 59.1052 45.8316 57.1203 45.8316 54.1594C45.8316 51.1985 47.8152 49.1834 50.775 49.1834C53.7347 49.1834 55.7522 51.1682 55.7522 54.1594C55.7522 57.1506 53.7673 59.1052 50.775 59.1052Z" fill="#E0E8F5"/>
<path d="M62.0526 45.7508V62.5717H65.8324V45.7508H62.0526ZM63.9431 39.5773C62.5255 39.5773 61.5809 40.522 61.5809 41.9395C61.5809 43.3571 62.5255 44.3017 63.9431 44.3017C65.3606 44.3017 66.3053 43.3571 66.3053 41.9395C66.3053 40.522 65.3606 39.5773 63.9431 39.5773Z" fill="#E0E8F5"/>
<path d="M75.7541 45.4036C71.2498 45.4036 68.3506 48.3029 68.3506 52.6487V62.5717H72.1316V53.216C72.1316 50.728 73.5491 49.2463 75.69 49.2463C77.8309 49.2463 79.2182 50.728 79.2182 53.216V62.5717H82.998V52.6487C82.998 48.3016 80.1012 45.4036 75.7541 45.4036Z" fill="#E0E8F5"/>
<path d="M93.8039 45.4036C88.5437 45.4036 85.0469 48.9016 85.0469 54.1304C85.0469 59.3592 88.5425 62.8862 93.8039 62.8862C99.0654 62.8862 102.529 59.3906 102.529 54.1304C102.529 48.8701 99.0339 45.4036 93.8039 45.4036ZM93.8039 59.1052C90.8116 59.1052 88.8267 57.1203 88.8267 54.1292C88.8267 51.138 90.8116 49.1834 93.8039 49.1834C96.7963 49.1834 98.7497 51.1682 98.7497 54.1292C98.7497 57.0901 96.7649 59.1052 93.8039 59.1052Z" fill="#4AC7F4"/>
<path d="M86.3689 68.0521L87.8808 64.4924C89.5185 65.4685 91.5348 66.0358 93.8341 66.0358C96.1335 66.0358 98.1497 65.4685 99.7874 64.4924L101.299 68.0521C99.1887 69.1866 96.6693 69.8156 93.8341 69.8156C90.999 69.8156 88.4795 69.1854 86.3689 68.0521Z" fill="#4AC7F4"/>
<path d="M100.638 40.8364C102.055 40.8364 103 41.7811 103 43.1986C103 44.6162 102.055 45.5608 100.638 45.5608C99.2202 45.5608 98.2756 44.6162 98.2756 43.1986C98.2756 41.7811 99.2202 40.8364 100.638 40.8364Z" fill="#4AC7F4"/>
</svg>
