<svg width="165" height="86" viewBox="0 0 165 86" fill="none" xmlns="http://www.w3.org/2000/svg">
<path d="M69.2013 21.0099V22.3383C69.2013 24.7815 67.8408 26.2346 65.7704 26.2346C64.4419 26.2346 63.2654 26.4816 62.2468 26.9766V15.4444H58.5369V37.5199H62.2468V33.9026C62.2468 31.4594 63.6382 30.0063 65.7395 30.0063C67.8408 30.0063 69.2025 31.4582 69.2025 33.9026V37.5199H72.9136V33.3458C72.9136 31.1804 72.1704 29.3581 70.8717 28.1211C72.1704 26.884 72.9136 25.0605 72.9136 22.8951V21.0099H69.2013Z" fill="#E0E8F5"/>
<path d="M75.3853 21.0099V37.5199H79.0952V21.0099H75.3853ZM77.2396 14.9506C75.8483 14.9506 74.9211 15.8777 74.9211 17.2691C74.9211 18.6605 75.8483 19.5877 77.2396 19.5877C78.631 19.5877 79.5582 18.6605 79.5582 17.2691C79.5582 15.8777 78.631 14.9506 77.2396 14.9506Z" fill="#E0E8F5"/>
<path d="M94.8621 15.4444V21.9679C93.5313 21.1334 91.8621 20.6692 89.9769 20.6692C84.8447 20.6692 81.4126 24.1025 81.4126 29.2643C81.4126 34.4261 84.8435 37.8286 89.9769 37.8286C95.1102 37.8286 98.572 34.3976 98.572 29.2643V15.4444H94.8621ZM89.9769 34.1187C87.0707 34.1187 85.1225 32.1705 85.1225 29.2643C85.1225 26.3581 87.0707 24.3803 89.9769 24.3803C92.8831 24.3803 94.8621 26.3284 94.8621 29.2643C94.8621 32.2002 92.914 34.1187 89.9769 34.1187Z" fill="#E0E8F5"/>
<path d="M105.342 33.9631L113.164 24.5346V21.0099H101.014V24.5643H108.528L100.736 33.9631V37.5199H113.475V33.9631H105.342Z" fill="#E0E8F5"/>
<path d="M65.8023 47.7367C64.4715 47.7367 63.2665 47.9848 62.2456 48.4787V42.512H58.5356V64.5875H62.2456V55.4047C62.2456 52.9627 63.6369 51.5084 65.7394 51.5084C67.8419 51.5084 69.2024 52.9627 69.2024 55.4047V64.5875H72.9123V54.8479C72.9123 50.5812 70.069 47.7367 65.8023 47.7367Z" fill="#E0E8F5"/>
<path d="M83.5162 47.7367C78.3543 47.7367 74.9222 51.17 74.9222 56.3022C74.9222 61.4343 78.3532 64.8961 83.5162 64.8961C88.6792 64.8961 92.0805 61.4652 92.0805 56.3022C92.0805 51.1392 88.6495 47.7367 83.5162 47.7367ZM83.5162 61.185C80.5803 61.185 78.6321 59.2369 78.6321 56.301C78.6321 53.3651 80.5803 51.4466 83.5162 51.4466C86.4521 51.4466 88.3705 53.3948 88.3705 56.301C88.3705 59.2072 86.4224 61.185 83.5162 61.185Z" fill="#E0E8F5"/>
<path d="M94.0903 42.512V64.5875H97.8002V42.512H94.0903Z" fill="#E0E8F5"/>
<path d="M113.257 42.512V49.0355C111.929 48.2009 110.258 47.7367 108.372 47.7367C103.241 47.7367 99.8078 51.17 99.8078 56.3319C99.8078 61.4937 103.241 64.8961 108.372 64.8961C113.503 64.8961 116.967 61.4652 116.967 56.3319V42.512H113.257ZM108.372 61.185C105.466 61.185 103.52 59.2369 103.52 56.3307C103.52 53.4245 105.467 51.4466 108.372 51.4466C111.277 51.4466 113.257 53.3948 113.257 56.3307C113.257 59.2665 111.309 61.185 108.372 61.185Z" fill="#E0E8F5"/>
<path d="M119.441 48.0774V64.5875H123.151V48.0774H119.441ZM121.297 42.0181C119.905 42.0181 118.978 42.9453 118.978 44.3367C118.978 45.728 119.905 46.6552 121.297 46.6552C122.688 46.6552 123.615 45.728 123.615 44.3367C123.615 42.9453 122.688 42.0181 121.297 42.0181Z" fill="#E0E8F5"/>
<path d="M132.889 47.7367C128.468 47.7367 125.623 50.5824 125.623 54.8479V64.5875H129.334V55.4047C129.334 52.9627 130.725 51.5084 132.827 51.5084C134.928 51.5084 136.29 52.9627 136.29 55.4047V64.5875H139.999V54.8479C139.999 50.5812 137.156 47.7367 132.889 47.7367Z" fill="#E0E8F5"/>
<path d="M150.606 47.7367C145.443 47.7367 142.011 51.17 142.011 56.3022C142.011 61.4343 145.441 64.8961 150.606 64.8961C155.77 64.8961 159.17 61.4652 159.17 56.3022C159.17 51.1392 155.739 47.7367 150.606 47.7367ZM150.606 61.185C147.669 61.185 145.72 59.2369 145.72 56.301C145.72 53.3651 147.669 51.4466 150.606 51.4466C153.543 51.4466 155.46 53.3948 155.46 56.301C155.46 59.2072 153.512 61.185 150.606 61.185Z" fill="#4AC7F4"/>
<path d="M143.308 69.9665L144.792 66.4727C146.399 67.4307 148.378 67.9875 150.635 67.9875C152.892 67.9875 154.871 67.4307 156.479 66.4727L157.963 69.9665C155.891 71.0801 153.418 71.6974 150.635 71.6974C147.853 71.6974 145.38 71.0789 143.308 69.9665Z" fill="#4AC7F4"/>
<path d="M157.313 43.254C158.705 43.254 159.632 44.1811 159.632 45.5725C159.632 46.9639 158.705 47.891 157.313 47.891C155.922 47.891 154.995 46.9639 154.995 45.5725C154.995 44.1811 155.922 43.254 157.313 43.254Z" fill="#4AC7F4"/>
</svg>
