<svg width="512" height="512" viewBox="0 0 512 512" fill="none" xmlns="http://www.w3.org/2000/svg">
<path d="M256 160C237.013 160 218.452 165.63 202.665 176.179C186.878 186.728 174.574 201.721 167.308 219.262C160.042 236.804 158.14 256.106 161.845 274.729C165.549 293.351 174.692 310.456 188.118 323.882C201.544 337.308 218.649 346.451 237.271 350.155C255.894 353.86 275.196 351.958 292.738 344.692C310.279 337.426 325.272 325.122 335.821 309.335C346.37 293.548 352 274.987 352 256C351.973 230.548 341.849 206.146 323.852 188.148C305.854 170.151 281.452 160.028 256 160ZM256 336C240.178 336 224.71 331.308 211.554 322.518C198.398 313.727 188.145 301.233 182.09 286.615C176.035 271.997 174.45 255.911 177.537 240.393C180.624 224.874 188.243 210.62 199.431 199.431C210.62 188.243 224.874 180.624 240.393 177.537C255.911 174.45 271.997 176.035 286.615 182.09C301.233 188.145 313.727 198.398 322.518 211.554C331.308 224.71 336 240.177 336 256C335.977 277.21 327.541 297.545 312.543 312.543C297.545 327.541 277.21 335.977 256 336Z" fill="#232559"/>
<path d="M255.432 221.024C254.837 219.54 253.811 218.268 252.486 217.372C251.162 216.477 249.599 215.999 248 216H232C230.401 215.999 228.838 216.477 227.514 217.372C226.189 218.268 225.163 219.54 224.568 221.024L208.568 261.024C208.193 261.971 208 262.981 208 264V296H224V272H256V296H272V264C272 262.981 271.807 261.971 271.432 261.024L255.432 221.024ZM237.416 232H242.584L252.184 256H227.816L237.416 232Z" fill="#232559"/>
<path d="M296 216H280V296H296V216Z" fill="#232559"/>
<path d="M464 87.9996C472.942 88.0263 481.636 85.0649 488.703 79.5859C495.769 74.1068 500.803 66.424 503.004 57.7574C505.206 49.0908 504.449 39.9372 500.854 31.7498C497.259 23.5625 491.032 16.8108 483.161 12.5668C475.291 8.3227 466.228 6.82957 457.412 8.32443C448.596 9.81929 440.532 14.2165 434.501 20.8178C428.469 27.4191 424.816 35.8461 424.121 44.7609C423.426 53.6757 425.729 62.5672 430.664 70.0236L374.792 125.896L363.48 114.576C362.118 113.214 360.311 112.389 358.391 112.253C356.47 112.116 354.564 112.677 353.024 113.832L335.888 126.68C331.888 124.184 327.688 121.944 323.464 119.848L349.656 93.6556C351.156 92.1557 351.999 90.1212 352 87.9996V70.8636C359.541 68.9165 366.113 64.2858 370.485 57.8396C374.856 51.3934 376.726 43.5742 375.745 35.8476C374.763 28.1211 370.998 21.0178 365.154 15.8691C359.31 10.7204 351.788 7.87978 344 7.87978C336.211 7.87978 328.69 10.7204 322.846 15.8691C317.002 21.0178 313.236 28.1211 312.255 35.8476C311.274 43.5742 313.144 51.3934 317.515 57.8396C321.886 64.2858 328.459 68.9165 336 70.8636V84.6877L307.56 113.128C302.125 111.133 296.58 109.453 290.952 108.096L287.92 86.8636C287.647 84.9581 286.695 83.2149 285.24 81.9541C283.786 80.6933 281.925 79.9994 280 79.9996H232C230.075 79.9994 228.214 80.6933 226.759 81.9541C225.305 83.2149 224.353 84.9581 224.08 86.8636L221.048 108.096C215.42 109.453 209.875 111.133 204.44 113.128L176 84.6877V70.8636C183.541 68.9165 190.113 64.2858 194.485 57.8396C198.856 51.3934 200.726 43.5742 199.745 35.8476C198.763 28.1211 194.998 21.0178 189.154 15.8691C183.31 10.7204 175.788 7.87978 168 7.87978C160.211 7.87978 152.69 10.7204 146.846 15.8691C141.002 21.0178 137.236 28.1211 136.255 35.8476C135.274 43.5742 137.144 51.3934 141.515 57.8396C145.886 64.2858 152.459 68.9165 160 70.8636V87.9996C160 90.1212 160.843 92.1557 162.344 93.6556L188.536 119.848C184.312 121.944 180.144 124.184 176.112 126.68L158.976 113.832C157.435 112.677 155.53 112.116 153.609 112.253C151.688 112.389 149.881 113.214 148.52 114.576L137.208 125.896L81.3359 70.0236C86.8246 61.731 89.0379 51.6954 87.5466 41.8633C86.0552 32.0312 80.9654 23.1033 73.2644 16.8114C65.5634 10.5194 55.8 7.31176 45.8679 7.81056C35.9359 8.30936 26.543 12.4791 19.5112 19.5109C12.4793 26.5428 8.30959 35.9357 7.81079 45.8677C7.31199 55.7998 10.5196 65.5631 16.8116 73.2641C23.1036 80.9652 32.0314 86.0549 41.8635 87.5463C51.6956 89.0377 61.7312 86.8244 70.0239 81.3356L125.896 137.208L114.576 148.52C113.214 149.881 112.389 151.688 112.253 153.609C112.116 155.53 112.677 157.435 113.832 158.976L126.68 176.104C123.911 180.651 121.382 185.34 119.104 190.152L91.2959 162.344C89.7959 160.843 87.7614 160 85.6399 160H70.8639C68.9167 152.458 64.286 145.886 57.8398 141.515C51.3936 137.144 43.5744 135.273 35.8479 136.255C28.1214 137.236 21.018 141.002 15.8693 146.846C10.7206 152.69 7.88001 160.211 7.88001 168C7.88001 175.788 10.7206 183.309 15.8693 189.154C21.018 194.998 28.1214 198.763 35.8479 199.745C43.5744 200.726 51.3936 198.856 57.8398 194.484C64.286 190.113 68.9167 183.541 70.8639 176H82.3279L112.496 206.168C110.773 211.048 109.305 216.015 108.096 221.048L86.8639 224.08C84.9583 224.353 83.2152 225.304 81.9544 226.759C80.6936 228.214 79.9996 230.075 79.9999 232V280C79.9996 281.925 80.6936 283.785 81.9544 285.24C83.2152 286.695 84.9583 287.646 86.8639 287.92L108.096 290.952C109.305 295.984 110.773 300.951 112.496 305.832L82.3279 336H70.8639C68.9167 328.458 64.286 321.886 57.8398 317.515C51.3936 313.144 43.5744 311.273 35.8479 312.255C28.1214 313.236 21.018 317.002 15.8693 322.846C10.7206 328.69 7.88001 336.211 7.88001 344C7.88001 351.788 10.7206 359.309 15.8693 365.154C21.018 370.998 28.1214 374.763 35.8479 375.745C43.5744 376.726 51.3936 374.856 57.8398 370.484C64.286 366.113 68.9167 359.541 70.8639 352H85.6399C87.7614 351.999 89.7959 351.156 91.2959 349.656L119.104 321.848C121.382 326.657 123.911 331.343 126.68 335.888L113.832 353.024C112.677 354.564 112.116 356.47 112.253 358.39C112.389 360.311 113.214 362.118 114.576 363.48L125.896 374.792L70.0239 430.664C61.7312 425.175 51.6956 422.962 41.8635 424.453C32.0314 425.944 23.1036 431.034 16.8116 438.735C10.5196 446.436 7.31199 456.2 7.81079 466.132C8.30959 476.064 12.4793 485.456 19.5112 492.488C26.543 499.52 35.9359 503.69 45.8679 504.189C55.8 504.688 65.5634 501.48 73.2644 495.188C80.9654 488.896 86.0552 479.968 87.5466 470.136C89.0379 460.304 86.8246 450.268 81.3359 441.976L137.208 386.104L148.52 397.424C149.881 398.785 151.688 399.61 153.609 399.747C155.53 399.883 157.435 399.323 158.976 398.168L176.104 385.32C180.104 387.816 184.304 390.056 188.536 392.152L162.344 418.344C160.843 419.844 160 421.878 160 424V441.136C152.459 443.083 145.886 447.713 141.515 454.16C137.144 460.606 135.274 468.425 136.255 476.152C137.236 483.878 141.002 490.982 146.846 496.13C152.69 501.279 160.211 504.12 168 504.12C175.788 504.12 183.31 501.279 189.154 496.13C194.998 490.982 198.763 483.878 199.745 476.152C200.726 468.425 198.856 460.606 194.485 454.16C190.113 447.713 183.541 443.083 176 441.136V427.312L204.44 398.872C209.875 400.866 215.42 402.546 221.048 403.904L224.08 425.136C224.353 427.041 225.305 428.784 226.759 430.045C228.214 431.306 230.075 432 232 432H280C281.925 432 283.786 431.306 285.24 430.045C286.695 428.784 287.647 427.041 287.92 425.136L290.952 403.904C296.58 402.546 302.125 400.866 307.56 398.872L336 427.312V441.136C328.459 443.083 321.886 447.713 317.515 454.16C313.144 460.606 311.274 468.425 312.255 476.152C313.236 483.878 317.002 490.982 322.846 496.13C328.69 501.279 336.211 504.12 344 504.12C351.788 504.12 359.31 501.279 365.154 496.13C370.998 490.982 374.763 483.878 375.745 476.152C376.726 468.425 374.856 460.606 370.485 454.16C366.113 447.713 359.541 443.083 352 441.136V424C351.999 421.878 351.156 419.844 349.656 418.344L323.464 392.152C327.696 390.056 331.856 387.816 335.896 385.32L353.024 398.168C354.564 399.323 356.47 399.883 358.391 399.747C360.311 399.61 362.118 398.785 363.48 397.424L374.792 386.104L430.664 441.976C425.175 450.268 422.962 460.304 424.453 470.136C425.945 479.968 431.034 488.896 438.735 495.188C446.436 501.48 456.2 504.688 466.132 504.189C476.064 503.69 485.457 499.52 492.489 492.488C499.52 485.456 503.69 476.064 504.189 466.132C504.688 456.2 501.48 446.436 495.188 438.735C488.896 431.034 479.968 425.944 470.136 424.453C460.304 422.962 450.269 425.175 441.976 430.664L386.104 374.792L397.424 363.48C398.785 362.118 399.61 360.311 399.747 358.39C399.884 356.47 399.323 354.564 398.168 353.024L385.32 335.888C387.816 331.888 390.056 327.688 392.152 323.464L418.344 349.656C419.844 351.156 421.878 351.999 424 352H441.136C443.083 359.541 447.714 366.113 454.16 370.484C460.606 374.856 468.425 376.726 476.152 375.745C483.878 374.763 490.982 370.998 496.13 365.154C501.279 359.309 504.12 351.788 504.12 344C504.12 336.211 501.279 328.69 496.13 322.846C490.982 317.002 483.878 313.236 476.152 312.255C468.425 311.273 460.606 313.144 454.16 317.515C447.714 321.886 443.083 328.458 441.136 336H427.312L398.872 307.56C400.866 302.125 402.546 296.579 403.904 290.952L425.136 287.92C427.041 287.646 428.785 286.695 430.045 285.24C431.306 283.785 432 281.925 432 280V232C432 230.075 431.306 228.214 430.045 226.759C428.785 225.304 427.041 224.353 425.136 224.08L403.904 221.048C402.546 215.42 400.866 209.875 398.872 204.44L427.312 176H441.136C443.083 183.541 447.714 190.113 454.16 194.484C460.606 198.856 468.425 200.726 476.152 199.745C483.878 198.763 490.982 194.998 496.13 189.154C501.279 183.309 504.12 175.788 504.12 168C504.12 160.211 501.279 152.69 496.13 146.846C490.982 141.002 483.878 137.236 476.152 136.255C468.425 135.273 460.606 137.144 454.16 141.515C447.714 145.886 443.083 152.458 441.136 160H424C421.878 160 419.844 160.843 418.344 162.344L392.152 188.536C390.056 184.304 387.816 180.144 385.32 176.104L398.168 158.976C399.323 157.435 399.884 155.53 399.747 153.609C399.61 151.688 398.785 149.881 397.424 148.52L386.104 137.208L441.976 81.3356C448.5 85.6796 456.162 87.9981 464 87.9996ZM328 39.9996C328 36.8351 328.938 33.7417 330.696 31.1105C332.454 28.4793 334.953 26.4286 337.877 25.2176C340.801 24.0066 344.018 23.6897 347.121 24.3071C350.225 24.9244 353.076 26.4483 355.314 28.6859C357.551 30.9236 359.075 33.7745 359.692 36.8782C360.31 39.9819 359.993 43.199 358.782 46.1226C357.571 49.0462 355.52 51.5451 352.889 53.3032C350.258 55.0613 347.164 55.9996 344 55.9996C339.756 55.9996 335.687 54.3139 332.686 51.3134C329.686 48.3128 328 44.2431 328 39.9996ZM152 39.9996C152 36.8351 152.938 33.7417 154.696 31.1105C156.454 28.4793 158.953 26.4286 161.877 25.2176C164.801 24.0066 168.018 23.6897 171.121 24.3071C174.225 24.9244 177.076 26.4483 179.314 28.6859C181.551 30.9236 183.075 33.7745 183.692 36.8782C184.31 39.9819 183.993 43.199 182.782 46.1226C181.571 49.0462 179.52 51.5451 176.889 53.3032C174.258 55.0613 171.164 55.9996 168 55.9996C163.756 55.9996 159.687 54.3139 156.686 51.3134C153.686 48.3128 152 44.2431 152 39.9996ZM47.9999 71.9996C43.2531 71.9996 38.613 70.5921 34.6662 67.9549C30.7194 65.3178 27.6433 61.5695 25.8268 57.184C24.0103 52.7986 23.535 47.973 24.461 43.3175C25.3871 38.6619 27.6729 34.3855 31.0293 31.0291C34.3858 27.6726 38.6622 25.3868 43.3177 24.4608C47.9733 23.5348 52.7989 24.01 57.1843 25.8265C61.5697 27.643 65.318 30.7192 67.9551 34.666C70.5923 38.6127 71.9999 43.2529 71.9999 47.9996C71.9999 54.3648 69.4713 60.4693 64.9704 64.9702C60.4696 69.4711 54.3651 71.9996 47.9999 71.9996ZM39.9999 184C36.8354 184 33.7419 183.061 31.1108 181.303C28.4796 179.545 26.4288 177.046 25.2178 174.123C24.0068 171.199 23.6899 167.982 24.3073 164.878C24.9247 161.775 26.4485 158.924 28.6862 156.686C30.9238 154.448 33.7747 152.924 36.8784 152.307C39.9821 151.69 43.1992 152.007 46.1228 153.218C49.0464 154.429 51.5453 156.479 53.3034 159.111C55.0615 161.742 55.9999 164.835 55.9999 168C55.9999 172.243 54.3142 176.313 51.3136 179.313C48.313 182.314 44.2433 184 39.9999 184ZM39.9999 360C36.8354 360 33.7419 359.061 31.1108 357.303C28.4796 355.545 26.4288 353.046 25.2178 350.123C24.0068 347.199 23.6899 343.982 24.3073 340.878C24.9247 337.774 26.4485 334.924 28.6862 332.686C30.9238 330.448 33.7747 328.924 36.8784 328.307C39.9821 327.69 43.1992 328.007 46.1228 329.218C49.0464 330.429 51.5453 332.479 53.3034 335.111C55.0615 337.742 55.9999 340.835 55.9999 344C55.9999 348.243 54.3142 352.313 51.3136 355.313C48.313 358.314 44.2433 360 39.9999 360ZM47.9999 488C43.2531 488 38.613 486.592 34.6662 483.955C30.7194 481.318 27.6433 477.569 25.8268 473.184C24.0103 468.799 23.535 463.973 24.461 459.317C25.3871 454.662 27.6729 450.386 31.0293 447.029C34.3858 443.673 38.6622 441.387 43.3177 440.461C47.9733 439.535 52.7989 440.01 57.1843 441.827C61.5697 443.643 65.318 446.719 67.9551 450.666C70.5923 454.613 71.9999 459.253 71.9999 464C71.9999 470.365 69.4713 476.469 64.9704 480.97C60.4696 485.471 54.3651 488 47.9999 488ZM184 472C184 475.164 183.061 478.258 181.303 480.889C179.545 483.52 177.046 485.571 174.123 486.782C171.199 487.993 167.982 488.31 164.878 487.692C161.775 487.075 158.924 485.551 156.686 483.313C154.449 481.076 152.925 478.225 152.307 475.121C151.69 472.017 152.007 468.8 153.218 465.877C154.429 462.953 156.48 460.454 159.111 458.696C161.742 456.938 164.835 456 168 456C172.243 456 176.313 457.685 179.314 460.686C182.314 463.686 184 467.756 184 472ZM360 472C360 475.164 359.062 478.258 357.303 480.889C355.545 483.52 353.046 485.571 350.123 486.782C347.199 487.993 343.982 488.31 340.878 487.692C337.775 487.075 334.924 485.551 332.686 483.313C330.449 481.076 328.925 478.225 328.307 475.121C327.69 472.017 328.007 468.8 329.218 465.877C330.429 462.953 332.48 460.454 335.111 458.696C337.742 456.938 340.835 456 344 456C348.243 456 352.313 457.685 355.314 460.686C358.314 463.686 360 467.756 360 472ZM464 440C468.747 440 473.387 441.407 477.334 444.044C481.28 446.682 484.356 450.43 486.173 454.815C487.989 459.201 488.465 464.026 487.539 468.682C486.613 473.337 484.327 477.614 480.97 480.97C477.614 484.327 473.338 486.612 468.682 487.538C464.026 488.465 459.201 487.989 454.815 486.173C450.43 484.356 446.682 481.28 444.045 477.333C441.407 473.387 440 468.746 440 464C440 457.634 442.528 451.53 447.029 447.029C451.53 442.528 457.635 440 464 440ZM472 328C475.164 328 478.258 328.938 480.889 330.696C483.52 332.454 485.571 334.953 486.782 337.877C487.993 340.8 488.31 344.017 487.692 347.121C487.075 350.225 485.551 353.076 483.314 355.313C481.076 357.551 478.225 359.075 475.121 359.692C472.018 360.31 468.801 359.993 465.877 358.782C462.953 357.571 460.454 355.52 458.696 352.889C456.938 350.258 456 347.164 456 344C456 339.756 457.686 335.686 460.686 332.686C463.687 329.685 467.756 328 472 328ZM472 152C475.164 152 478.258 152.938 480.889 154.696C483.52 156.454 485.571 158.953 486.782 161.877C487.993 164.8 488.31 168.017 487.692 171.121C487.075 174.225 485.551 177.076 483.314 179.313C481.076 181.551 478.225 183.075 475.121 183.692C472.018 184.31 468.801 183.993 465.877 182.782C462.953 181.571 460.454 179.52 458.696 176.889C456.938 174.258 456 171.164 456 168C456 163.756 457.686 159.687 460.686 156.686C463.687 153.685 467.756 152 472 152ZM416 238.936V273.064L396.128 275.904C394.481 276.139 392.949 276.883 391.745 278.03C390.541 279.177 389.724 280.671 389.408 282.304C385.968 300.004 379.006 316.834 368.936 331.792C368.009 333.17 367.535 334.802 367.578 336.462C367.621 338.122 368.179 339.727 369.176 341.056L381.176 357.096L357.072 381.2L341.072 369.2C339.744 368.203 338.138 367.645 336.478 367.602C334.818 367.559 333.186 368.033 331.808 368.96C316.846 379.029 300.015 385.99 282.312 389.432C280.679 389.747 279.185 390.564 278.038 391.769C276.891 392.973 276.148 394.505 275.912 396.152L273.064 416H238.936L236.096 396.128C235.86 394.481 235.117 392.949 233.97 391.745C232.823 390.54 231.329 389.723 229.696 389.408C211.993 385.966 195.161 379.005 180.2 368.936C178.822 368.009 177.19 367.535 175.53 367.578C173.87 367.621 172.264 368.179 170.936 369.176L154.936 381.176L130.8 357.072L142.8 341.032C143.796 339.703 144.355 338.098 144.398 336.438C144.441 334.778 143.966 333.146 143.04 331.768C132.97 316.81 126.008 299.98 122.568 282.28C122.252 280.647 121.435 279.153 120.231 278.006C119.026 276.859 117.494 276.115 115.848 275.88L95.9999 273.064V238.936L115.872 236.096C117.518 235.86 119.05 235.117 120.255 233.97C121.459 232.823 122.276 231.329 122.592 229.696C126.033 211.993 132.995 195.161 143.064 180.2C143.99 178.822 144.465 177.189 144.422 175.529C144.379 173.869 143.82 172.264 142.824 170.936L130.824 154.936L154.952 130.808L170.952 142.808C172.28 143.804 173.886 144.363 175.546 144.406C177.206 144.449 178.838 143.974 180.216 143.048C195.174 132.978 212.003 126.016 229.704 122.576C231.337 122.26 232.831 121.443 233.978 120.238C235.125 119.034 235.868 117.502 236.104 115.856L238.936 95.9996H273.064L275.904 115.872C276.14 117.518 276.883 119.05 278.03 120.254C279.177 121.459 280.671 122.276 282.304 122.592C300.004 126.032 316.833 132.994 331.792 143.064C333.17 143.99 334.802 144.465 336.462 144.422C338.122 144.379 339.728 143.82 341.056 142.824L357.096 130.824L381.224 154.952L369.224 170.952C368.227 172.28 367.669 173.885 367.626 175.545C367.583 177.205 368.057 178.838 368.984 180.216C379.053 195.177 386.015 212.009 389.456 229.712C389.772 231.345 390.589 232.839 391.793 233.986C392.997 235.133 394.529 235.876 396.176 236.112L416 238.936ZM464 23.9996C468.747 23.9996 473.387 25.4072 477.334 28.0444C481.28 30.6815 484.356 34.4298 486.173 38.8152C487.989 43.2007 488.465 48.0263 487.539 52.6818C486.613 57.3374 484.327 61.6138 480.97 64.9702C477.614 68.3267 473.338 70.6124 468.682 71.5385C464.026 72.4645 459.201 71.9893 454.815 70.1728C450.43 68.3563 446.682 65.2801 444.045 61.3333C441.407 57.3866 440 52.7464 440 47.9996C440 41.6344 442.528 35.53 447.029 31.0291C451.53 26.5282 457.635 23.9996 464 23.9996Z" fill="#232559"/>
</svg>
