<?xml version="1.0" encoding="UTF-8"?>
<svg id="Capa_1" xmlns="http://www.w3.org/2000/svg" version="1.1" viewBox="0 0 512 512">
  <!-- Generator: Adobe Illustrator 30.0.0, SVG Export Plug-In . SVG Version: 2.1.1 Build 123)  -->
  <defs>
    <style>
      .st0 {
        fill: #2c3493;
      }
    </style>
  </defs>
  <path class="st0" d="M256,109.23c-.22,0-.44,0-.65,0-10.49.07-20.78,1.82-30.59,5.19-3.91,1.35-5.99,5.61-4.64,9.52s5.61,5.99,9.52,4.64c8.26-2.85,16.94-4.32,25.8-4.38,21.51-.11,41.78,8.13,57.05,23.29,15.27,15.16,23.67,35.36,23.67,56.88,0,25.81-12.55,50.2-33.57,65.25-14.07,10.07-22.81,26.02-23.85,43.2h-15.26v-52.81l5.98,6.31c1.42,1.49,3.38,2.34,5.44,2.34s4.03-.85,5.44-2.34l18.91-19.98c2.84-3,2.71-7.75-.29-10.59-3.01-2.84-7.75-2.71-10.59.29l-13.47,14.23-11.42-12.06v-9.5c0-4.14-3.35-7.49-7.49-7.49s-7.49,3.35-7.49,7.49v9.49l-11.42,12.07-13.47-14.23c-2.84-3.01-7.59-3.14-10.59-.29-3.01,2.84-3.14,7.59-.29,10.59l18.91,19.98c1.41,1.49,3.38,2.34,5.44,2.34s4.03-.85,5.44-2.34l5.98-6.32v52.82h-15.26c-1.02-17.1-9.84-33.11-24.04-43.34-20.78-14.96-33.26-39.16-33.38-64.72-.11-23.06,9.63-45.03,26.71-60.28,3.09-2.76,3.36-7.49.6-10.58-2.76-3.09-7.49-3.35-10.58-.6-20.29,18.11-31.85,44.18-31.72,71.53.14,30.34,14.95,59.05,39.6,76.8,10.3,7.42,16.77,18.9,17.77,31.2-5.36.21-9.66,4.62-9.66,10.03v23.3c0,5.54,4.51,10.05,10.05,10.05h4.26v14.1c0,18.27,14.86,33.13,33.13,33.13s33.13-14.86,33.13-33.13v-14.1h4.26c5.54,0,10.05-4.51,10.05-10.05v-23.3c0-5.41-4.3-9.82-9.65-10.03,1-12.35,7.39-23.77,17.53-31.03,24.94-17.85,39.83-46.8,39.83-77.43,0-25.54-9.98-49.51-28.1-67.51-17.96-17.84-41.75-27.65-67.06-27.65h0ZM274.14,370.33c0,10-8.14,18.14-18.14,18.14s-18.14-8.14-18.14-18.14v-14.1h36.29v14.1h0ZM288.46,341.25h-64.91v-13.44h64.91v13.44Z"/>
  <path class="st0" d="M484.77,229.29c-12.21,0-22.55,8.13-25.9,19.27h-22.17c-1.88-44.19-19.68-84.32-47.81-114.79l52.53-52.53c7.3,5.17,16.2,8.23,25.8,8.23,24.67,0,44.74-20.07,44.74-44.74S491.87,0,467.21,0s-44.74,20.07-44.74,44.74c0,9.66,3.09,18.61,8.32,25.93l-52.52,52.52c-30.5-28.03-70.62-45.74-114.78-47.55v-22.44c11.59-3.05,20.16-13.62,20.16-26.16C283.65,12.13,271.52,0,256.6,0s-27.05,12.13-27.05,27.05c0,12.09,7.98,22.36,18.95,25.81v22.78c-44.16,1.81-84.28,19.52-114.78,47.55l-17.27-17.27c3.82-6.06,6.04-13.22,6.04-20.9,0-21.66-17.62-39.28-39.28-39.28s-39.28,17.62-39.28,39.28,17.62,39.28,39.28,39.28c8.58,0,16.51-2.77,22.98-7.45l16.92,16.92c-28.13,30.47-45.94,70.6-47.81,114.79h-22.17c-3.35-11.13-13.69-19.27-25.9-19.27-14.91,0-27.05,12.13-27.05,27.05s12.13,27.05,27.05,27.05c12.42,0,22.9-8.42,26.07-19.84h21.99c1.74,44.27,19.47,84.5,47.56,115.07l-52.18,52.18c-7.31-5.2-16.24-8.27-25.87-8.27C20.12,422.53.05,442.6.05,467.26s20.07,44.74,44.74,44.74c4.19,0,8.34-.58,12.34-1.73,3.98-1.14,6.28-5.29,5.14-9.26-1.14-3.98-5.29-6.28-9.26-5.14-2.66.76-5.42,1.15-8.22,1.15-16.41,0-29.75-13.35-29.75-29.75s13.35-29.76,29.75-29.76,29.75,13.35,29.75,29.76c0,3.44-.58,6.8-1.72,10-1.39,3.9.64,8.18,4.54,9.57,3.89,1.39,8.18-.64,9.57-4.54,1.72-4.82,2.59-9.88,2.59-15.04,0-9.64-3.07-18.56-8.27-25.87l52.17-52.17c30.54,28.19,70.78,46.01,115.08,47.83v21.61c-11.28,3.26-19.56,13.67-19.56,25.98,0,14.92,12.13,27.05,27.05,27.05s27.05-12.13,27.05-27.05c0-12.32-8.28-22.73-19.56-25.98v-21.61c44.3-1.82,84.54-19.64,115.07-47.83l17.2,17.2c-3.96,6.13-6.27,13.42-6.27,21.25,0,21.66,17.62,39.28,39.28,39.28s39.28-17.62,39.28-39.28-17.62-39.28-39.28-39.28c-8.43,0-16.24,2.68-22.65,7.21l-16.98-16.98c28.09-30.57,45.82-70.79,47.57-115.06h21.99c3.16,11.43,13.65,19.84,26.07,19.84,14.92,0,27.05-12.13,27.05-27.05s-12.13-27.05-27.05-27.05h0ZM467.21,14.98c16.41,0,29.75,13.35,29.75,29.75s-13.35,29.75-29.75,29.75-29.76-13.35-29.76-29.75,13.35-29.75,29.76-29.75ZM83.22,109.33c-13.4,0-24.3-10.9-24.3-24.3s10.9-24.3,24.3-24.3,24.3,10.9,24.3,24.3-10.9,24.3-24.3,24.3ZM27.23,268.41c-6.65,0-12.06-5.41-12.06-12.06s5.41-12.07,12.06-12.07c6.11,0,11.16,4.57,11.95,10.46-.08.43-.12.86-.12,1.31,0,.54.06,1.07.17,1.58-.65,6.05-5.78,10.77-11.99,10.77ZM428.78,403.36c13.4,0,24.3,10.9,24.3,24.3s-10.9,24.3-24.3,24.3-24.3-10.9-24.3-24.3,10.9-24.3,24.3-24.3ZM244.54,27.05c0-6.65,5.41-12.06,12.06-12.06s12.07,5.41,12.07,12.06-5.41,12.06-12.07,12.06-12.07-5.41-12.07-12.06h0ZM268.07,484.64c0,6.65-5.41,12.07-12.07,12.07s-12.07-5.41-12.07-12.07,5.41-12.07,12.07-12.07,12.07,5.41,12.07,12.07ZM256,422.23c-91.47,0-165.88-74.42-165.88-165.88s74.42-165.89,165.88-165.89,165.89,74.42,165.89,165.89-74.42,165.89-165.89,165.89h0ZM484.77,268.41c-6.22,0-11.35-4.73-11.99-10.77.11-.51.17-1.04.17-1.58,0-.45-.05-.89-.12-1.31.79-5.9,5.84-10.46,11.95-10.46,6.65,0,12.07,5.41,12.07,12.06s-5.41,12.07-12.07,12.07Z"/>
</svg>