<svg width="512" height="512" viewBox="0 0 512 512" fill="none" xmlns="http://www.w3.org/2000/svg">
<g clip-path="url(#clip0_1383_38)">
<path d="M254.877 428.825C267.559 428.825 277.877 418.507 277.877 405.825V365.753C277.877 364.961 278.23 364.218 278.798 363.815C289.729 356.059 296.255 343.441 296.255 330.061C296.255 307.483 277.891 288.923 255.319 288.686C233.227 288.457 214.439 306.24 213.535 328.335C212.962 342.375 219.452 355.622 230.896 363.772C231.51 364.209 231.876 364.949 231.876 365.751V405.826C231.877 418.507 242.195 428.825 254.877 428.825ZM228.522 328.948C229.094 314.961 240.894 303.684 254.887 303.684C254.978 303.684 255.07 303.684 255.161 303.685C269.549 303.836 281.254 315.668 281.254 330.06C281.254 338.588 277.091 346.633 270.118 351.581C265.584 354.798 262.877 360.096 262.877 365.753V405.825C262.877 410.236 259.288 413.825 254.877 413.825C250.466 413.825 246.877 410.236 246.877 405.825V365.75C246.877 360.106 244.156 354.799 239.598 351.553C232.297 346.354 228.157 337.903 228.522 328.948Z" fill="#232559"/>
<path d="M146.843 363.625C143.597 352.603 133.393 344.533 121.335 344.533C106.672 344.533 94.7432 356.462 94.7432 371.125C94.7432 385.788 106.672 397.717 121.335 397.717C133.394 397.717 143.597 389.646 146.843 378.625H204.25C208.392 378.625 211.75 375.267 211.75 371.125C211.75 366.983 208.392 363.625 204.25 363.625H146.843ZM121.335 382.717C114.943 382.717 109.743 377.517 109.743 371.125C109.743 364.733 114.943 359.533 121.335 359.533C127.727 359.533 132.927 364.733 132.927 371.125C132.927 377.517 127.727 382.717 121.335 382.717Z" fill="#232559"/>
<path d="M485.408 409.021C473.349 409.021 463.146 417.092 459.899 428.114H445.783V314.136H459.899C463.145 325.158 473.349 333.228 485.408 333.228C500.071 333.228 512 321.299 512 306.636C512 291.973 500.071 280.044 485.408 280.044C473.349 280.044 463.146 288.115 459.899 299.136H445.783V253.009C445.783 226.818 424.474 205.509 398.283 205.509H376.786V120.786C376.786 54.185 322.602 0 256 0C238.64 0 221.867 3.625 206.147 10.774C202.376 12.489 200.71 16.936 202.425 20.706C204.14 24.476 208.588 26.144 212.357 24.428C226.113 18.172 240.797 15 256 15C314.331 15 361.786 62.456 361.786 120.786V205.509H346.786V120.786C346.786 70.727 306.06 30 256 30C205.94 30 165.214 70.727 165.214 120.786V205.509H150.214V120.786C150.214 89.101 164.298 59.329 188.856 39.105C192.053 36.472 192.51 31.745 189.877 28.547C187.243 25.35 182.518 24.893 179.319 27.526C151.289 50.611 135.214 84.603 135.214 120.786V205.509H113.717C87.526 205.509 66.217 226.818 66.217 253.009V299.136H52.101C48.855 288.114 38.651 280.044 26.592 280.044C11.929 280.043 0 291.973 0 306.636C0 321.299 11.929 333.228 26.592 333.228C38.651 333.228 48.854 325.157 52.101 314.136H66.217V428.115H52.101C48.855 417.093 38.651 409.022 26.592 409.022C11.929 409.021 0 420.951 0 435.614C0 450.277 11.929 462.206 26.592 462.206C38.651 462.206 48.854 454.135 52.101 443.114H66.217V464.5C66.217 490.691 87.526 512 113.717 512H325.135C329.277 512 332.635 508.642 332.635 504.5C332.635 500.358 329.277 497 325.135 497H113.717C95.797 497 81.217 482.42 81.217 464.5V443.114H131.144C135.818 443.114 140.213 441.294 143.518 437.988L173.291 408.216C173.764 407.743 174.392 407.483 175.059 407.483H190.917C195.059 407.483 198.417 404.125 198.417 399.983C198.417 395.841 195.059 392.483 190.917 392.483H175.059C170.386 392.483 165.991 394.303 162.685 397.608L132.912 427.381C132.439 427.853 131.812 428.113 131.144 428.113H81.217V314.136H131.144C131.811 314.136 132.439 314.396 132.912 314.868L162.685 344.641C165.99 347.947 170.385 349.767 175.059 349.767H190.917C195.059 349.767 198.417 346.409 198.417 342.267C198.417 338.125 195.059 334.767 190.917 334.767H175.059C174.392 334.767 173.764 334.507 173.291 334.035L143.518 304.262C140.213 300.956 135.818 299.136 131.144 299.136H81.217V253.009C81.217 235.089 95.797 220.509 113.717 220.509H398.283C416.203 220.509 430.783 235.089 430.783 253.009V299.136H380.856C376.182 299.136 371.787 300.956 368.482 304.262L338.709 334.035C338.236 334.507 337.609 334.767 336.941 334.767H321.083C316.941 334.767 313.583 338.125 313.583 342.267C313.583 346.409 316.941 349.767 321.083 349.767H336.941C341.615 349.767 346.01 347.947 349.315 344.641L379.088 314.868C379.561 314.396 380.188 314.136 380.856 314.136H430.783V428.115H380.856C380.189 428.115 379.561 427.855 379.088 427.383L349.314 397.609C346.008 394.304 341.614 392.484 336.94 392.484H321.082C316.94 392.484 313.582 395.842 313.582 399.984C313.582 404.126 316.94 407.484 321.082 407.484H336.94C337.607 407.484 338.235 407.744 338.708 408.216L368.481 437.989C371.786 441.295 376.181 443.115 380.855 443.115H430.782V464.5C430.782 482.42 416.202 497 398.282 497H354.976C350.834 497 347.476 500.358 347.476 504.5C347.476 508.642 350.834 512 354.976 512H398.282C424.473 512 445.782 490.691 445.782 464.5V443.114H459.898C463.144 454.136 473.348 462.206 485.407 462.206C500.07 462.206 511.999 450.277 511.999 435.614C511.999 420.951 500.071 409.021 485.408 409.021ZM485.408 295.043C491.8 295.043 497 300.243 497 306.635C497 313.027 491.8 318.227 485.408 318.227C479.016 318.227 473.815 313.027 473.815 306.635C473.815 300.243 479.016 295.043 485.408 295.043ZM26.592 318.228C20.2 318.228 15 313.028 15 306.636C15 300.244 20.2 295.044 26.592 295.044C32.984 295.044 38.185 300.244 38.185 306.636C38.185 313.028 32.984 318.228 26.592 318.228ZM26.592 447.207C20.2 447.207 15 442.007 15 435.615C15 429.223 20.2 424.022 26.592 424.022C32.984 424.022 38.185 429.223 38.185 435.615C38.185 442.007 32.984 447.207 26.592 447.207ZM180.214 120.786C180.214 78.998 214.211 45 256 45C297.789 45 331.786 78.998 331.786 120.786V205.509H180.214V120.786ZM485.408 447.207C479.016 447.207 473.815 442.007 473.815 435.615C473.815 429.223 479.016 424.022 485.408 424.022C491.8 424.022 497 429.222 497 435.614C497 442.006 491.8 447.207 485.408 447.207Z" fill="#232559"/>
<path d="M390.665 397.717C405.328 397.717 417.257 385.788 417.257 371.125C417.257 356.462 405.328 344.533 390.665 344.533C378.606 344.533 368.403 352.604 365.157 363.625H307.75C303.608 363.625 300.25 366.983 300.25 371.125C300.25 375.267 303.608 378.625 307.75 378.625H365.157C368.403 389.647 378.606 397.717 390.665 397.717ZM390.665 359.533C397.057 359.533 402.257 364.733 402.257 371.125C402.257 377.517 397.057 382.717 390.665 382.717C384.273 382.717 379.073 377.517 379.073 371.125C379.073 364.733 384.273 359.533 390.665 359.533Z" fill="#232559"/>
</g>
<defs>
<clipPath id="clip0_1383_38">
<rect width="512" height="512" fill="white"/>
</clipPath>
</defs>
</svg>
