<?xml version="1.0" encoding="UTF-8"?>
<svg id="Layer_1" xmlns="http://www.w3.org/2000/svg" version="1.1" viewBox="0 0 512 512">
  <!-- Generator: Adobe Illustrator 30.0.0, SVG Export Plug-In . SVG Version: 2.1.1 Build 123)  -->
  <defs>
    <style>
      .st0 {
        fill: #35538a;
      }
    </style>
  </defs>
  <rect class="st0" x="-292.9" y="56.66" width="70.1" height="109.34"/>
  <path class="st0" d="M467.36,197.84v-15.66c.01-6.55-2.65-12.83-7.36-17.38-4.76-4.51-11.14-6.91-17.69-6.65-28.88.78-57.66,3.71-86.11,8.77l-10.33,2.04c-5.02-49.72-49.4-85.96-99.13-80.94-41.29,4.17-74.45,35.89-80.45,76.95v4.07c-31.84-6.34-64.15-9.98-96.6-10.88-13.44-.39-24.65,10.19-25.04,23.63,0,.21,0,.42-.01.64v15.66c-18.23,3.72-31.32,19.76-31.31,38.36v219.19c0,21.62,17.52,39.14,39.14,39.14h407.06c21.62,0,39.14-17.52,39.14-39.14v-219.19c.12-18.69-13-34.85-31.31-38.59ZM181.95,167.15c5.12-33.44,31.93-59.35,65.52-63.33,2.83-.31,5.68-.47,8.53-.47,18.39-.04,36.14,6.77,49.79,19.1,30.82,27.54,33.47,74.85,5.93,105.67-3.13,3.5-6.59,6.71-10.32,9.56-13.45,9.97-21.42,25.69-21.53,42.43-.04,6.12-4.99,11.07-11.12,11.12h-4.93v-54.8c0-1.83-.63-3.6-1.8-5.01l-28.49-34.13h42.66l-14.01,14.01c-2.81,3.28-2.43,8.23.85,11.04,2.93,2.51,7.25,2.51,10.18,0l27.4-27.4c3.03-3.09,2.98-8.04-.11-11.07-1.44-1.41-3.36-2.21-5.37-2.24h-78.28c-4.32,0-7.83,3.49-7.84,7.82,0,1.84.64,3.61,1.81,5.02l37.34,44.78v51.98h-4.93c-6.18,0-11.19-5.01-11.19-11.19,0-.03,0-.05,0-.08-.18-16.72-8.18-32.39-21.61-42.35-21.67-16.5-32.6-43.52-28.49-70.45ZM60.3,182.42c.04-4.8,3.96-8.66,8.76-8.62.08,0,.16,0,.24,0,32.46.9,64.78,4.62,96.6,11.12,1.82,25.77,14.69,49.49,35.3,65.05,9.65,7.01,15.45,18.14,15.66,30.06,0,14.65,11.74,26.59,26.38,26.85h25.52c14.87-.04,26.89-12.13,26.85-27.01,0-.03,0-.05,0-.08.26-11.82,6.06-22.84,15.66-29.75,20.51-15.66,33.29-39.39,35.07-65.13l12.99-2.58c27.54-4.9,55.41-7.75,83.37-8.53,2.38-.12,4.69.79,6.34,2.5,1.67,1.62,2.6,3.86,2.58,6.18v248.85c0,4.61-3.62,8.4-8.22,8.61-61.44.82-122.25,12.56-179.58,34.68v-136.44h7.83c4.32,0,7.83-3.5,7.83-7.83s-3.5-7.83-7.83-7.83h-31.31c-4.32,0-7.83,3.5-7.83,7.83s3.5,7.83,7.83,7.83h7.83v136.52c-57.32-22.17-118.13-33.94-179.58-34.76-4.63-.17-8.3-3.97-8.3-8.61v-248.93ZM28.99,455.62v-219.19c.03-9.93,6.3-18.77,15.66-22.08v216.99c.07,13.07,10.42,23.76,23.48,24.27,49.15,1.17,97.9,9.07,144.9,23.48H52.47c-12.97,0-23.48-10.51-23.48-23.48h0ZM483.01,455.62c0,12.97-10.51,23.48-23.48,23.48h-160.63c47.02-14.42,95.8-22.33,144.98-23.48,13.06-.5,23.41-11.2,23.48-24.27v-217.23c9.44,3.34,15.73,12.3,15.66,22.31v219.19Z"/>
  <path class="st0" d="M91.06,220.77c10.33.7,20.74,1.64,30.92,2.9h.94c4.32.26,8.04-3.04,8.3-7.36.26-4.32-3.04-8.04-7.36-8.3-10.41-1.25-21.14-2.27-31.7-2.97-4.32-.28-8.06,3-8.34,7.32-.28,4.32,3,8.06,7.32,8.34l-.08.08Z"/>
  <path class="st0" d="M91.06,253.1c19.1,1.25,38.12,3.47,56.99,6.65h1.33c4.32.37,8.13-2.84,8.49-7.16.37-4.32-2.84-8.13-7.16-8.49-19.39-3.29-38.93-5.59-58.55-6.89-4.32-.28-8.06,3-8.34,7.32-.28,4.32,3,8.06,7.32,8.34l-.08.23Z"/>
  <path class="st0" d="M83.78,299.6c-.27,4.3,2.98,8,7.28,8.3,41.87,2.57,83.28,10.11,123.37,22.47,4.13,1.3,8.53-1,9.82-5.13,1.3-4.13-1-8.53-5.13-9.82h0c-41.27-12.84-83.92-20.72-127.05-23.48-4.32-.26-8.02,3.03-8.28,7.34,0,.11-.01.22-.01.33Z"/>
  <path class="st0" d="M219.21,353.85c-41.27-12.84-83.92-20.72-127.05-23.48-4.32-.28-8.06,3-8.34,7.32-.28,4.32,3,8.06,7.32,8.34,41.87,2.59,83.29,10.16,123.37,22.54,4.28.63,8.25-2.33,8.88-6.61.49-3.32-1.2-6.58-4.19-8.11Z"/>
  <path class="st0" d="M219.21,392.99c-41.27-12.84-83.92-20.72-127.05-23.48-4.32-.28-8.06,3-8.34,7.32-.28,4.32,3,8.06,7.32,8.34,41.88,2.9,83.27,10.79,123.29,23.48,4.32,1.32,8.9-1.12,10.22-5.44,1.32-4.32-1.12-8.9-5.44-10.22Z"/>
  <path class="st0" d="M295.14,330.84c.78.12,1.57.12,2.35,0,40.08-12.39,81.5-19.95,123.37-22.54,4.32-.28,7.6-4.01,7.32-8.34-.28-4.32-4.01-7.6-8.34-7.32-43.13,2.76-85.78,10.64-127.05,23.48-4.32.65-7.3,4.68-6.65,9,.65,4.32,4.68,7.3,9,6.65v-.94Z"/>
  <path class="st0" d="M295.14,368.96c.78.12,1.57.12,2.35,0,40.07-12.52,81.48-20.22,123.37-22.94,4.32-.28,7.6-4.01,7.32-8.34-.28-4.32-4.01-7.6-8.34-7.32-43.13,2.76-85.78,10.64-127.05,23.48-4.32.65-7.3,4.68-6.65,9,.65,4.32,4.68,7.3,9,6.65v-.55Z"/>
  <path class="st0" d="M295.14,408.65c.78.12,1.57.12,2.35,0,40.08-12.39,81.5-19.95,123.37-22.54,4.32-.28,7.6-4.01,7.32-8.34-.28-4.32-4.01-7.6-8.34-7.32-43.09,2.46-85.74,10.02-127.05,22.54-4.32.65-7.3,4.68-6.65,9,.65,4.32,4.68,7.3,9,6.65Z"/>
  <path class="st0" d="M256,64.21c4.32,0,7.83-3.5,7.83-7.83v-31.31c0-4.32-3.5-7.83-7.83-7.83s-7.83,3.5-7.83,7.83v31.31c0,4.32,3.5,7.83,7.83,7.83Z"/>
  <path class="st0" d="M311.34,87.15c2.08.01,4.08-.8,5.56-2.27l22.15-22.15c2.81-3.28,2.43-8.23-.85-11.04-2.93-2.51-7.25-2.51-10.18,0l-22.23,22.08c-3.07,3.04-3.09,8-.05,11.07,1.48,1.49,3.5,2.33,5.6,2.32Z"/>
  <path class="st0" d="M195.1,84.88c3.28,2.81,8.23,2.43,11.04-.85,2.51-2.93,2.51-7.25,0-10.18l-22.08-22.23c-3.28-2.81-8.23-2.43-11.04.85-2.51,2.93-2.51,7.25,0,10.18l22.08,22.23Z"/>
</svg>