<?xml version="1.0" encoding="UTF-8"?>
<svg id="Layer_1" xmlns="http://www.w3.org/2000/svg" version="1.1" viewBox="0 0 512 512">
  <!-- Generator: Adobe Illustrator 30.0.0, SVG Export Plug-In . SVG Version: 2.1.1 Build 123)  -->
  <defs>
    <style>
      .st0 {
        fill: #35538a;
      }
    </style>
  </defs>
  <rect class="st0" x="-292.9" y="56.66" width="70.1" height="109.34"/>
  <g>
    <path class="st0" d="M492.86,333.47l-5.48-5.48c-6.59-6.59-11.1-14.89-13.04-24.01-3.88-18.21-12.89-34.79-26.05-47.95l-70.36-70.36c-10.1-10.1-26.53-10.1-36.63,0-3.01,3.01-5.11,6.58-6.33,10.38l-10.54-10.54c9.82-2.01,17.23-10.71,17.23-21.12v-76.56c0-14.64-4.21-28.87-12.18-41.15-3.73-5.75-5.7-12.42-5.7-19.27v-5.96c0-3.89-3.15-7.04-7.04-7.04h-94.16c-3.89,0-7.04,3.15-7.04,7.04v9.97c0,3.64-1.42,7.06-3.99,9.64l-63.83,63.83c-5.07,5.07-7.87,11.82-7.87,18.99s2.79,13.91,7.87,18.99c10.47,10.47,27.51,10.47,37.97,0l5.92-5.92v17.6c-2.91-.92-5.98-1.41-9.11-1.41-8.08,0-15.67,3.15-21.37,8.85l-64.37,64.37v-15.98c0-18.08-14.71-32.78-32.78-32.78-8.77,0-17,3.41-23.19,9.6-6.19,6.2-9.6,14.44-9.6,23.18v66.63c0,3.89,3.15,7.04,7.04,7.04s7.04-3.15,7.04-7.04v-66.63c0-4.99,1.95-9.69,5.48-13.23,3.53-3.53,8.22-5.47,13.23-5.47,10.31,0,18.7,8.39,18.7,18.7v40.57c0,1.99.84,3.83,2.22,5.13l12.75,12.75c12.14,12.14,15.16,30.62,7.52,45.99-1.73,3.48-.31,7.71,3.17,9.44,1.01.5,2.08.74,3.13.74,2.59,0,5.08-1.43,6.31-3.91,10.34-20.79,6.26-45.8-10.17-62.22l-10.84-10.84v-1.75l74.33-74.33c3.04-3.04,7.09-4.72,11.4-4.72,3.3,0,6.45,1,9.11,2.85v26.98l-56.44,56.44c-2.75,2.75-2.75,7.21,0,9.96,1.37,1.37,3.18,2.06,4.98,2.06s3.61-.69,4.98-2.06l49.17-49.17c4.11,8.09,12.51,13.65,22.19,13.65.93,0,1.85-.06,2.75-.15.9,2.25,2.06,4.39,3.47,6.37-5.58,1.15-10.89,3.88-15.21,8.2-3.37,3.37-5.77,7.34-7.21,11.57l-26.21,26.21c-2.75,2.75-2.75,7.21,0,9.96,1.37,1.37,3.18,2.06,4.98,2.06s3.61-.69,4.98-2.06l16.33-16.33c1.45,4.14,3.83,8.02,7.13,11.32l13.58,13.58-17.72,17.72c-2.75,2.75-2.75,7.21,0,9.96,1.37,1.37,3.18,2.06,4.98,2.06s3.61-.69,4.98-2.06l17.72-17.72,16.71,16.71-65.49,65.49c-.28-.3-.56-.6-.85-.89-14.14-14.14-37.14-14.14-51.28,0l-5.28,5.28-5.28-5.28c-6.85-6.85-15.95-10.62-25.64-10.62s-18.79,3.77-25.64,10.62c-.52.52-1.01,1.05-1.49,1.59l-35.63-35.63,4.17-4.18c6.33-6.32,9.95-15.06,9.94-23.98v-23.06c0-3.89-3.15-7.04-7.04-7.04s-7.04,3.15-7.04,7.04v23.07c0,5.21-2.11,10.32-5.81,14.01l-9.16,9.17c-2.75,2.75-2.75,7.21,0,9.96l43.29,43.29c-4.15,12.6-1.24,27.04,8.76,37.05l51.58,51.58c1.32,1.32,3.11,2.06,4.98,2.06s3.66-.74,4.98-2.06l51.58-51.58c10.27-10.27,13.07-25.22,8.42-38.05.11-.11.23-.22.34-.33l37.88-37.88c-3.13,5.02-4.94,10.94-4.95,17.28,0,8.76,3.41,16.99,9.6,23.19s14.43,9.6,23.19,9.6h117.35c5.29,0,10.26,2.06,14.01,5.8l9.16,9.16c1.37,1.37,3.18,2.06,4.98,2.06s3.61-.69,4.98-2.06l86.54-86.54c2.75-2.75,2.75-7.21,0-9.96h0ZM171.41,431.23l-46.6,46.6-46.6-46.6c-8.64-8.64-8.64-22.71,0-31.36,4.32-4.32,10-6.48,15.68-6.48s11.36,2.16,15.68,6.48l10.26,10.26c1.32,1.32,3.11,2.06,4.98,2.06s3.66-.74,4.98-2.06l10.26-10.26c8.65-8.64,22.71-8.64,31.36,0,8.65,8.64,8.65,22.71,0,31.36ZM205.67,203.05v-80.2l2.07-2.07c2.75-2.75,2.75-7.21,0-9.96-2.75-2.75-7.21-2.75-9.96,0l-22.07,22.07c-4.98,4.98-13.08,4.98-18.05,0-2.41-2.41-3.74-5.62-3.74-9.03s1.33-6.61,3.74-9.03l63.83-63.83c5.24-5.23,8.12-12.19,8.12-19.6v-2.92h80.09c.2,9.2,2.94,18.12,7.96,25.86,6.48,9.99,9.91,21.57,9.91,33.48v76.57c0,4.12-3.35,7.47-7.47,7.47s-7.47-3.35-7.47-7.47v-42.06c0-3.89-3.15-7.04-7.04-7.04s-7.04,3.15-7.04,7.04v77.89c0,5.95-4.84,10.78-10.79,10.78s-10.78-4.84-10.78-10.78v-61.07c0-3.89-3.15-7.04-7.04-7.04s-7.04,3.15-7.04,7.04v79.49c0,5.95-4.84,10.79-10.79,10.79s-10.79-4.84-10.79-10.79v-79.49c0-3.89-3.15-7.04-7.04-7.04s-7.04,3.15-7.04,7.04v63.9c0,5.95-4.84,10.79-10.78,10.79-5.95,0-10.79-4.84-10.79-10.78h0ZM257.67,335.28l14.15,14.15h-15.97c-6.34,0-12.26,1.81-17.28,4.94l19.09-19.09ZM401.35,415.03l-4.18-4.18c-6.4-6.4-14.91-9.93-23.96-9.93h-117.35c-5,0-9.69-1.94-13.23-5.48-3.53-3.53-5.48-8.23-5.48-13.22,0-10.31,8.39-18.7,18.7-18.7h40.56c1.87,0,3.66-.74,4.98-2.06l12.9-12.9c12.14-12.14,30.62-15.16,45.99-7.52,3.48,1.73,7.71.31,9.44-3.17,1.73-3.48.31-7.71-3.17-9.44-20.79-10.34-45.8-6.26-62.22,10.17l-10.84,10.84h-1.76l-74.32-74.32c-6.29-6.29-6.29-16.52,0-22.81,3.05-3.05,7.1-4.72,11.4-4.72s8.34,1.67,11.39,4.71h.01s0,.02.01.03l58.72,58.72c2.75,2.75,7.21,2.75,9.96,0,2.75-2.75,2.75-7.21,0-9.96l-57.57-57.57c.25,0,.51.02.76.02,12.19,0,22.35-8.82,24.46-20.41l49.02,49.02c1.37,1.37,3.18,2.06,4.98,2.06s3.61-.69,4.98-2.06c2.75-2.75,2.75-7.21,0-9.96l-38.77-38.77c9.27-3.62,15.85-12.64,15.85-23.17v-6.59l28.65,28.65s.01.01.02.02l38.65,38.65c2.75,2.75,7.21,2.75,9.96,0,2.75-2.75,2.75-7.21,0-9.96l-12.85-12.85s0,0,0,0l-25.8-25.8c-4.6-4.61-4.59-12.09,0-16.7,4.61-4.61,12.1-4.61,16.71,0l70.36,70.36c11.23,11.23,18.92,25.39,22.23,40.93,2.51,11.78,8.34,22.51,16.86,31.03l.5.5-76.58,76.57Z"/>
    <path class="st0" d="M422.77,165.15c1.32,1.32,3.11,2.06,4.98,2.06s3.66-.74,4.98-2.06l27.37-27.37c2.75-2.75,2.75-7.21,0-9.96-2.75-2.75-7.21-2.75-9.96,0l-22.39,22.39-46.6-46.6c-4.19-4.2-6.5-9.77-6.5-15.68s2.31-11.49,6.49-15.68c8.65-8.64,22.71-8.64,31.36,0l10.26,10.26c2.75,2.75,7.21,2.75,9.96,0l10.26-10.26c8.65-8.64,22.71-8.64,31.36,0,8.65,8.65,8.65,22.71,0,31.36l-4.33,4.33c-2.75,2.75-2.75,7.21,0,9.96,2.75,2.75,7.21,2.75,9.96,0l4.33-4.33c14.14-14.14,14.14-37.14,0-51.28-14.14-14.14-37.14-14.14-51.28,0l-5.28,5.28-5.28-5.28c-14.14-14.14-37.14-14.14-51.28,0-6.84,6.86-10.61,15.96-10.61,25.64s3.77,18.78,10.62,25.64l51.58,51.58Z"/>
    <path class="st0" d="M75.52,158.17c1.32,1.32,3.11,2.06,4.98,2.06s3.66-.74,4.98-2.06l38.01-38.01c5.4-5.4,8.37-12.57,8.37-20.2s-2.97-14.81-8.37-20.2c-11.14-11.14-29.27-11.14-40.41,0l-2.58,2.58-2.58-2.58c-11.14-11.14-29.27-11.14-40.41,0-11.14,11.14-11.14,29.27,0,40.41l38.01,38.01ZM47.47,89.71c2.82-2.82,6.53-4.24,10.24-4.24s7.42,1.41,10.24,4.24l7.56,7.56c1.32,1.32,3.11,2.06,4.98,2.06s3.66-.74,4.98-2.06l7.56-7.56c5.65-5.65,14.84-5.65,20.49,0,2.74,2.74,4.24,6.37,4.24,10.24s-1.51,7.51-4.24,10.24l-33.03,33.03-33.03-33.03c-5.65-5.65-5.65-14.84,0-20.49Z"/>
  </g>
</svg>