<?xml version="1.0" encoding="UTF-8"?>
<svg id="Layer_1" xmlns="http://www.w3.org/2000/svg" version="1.1" viewBox="0 0 512 512">
  <!-- Generator: Adobe Illustrator 30.0.0, SVG Export Plug-In . SVG Version: 2.1.1 Build 123)  -->
  <defs>
    <style>
      .st0 {
        fill: #35538a;
      }
    </style>
  </defs>
  <rect class="st0" x="-292.9" y="56.66" width="70.1" height="109.34"/>
  <g>
    <path class="st0" d="M494.89,281.4h-15.06v-147.27c8.18-6,13.51-15.67,13.51-26.57v-50.49c0-7.87-6.4-14.27-14.27-14.27H32.92c-7.87,0-14.27,6.4-14.27,14.27v50.49c0,10.9,5.33,20.57,13.51,26.57v147.27h-15.06c-7.02,0-12.74,5.71-12.74,12.74v25.52c0,7.02,5.71,12.74,12.74,12.74h15.06v139.47c0,6.78,5.51,12.29,12.29,12.29h279.92c4.07,0,7.37-3.3,7.37-7.37s-3.3-7.37-7.37-7.37H46.9v-137.01h78.64c4.07,0,7.37-3.3,7.37-7.37s-3.3-7.37-7.37-7.37H19.11v-21.51h473.78v21.51H159.95c-4.07,0-7.37,3.3-7.37,7.37s3.3,7.37,7.37,7.37h305.14v137.01h-106.32c-4.07,0-7.37,3.3-7.37,7.37s3.3,7.37,7.37,7.37h108.78c6.78,0,12.29-5.51,12.29-12.29v-139.47h15.06c7.02,0,12.74-5.71,12.74-12.74v-25.52c0-7.02-5.71-12.74-12.74-12.74h0ZM138.69,281.39h-47.55v-74.52h47.55v74.52ZM356.39,208.74h-13.9c-5.1,0-9.24-4.15-9.24-9.24s4.15-9.24,9.24-9.24h13.9c5.1,0,9.24,4.15,9.24,9.24s-4.15,9.24-9.24,9.24ZM424.85,255.66v25.74h-100.37v-25.74h100.37ZM434.87,71.92c4.07,0,7.37-3.3,7.37-7.37v-7h36.36v50.01c0,10.02-8.16,18.18-18.18,18.18s-18.18-8.16-18.18-18.18v-8.61c0-4.07-3.3-7.37-7.37-7.37s-7.37,3.3-7.37,7.37v8.61c0,10.02-8.16,18.18-18.18,18.18s-18.18-8.16-18.18-18.18v-50.01h36.36v7c0,4.07,3.3,7.37,7.37,7.37ZM376.39,107.55c0,10.02-8.16,18.18-18.18,18.18s-18.18-8.16-18.18-18.18v-50.01h36.36v50.01ZM325.28,107.55c0,10.02-8.16,18.18-18.18,18.18s-18.18-8.16-18.18-18.18v-50.01h36.36v50.01ZM274.18,107.55c0,10.02-8.16,18.18-18.18,18.18s-18.18-8.16-18.18-18.18v-50.01h36.36v50.01ZM223.07,107.55c0,10.02-8.16,18.18-18.18,18.18s-18.18-8.16-18.18-18.18v-50.01h36.36v50.01ZM171.96,107.55c0,10.02-8.16,18.18-18.18,18.18s-18.18-8.16-18.18-18.18v-50.01h36.36v50.01ZM120.86,107.55c0,10.02-8.16,18.18-18.18,18.18s-18.18-8.16-18.18-18.18v-50.01h36.36v50.01ZM33.39,57.54h36.36v50.01c0,10.02-8.16,18.18-18.18,18.18s-18.18-8.16-18.18-18.18v-50.01ZM51.57,140.48c10.3,0,19.51-4.76,25.55-12.19,6.04,7.43,15.25,12.19,25.55,12.19s19.51-4.76,25.55-12.19c6.04,7.43,15.25,12.19,25.55,12.19s19.51-4.76,25.55-12.19c6.04,7.43,15.25,12.19,25.55,12.19s19.51-4.76,25.55-12.19c6.04,7.43,15.25,12.19,25.55,12.19s19.51-4.76,25.55-12.19c6.04,7.43,15.25,12.19,25.55,12.19s19.51-4.76,25.55-12.19c6.04,7.43,15.25,12.19,25.55,12.19s19.51-4.76,25.55-12.19c6.04,7.43,15.25,12.19,25.55,12.19s19.51-4.76,25.55-12.19c6.04,7.43,15.25,12.19,25.55,12.19,1.59,0,3.14-.12,4.67-.34v141.25h-25.49v-25.71c0-8.14-6.63-14.77-14.77-14.77h-68.01v-17.44c13.03-.23,23.57-10.89,23.57-23.98s-10.76-23.99-23.99-23.99h-13.9c-13.23,0-23.99,10.76-23.99,23.99s10.53,23.75,23.56,23.98v17.44h-17.58c-8.14,0-14.77,6.63-14.77,14.77v25.71h-156.29v-74.91c0-7.92-6.44-14.36-14.36-14.36h-48.33c-7.92,0-14.36,6.44-14.36,14.36v74.91h-29.49v-141.25c1.53.22,3.08.34,4.67.34h0Z"/>
    <path class="st0" d="M207.94,400.9c0,26.5,21.56,48.06,48.05,48.06s48.06-21.56,48.06-48.06-21.56-48.05-48.06-48.05-48.05,21.56-48.05,48.05ZM289.31,400.9c0,18.37-14.94,33.31-33.31,33.31s-33.31-14.94-33.31-33.31,14.94-33.31,33.31-33.31,33.31,14.94,33.31,33.31h0Z"/>
    <path class="st0" d="M172.9,452.21c4.07,0,7.37-3.3,7.37-7.37v-38.58c10.41-3.61,18.01-14.67,18.01-27.71,0-15.97-11.39-28.96-25.38-28.96s-25.38,12.99-25.38,28.96c0,13.04,7.6,24.1,18.01,27.71v38.58c0,4.07,3.3,7.37,7.37,7.37h0ZM172.9,364.33c5.77,0,10.64,6.51,10.64,14.22s-4.87,14.22-10.64,14.22-10.64-6.51-10.64-14.22,4.87-14.22,10.64-14.22h0Z"/>
    <path class="st0" d="M358.36,398.38c4.32-4.66,6.53-10.96,6.05-17.3l-1.86-24.68c-.31-4.06-3.84-7.11-7.9-6.8-4.06.31-7.1,3.84-6.8,7.9l1.86,24.68c.17,2.29-.59,4.48-2.16,6.17-1.56,1.68-3.69,2.61-5.99,2.61s-4.43-.93-5.99-2.61c-1.56-1.69-2.33-3.87-2.16-6.17l1.86-24.68c.31-4.06-2.74-7.6-6.8-7.9-4.06-.31-7.6,2.74-7.9,6.8l-1.86,24.68c-.48,6.34,1.73,12.64,6.05,17.3,2.6,2.81,5.86,4.88,9.43,6.1v40.35c0,4.07,3.3,7.37,7.37,7.37s7.37-3.3,7.37-7.37v-40.35c3.57-1.21,6.82-3.29,9.42-6.1h0Z"/>
  </g>
</svg>