<?xml version="1.0" encoding="UTF-8"?>
<svg id="Layer_1" xmlns="http://www.w3.org/2000/svg" version="1.1" viewBox="0 0 512 512">
  <!-- Generator: Adobe Illustrator 30.0.0, SVG Export Plug-In . SVG Version: 2.1.1 Build 123)  -->
  <defs>
    <style>
      .st0 {
        fill: #2c3493;
      }
    </style>
  </defs>
  <path class="st0" d="M210.36,453.89l-1.5,7.35,1.45-7.36c-4.06-.8-8.01,1.84-8.81,5.91-.8,4.07,1.84,8.01,5.91,8.81.01,0,.12.02.14.03.48.09.95.14,1.42.14,3.53,0,6.67-2.5,7.36-6.09.78-4.07-1.89-8-5.96-8.78Z"/>
  <path class="st0" d="M267.7,456.3l.75,7.46-.77-7.46c-4.12.42-7.12,4.11-6.69,8.23.39,3.86,3.65,6.73,7.45,6.73.26,0,.52-.02.78-.04l.21-.02c4.1-.48,7.01-4.18,6.55-8.28-.46-4.1-4.17-7.05-8.27-6.62Z"/>
  <path class="st0" d="M238.99,457.24s-.11,0-.11,0c-4.13-.19-7.59,3.02-7.77,7.16-.18,4.14,3.07,7.64,7.2,7.83.12,0,.23,0,.35,0,3.98,0,7.3-3.14,7.48-7.16.19-4.14-3.01-7.64-7.15-7.83Z"/>
  <path class="st0" d="M182.66,446.27l-.09-.04c-3.9-1.4-8.15.64-9.55,4.54-1.4,3.9.67,8.21,4.57,9.61.84.3,1.7.44,2.54.44,3.07,0,5.96-1.9,7.06-4.96,1.4-3.9-.62-8.2-4.52-9.59Z"/>
  <path class="st0" d="M296.01,451.05l1.85,7.27-1.87-7.26c-4.01,1.03-6.43,5.12-5.39,9.13.87,3.38,3.92,5.63,7.26,5.63.62,0,1.25-.08,1.88-.24.03,0,.16-.04.2-.05,3.98-1.09,6.31-5.18,5.25-9.16-1.06-3.98-5.17-6.36-9.16-5.32Z"/>
  <path class="st0" d="M323.12,441.59l2.97,6.88-3-6.88c-3.8,1.66-5.54,6.07-3.88,9.87,1.23,2.82,3.99,4.51,6.88,4.51,1,0,2.02-.2,2.99-.62.03-.02.15-.07.18-.08,3.76-1.7,5.42-6.11,3.74-9.88-1.68-3.77-6.11-5.46-9.89-3.8Z"/>
  <path class="st0" d="M154.01,99.7c1.2,0,2.43-.29,3.55-.89,3.66-1.95,5.04-6.49,3.09-10.15-1.95-3.65-6.49-5.04-10.14-3.09l-.09.05c-3.65,1.95-4.99,6.47-3.04,10.12,1.34,2.52,3.95,3.95,6.64,3.95Z"/>
  <path class="st0" d="M67.25,183.47c1.11.58,2.3.86,3.48.86,2.7,0,5.31-1.46,6.65-4.02l.13-.26c1.83-3.72.3-8.21-3.42-10.04-3.69-1.82-8.15-.32-10,3.35-1.91,3.66-.5,8.19,3.16,10.11Z"/>
  <path class="st0" d="M56.7,211.68c.8.27,1.61.4,2.41.4,3.12,0,6.04-1.97,7.1-5.1l.1-.3c1.22-3.96-1-8.16-4.96-9.37-3.93-1.21-8.09.97-9.35,4.88-1.32,3.92.79,8.17,4.71,9.49Z"/>
  <path class="st0" d="M82.05,157.23c1.33.97,2.88,1.44,4.41,1.44,2.32,0,4.61-1.07,6.07-3.09l.1-.13c2.41-3.37,1.62-8.04-1.74-10.45-3.36-2.41-8.05-1.64-10.46,1.72l6.04,4.45-6.07-4.41c-2.44,3.35-1.7,8.04,1.65,10.48Z"/>
  <path class="st0" d="M128.55,115.9c1.57,0,3.16-.5,4.52-1.53,3.34-2.45,4.07-7.14,1.62-10.48-2.45-3.34-7.14-4.07-10.48-1.62l-.19.14c-3.3,2.5-3.95,7.22-1.45,10.52,1.48,1.95,3.71,2.97,5.98,2.97Z"/>
  <path class="st0" d="M105.89,135.66c1.95,0,3.9-.75,5.37-2.25,2.93-2.93,2.93-7.68,0-10.61s-7.68-2.93-10.61,0l-.12.12c-2.9,2.96-2.84,7.7.12,10.6,1.46,1.43,3.35,2.14,5.25,2.14Z"/>
  <path class="st0" d="M58.29,292.73c-.53-4.07-4.25-6.96-8.33-6.48-4.11.49-7.05,4.22-6.56,8.34l.04.3c.55,3.73,3.75,6.4,7.41,6.4.36,0,.73-.03,1.1-.08,4.08-.59,6.91-4.39,6.34-8.47Z"/>
  <path class="st0" d="M48.87,271.25c.08,0,.15,0,.23,0,4.04,0,7.38-3.21,7.49-7.28v-.32c0-4.14-3.35-7.5-7.49-7.5s-7.45,3.3-7.5,7.4c-.11,4.13,3.14,7.57,7.27,7.7Z"/>
  <path class="st0" d="M50.51,241.17c.45.08.89.12,1.33.12,3.56,0,6.72-2.55,7.38-6.18.02-.11.04-.22.05-.33.61-4.1-2.23-7.91-6.33-8.51-4.05-.6-7.84,2.18-8.5,6.22-.71,4.07,2,7.95,6.07,8.68Z"/>
  <path class="st0" d="M404.3,159.6c1.45,2.11,3.79,3.24,6.17,3.24,1.46,0,2.95-.43,4.25-1.32,3.41-2.34,4.27-7.02,1.93-10.43l-6.23,4.17,6.21-4.21c-2.33-3.43-6.99-4.32-10.42-2-3.43,2.32-4.32,6.99-2,10.42l.09.13Z"/>
  <path class="st0" d="M442.6,235.07c-4.12.46-7.08,4.18-6.61,8.29l.04.32c.54,3.74,3.75,6.44,7.42,6.44.35,0,.71-.02,1.07-.07,4.07-.58,6.9-4.33,6.38-8.39-.47-4.11-4.2-7.05-8.29-6.59Z"/>
  <path class="st0" d="M429.95,213.91l.03.1c.96,3.27,3.95,5.39,7.19,5.39.7,0,1.41-.1,2.12-.31,3.98-1.17,6.25-5.34,5.08-9.31l-.03-.1c-1.17-3.98-5.34-6.25-9.31-5.08-3.97,1.17-6.25,5.34-5.08,9.31Z"/>
  <path class="st0" d="M419.35,185.86c1.31,2.66,3.98,4.21,6.77,4.21,1.11,0,2.23-.25,3.29-.77,3.71-1.83,5.26-6.3,3.43-10.02l-6.8,3.17,6.79-3.18c-1.76-3.75-6.22-5.36-9.97-3.61s-5.37,6.22-3.61,9.97l.11.22Z"/>
  <path class="st0" d="M385.41,136.18c1.47,1.5,3.41,2.25,5.36,2.25s3.79-.71,5.25-2.14c2.94-2.88,3-7.57.17-10.54-2.81-3.03-7.54-3.21-10.58-.41-3.04,2.81-3.23,7.55-.42,10.6l.23.24Z"/>
  <path class="st0" d="M445.04,266.39c-4.12-.11-7.57,3.12-7.71,7.25-.19,4.11,2.96,7.6,7.07,7.83.14,0,.28.01.43.01,3.95,0,7.26-3.09,7.48-7.09v-.31c.13-4.14-3.13-7.57-7.27-7.7Z"/>
  <path class="st0" d="M337.45,99.35l.18.1c1.12.59,2.32.88,3.5.88,2.67,0,5.25-1.44,6.61-3.96,1.95-3.64.58-8.18-3.05-10.15l-3.63,6.56,3.61-6.58c-3.63-1.99-8.19-.66-10.18,2.97-1.99,3.63-.66,8.19,2.97,10.18Z"/>
  <path class="st0" d="M362.82,115.8l.12.09c1.36,1.03,2.95,1.52,4.53,1.52,2.27,0,4.5-1.02,5.98-2.97,2.5-3.3,1.86-8-1.44-10.51l-.05-.04c-3.29-2.52-7.99-1.91-10.52,1.38s-1.9,8,1.38,10.52Z"/>
  <path class="st0" d="M507.37,379.93l-35.21-35.27c-2.99-3-6.97-4.65-11.21-4.65s-8.22,1.65-11.21,4.65l-.82.82-2.31-2.32c-2.86-2.86-5.07-6.19-6.57-9.82-.13-.48-.31-.95-.53-1.39-1.15-3.23-1.75-6.66-1.75-10.19v-5.76c-.03-7.03-.42-20.92-.44-21.77-1.29-9.04-5.43-17.4-12-23.98l-34.16-34.21c-7.66-7.68-17.85-11.91-28.69-11.91-8.39,0-16.38,2.55-23.13,7.25l-3.62-3.64v-85.78c0-10.34-3.76-20.32-10.57-28.09-4.85-5.52-7.51-12.62-7.51-19.98v-6.28h.51c8.74,0,15.86-7.11,15.86-15.86V21.86c0-8.75-7.12-15.86-15.86-15.86h-140.1c-8.74,0-15.85,7.11-15.85,15.86v49.89c0,8.75,7.11,15.86,15.85,15.86h1.16v3.29c0,8.08-3.14,15.69-8.85,21.4l-15.12,15.15c-8.03,8.04-12.44,18.72-12.44,30.09v48.39c0,6.57,1.58,12.78,4.35,18.28-9.94.57-19.21,4.72-26.31,11.83l-34.16,34.21c-8.02,8.04-12.44,18.73-12.44,30.09v21.42c0,8.09-3.14,15.69-8.85,21.4l-2.28,2.29s-.02.02-.03.03l-.81-.82c-3-3-6.98-4.65-11.22-4.65s-8.22,1.65-11.21,4.65l-35.21,35.27c-6.17,6.18-6.17,16.25,0,22.43l12.06,12.07c2.92,2.94,7.67,2.94,10.6.02,2.93-2.93,2.94-7.68.01-10.61l-12.05-12.08c-.34-.34-.34-.89,0-1.23l35.21-35.27c.33-.33.86-.33,1.19,0l6.12,6.13,83.59,83.73,9.36,9.38c.34.34.34.89,0,1.23l-35.21,35.27c-.33.33-.87.33-1.19,0l-65.78-65.89c-2.93-2.94-7.68-2.94-10.61-.02-2.93,2.93-2.94,7.68-.01,10.61l65.78,65.9c3,3,6.98,4.65,11.22,4.65s8.21-1.65,11.21-4.65l35.21-35.27c6.17-6.18,6.17-16.24,0-22.43l-.39-.38,4.44-4.45c5.19-5.2,12.08-8.32,19.41-8.8,10.31-.66,20-5.06,27.31-12.38l32.34-32.41c9.33-2.45,16.59-10.05,18.56-19.57,3.33,1.59,7.04,2.48,10.96,2.48,14.11,0,25.58-11.49,25.58-25.62v-17.8c3.23,1.47,6.81,2.3,10.59,2.3,14.1,0,25.57-11.49,25.57-25.62v-52.65l23.08,23.19c1.46,1.47,3.39,2.2,5.31,2.2s3.83-.72,5.29-2.18c2.94-2.92,2.95-7.67.03-10.6l-19.24-19.33c3.73-2.05,7.92-3.15,12.29-3.15,6.83,0,13.25,2.67,18.08,7.51l34.15,34.21c5.2,5.21,8.06,12.13,8.06,19.49v21.42c0,12.09,4.7,23.46,13.23,32l2.33,2.33-10.88,10.9-65.8,65.91-3.66-3.67s-.08-.08-.12-.11l-.64-.65c-7.77-7.78-18.08-12.45-29.04-13.16-6.67-.44-12.95-3.28-17.69-8.03l-24.65-24.51c-2.93-2.93-7.68-2.91-10.61.02-2.91,2.94-2.9,7.69.04,10.61l24.62,24.49c7.31,7.32,17,11.72,27.32,12.38,7.32.48,14.21,3.6,19.4,8.8l.36.36c.19.22.4.43.62.63l3.46,3.46-.39.38c-6.17,6.19-6.17,16.24,0,22.43l35.21,35.27c3,3,6.98,4.65,11.22,4.65s8.21-1.65,11.21-4.65l99.07-99.24c6.17-6.19,6.17-16.25,0-22.43ZM201.49,407.29c-4.72,4.74-11,7.58-17.66,8.02-10.97.71-21.28,5.38-29.05,13.16l-4.42,4.43-3.99-3.99s-.1-.1-.15-.15l-72.54-72.67,2.33-2.33c8.53-8.54,13.23-19.91,13.23-32v-21.42c0-7.36,2.86-14.28,8.06-19.49l34.15-34.21c4.83-4.84,11.25-7.51,18.08-7.51,4.38,0,8.59,1.1,12.33,3.17l-19.27,19.3c-2.93,2.93-2.92,7.68,0,10.6,1.46,1.46,3.38,2.19,5.3,2.19s3.84-.73,5.31-2.19l23.01-23.06v93.63c0,14.13,11.48,25.62,25.58,25.62,3.98,0,7.74-.92,11.1-2.54,1.53,7.43,6.28,13.7,12.71,17.27l-24.12,24.17ZM320.72,301.66c0,5.85-4.75,10.61-10.58,10.61s-10.59-4.76-10.59-10.61v-83.66c0-4.14-3.35-7.5-7.5-7.5s-7.5,3.36-7.5,7.5v124.78c0,5.85-4.74,10.61-10.58,10.61-5.24,0-9.58-3.84-10.42-8.86v-126.62c0-4.14-3.36-7.5-7.5-7.5-1.34,0-2.59.35-3.67.96-2.38,1.26-3.99,3.76-3.99,6.63v124.77c0,.96.06,1.89.16,2.82v15.11c0,5.85-4.75,10.61-10.59,10.61s-10.57-4.76-10.57-10.61v-142.88c0-4.14-3.36-7.5-7.5-7.5s-7.51,3.36-7.51,7.5v124.95c0,5.86-4.74,10.62-10.58,10.62s-10.58-4.76-10.58-10.62v-139.51c0-4.14-3.36-7.5-7.5-7.5s-7.5,3.36-7.5,7.5v25.81c-.63.2-1.24.49-1.8.86-9.7-3.64-16.62-13.03-16.62-24v-48.39c0-7.36,2.86-14.29,8.06-19.49l15.12-15.15c8.53-8.55,13.23-19.91,13.23-32v-3.29h15.08c4.14,0,7.5-3.36,7.5-7.5s-3.36-7.5-7.5-7.5h-31.24c-.47,0-.85-.39-.85-.86V21.86c0-.47.38-.86.85-.86h140.1c.47,0,.86.39.86.86v49.89c0,.48-.39.86-.86.86h-73.65c-4.14,0-7.5,3.36-7.5,7.5s3.36,7.5,7.5,7.5h58.14v6.28c0,11,3.98,21.61,11.23,29.88,4.42,5.03,6.85,11.49,6.85,18.19v159.7ZM496.75,391.76l-99.07,99.24c-.16.17-.36.25-.59.25s-.43-.08-.6-.25l-35.21-35.27c-.34-.34-.34-.89,0-1.23l5.67-5.68,57.51-57.61,35.89-35.95c.33-.33.86-.33,1.19,0l35.21,35.27c.34.34.34.89,0,1.23Z"/>
</svg>