<svg width="512" height="512" viewBox="0 0 512 512" fill="none" xmlns="http://www.w3.org/2000/svg">
<path d="M175.282 239.71C158.155 239.71 144.221 253.644 144.221 270.771C144.221 287.898 158.155 301.833 175.282 301.833C192.409 301.833 206.343 287.898 206.343 270.771C206.343 253.644 192.409 239.71 175.282 239.71ZM175.282 286.805C166.442 286.805 159.249 279.613 159.249 270.772C159.249 261.932 166.441 254.74 175.282 254.74C184.123 254.74 191.315 261.932 191.315 270.772C191.315 279.612 184.122 286.805 175.282 286.805Z" fill="#232559"/>
<path d="M305.657 270.771C305.657 287.898 319.591 301.833 336.718 301.833C353.845 301.833 367.779 287.898 367.779 270.771C367.779 253.644 353.845 239.71 336.718 239.71C319.591 239.71 305.657 253.644 305.657 270.771ZM336.718 254.739C345.559 254.739 352.751 261.931 352.751 270.771C352.751 279.612 345.559 286.804 336.718 286.804C327.878 286.804 320.685 279.612 320.685 270.771C320.685 261.931 327.878 254.739 336.718 254.739Z" fill="#232559"/>
<path d="M511.143 376.469L477.267 174.734C477.245 174.605 477.22 174.477 477.192 174.35C472.424 140.899 449.914 113.531 420.048 101.254V87.3067C420.048 74.8767 409.936 64.7637 397.505 64.7637H369.168C356.738 64.7637 346.625 74.8767 346.625 87.3067V102.393C336.628 106.882 327.411 113.151 319.369 121.082H192.63C184.588 113.151 175.371 106.882 165.374 102.393V87.3067C165.374 74.8767 155.262 64.7637 142.831 64.7637H114.494C102.064 64.7637 91.9511 74.8767 91.9511 87.3067V101.255C62.0881 113.531 39.5801 140.896 34.8091 174.343C34.7801 174.472 34.7551 174.602 34.7331 174.734L23.8231 239.7C23.1361 243.793 25.8961 247.668 29.9891 248.355C34.0821 249.039 37.9571 246.282 38.6441 242.189L49.4491 177.841C49.5181 177.567 49.5731 177.287 49.6111 177.003C54.8411 138.404 88.1941 109.297 127.196 109.297C147.916 109.297 167.242 117.239 181.96 131.694V141.957C181.96 157.149 194.32 169.509 209.512 169.509H240.971C245.121 169.509 248.485 166.145 248.485 161.995C248.485 157.844 245.121 154.481 240.971 154.481H209.512C202.606 154.481 196.988 148.863 196.988 141.957V136.108H315.01V141.957C315.01 148.863 309.392 154.481 302.486 154.481H271.027C266.877 154.481 263.513 157.845 263.513 161.995C263.513 166.145 266.877 169.509 271.027 169.509H302.486C317.678 169.509 330.038 157.149 330.038 141.957V131.694C344.756 117.238 364.082 109.297 384.802 109.297C423.803 109.297 457.158 138.404 462.387 177.003C462.425 177.284 462.478 177.56 462.547 177.831L496.321 378.957C499.865 400.061 488.536 420.53 468.772 428.734C456.94 433.646 444.001 433.429 432.339 428.127C420.677 422.825 412.009 413.218 407.931 401.074L401.014 380.477C399.693 376.543 395.432 374.421 391.498 375.746C387.564 377.067 385.446 381.327 386.767 385.261L393.684 405.858C399.025 421.761 410.847 434.865 426.119 441.808C434.07 445.422 442.662 447.234 451.261 447.234C459.18 447.234 467.105 445.697 474.533 442.613C500.798 431.713 515.852 404.513 511.143 376.469ZM106.98 96.5147V87.3067C106.98 83.1627 110.351 79.7927 114.494 79.7927H142.831C146.975 79.7927 150.345 83.1637 150.345 87.3067V97.1467C142.883 95.2547 135.127 94.2697 127.197 94.2697C120.278 94.2697 113.513 95.0537 106.98 96.5147ZM361.655 97.1467V87.3067C361.655 83.1627 365.026 79.7927 369.169 79.7927H397.506C401.65 79.7927 405.02 83.1637 405.02 87.3067V96.5147C398.487 95.0537 391.722 94.2697 384.803 94.2697C376.873 94.2697 369.117 95.2547 361.655 97.1467Z" fill="#232559"/>
<path d="M391.439 351.968L378.084 312.202C377.322 309.932 375.523 308.161 373.242 307.434C370.962 306.708 368.47 307.111 366.534 308.522C358.375 314.469 348.719 317.612 338.61 317.612C325.592 317.612 313.443 312.435 304.4 303.035C302.983 301.562 301.028 300.73 298.985 300.73H213.016C210.973 300.73 209.017 301.563 207.601 303.035C198.558 312.436 186.408 317.612 173.39 317.612C163.281 317.612 153.624 314.468 145.466 308.522C143.532 307.112 141.041 306.708 138.759 307.434C136.477 308.161 134.679 309.932 133.917 312.202L104.069 401.075C99.991 413.219 91.323 422.826 79.661 428.128C67.998 433.43 55.06 433.644 43.228 428.735C23.463 420.531 12.135 400.062 15.679 378.958L33.664 271.858C34.351 267.765 31.591 263.89 27.498 263.203C23.4 262.522 19.53 265.276 18.843 269.369L0.858039 376.469C-3.85096 404.513 11.203 431.714 37.468 442.615C44.898 445.699 52.82 447.237 60.74 447.236C69.337 447.236 77.932 445.424 85.882 441.81C101.154 434.867 112.976 421.763 118.317 405.86L145.166 325.916C153.863 330.337 163.462 332.642 173.392 332.642C189.438 332.642 204.48 326.671 216.101 315.759H295.904C307.524 326.67 322.566 332.642 338.612 332.642C348.542 332.642 358.141 330.338 366.838 325.916L377.194 356.753C378.515 360.687 382.774 362.809 386.71 361.484C390.642 360.162 392.76 355.902 391.439 351.968Z" fill="#232559"/>
<path d="M127.801 140.968C114.867 140.968 104.344 151.491 104.344 164.425V166.126H102.643C89.709 166.126 79.186 176.649 79.186 189.583C79.186 202.517 89.708 213.04 102.643 213.04H104.344V214.741C104.344 227.675 114.867 238.198 127.801 238.198C140.735 238.198 151.258 227.675 151.258 214.741V213.04H152.959C165.893 213.04 176.416 202.517 176.416 189.583C176.416 176.649 165.894 166.126 152.959 166.126H151.258V164.425C151.257 151.491 140.735 140.968 127.801 140.968ZM152.959 181.155C157.606 181.155 161.387 184.936 161.387 189.583C161.387 194.23 157.606 198.011 152.959 198.011H143.743C139.593 198.011 136.229 201.375 136.229 205.525V214.741C136.229 219.389 132.448 223.169 127.801 223.169C123.154 223.169 119.372 219.388 119.372 214.741V205.525C119.372 201.375 116.008 198.011 111.858 198.011H102.643C97.996 198.011 94.215 194.23 94.215 189.583C94.215 184.935 97.996 181.155 102.643 181.155H111.858C116.008 181.155 119.372 177.791 119.372 173.641V164.425C119.372 159.777 123.153 155.997 127.801 155.997C132.448 155.997 136.229 159.778 136.229 164.425V173.641C136.229 177.791 139.593 181.155 143.743 181.155H152.959Z" fill="#232559"/>
<path d="M389.346 130.706C377.246 130.706 367.402 140.55 367.402 152.65C367.402 164.75 377.246 174.594 389.346 174.594C401.446 174.594 411.29 164.75 411.29 152.65C411.29 140.55 401.446 130.706 389.346 130.706ZM389.346 159.566C385.533 159.566 382.431 156.463 382.431 152.651C382.431 148.839 385.533 145.736 389.346 145.736C393.159 145.736 396.261 148.839 396.261 152.651C396.261 156.463 393.159 159.566 389.346 159.566Z" fill="#232559"/>
<path d="M389.346 204.571C377.246 204.571 367.402 214.415 367.402 226.515C367.402 238.614 377.246 248.458 389.346 248.458C401.446 248.458 411.29 238.614 411.29 226.514C411.29 214.415 401.446 204.571 389.346 204.571ZM389.346 233.43C385.533 233.43 382.431 230.327 382.431 226.515C382.431 222.702 385.533 219.6 389.346 219.6C393.159 219.6 396.261 222.703 396.261 226.515C396.261 230.327 393.159 233.43 389.346 233.43Z" fill="#232559"/>
<path d="M448.223 189.583C448.223 177.483 438.379 167.639 426.279 167.639C414.179 167.639 404.335 177.483 404.335 189.583C404.335 201.683 414.179 211.527 426.279 211.527C438.379 211.527 448.223 201.683 448.223 189.583ZM419.364 189.583C419.364 185.77 422.466 182.668 426.279 182.668C430.092 182.668 433.194 185.771 433.194 189.583C433.194 193.395 430.092 196.498 426.279 196.498C422.466 196.498 419.364 193.396 419.364 189.583Z" fill="#232559"/>
<path d="M330.469 189.583C330.469 201.683 340.313 211.527 352.413 211.527C364.513 211.527 374.356 201.683 374.356 189.583C374.356 177.483 364.512 167.639 352.413 167.639C340.313 167.639 330.469 177.483 330.469 189.583ZM359.328 189.583C359.328 193.396 356.226 196.498 352.413 196.498C348.6 196.498 345.498 193.395 345.498 189.583C345.498 185.771 348.6 182.668 352.413 182.668C356.226 182.667 359.328 185.77 359.328 189.583Z" fill="#232559"/>
<path d="M233.812 218.68C237.962 218.68 241.326 215.316 241.326 211.166C241.326 207.016 237.962 203.652 233.812 203.652H211.321C207.171 203.652 203.807 207.016 203.807 211.166C203.807 215.316 207.171 218.68 211.321 218.68H233.812Z" fill="#232559"/>
<path d="M300.679 203.652H278.188C274.038 203.652 270.674 207.016 270.674 211.166C270.674 215.316 274.038 218.68 278.188 218.68H300.679C304.829 218.68 308.193 215.316 308.193 211.166C308.193 207.015 304.829 203.652 300.679 203.652Z" fill="#232559"/>
</svg>
