<?xml version="1.0" encoding="UTF-8"?>
<svg id="Layer_1" xmlns="http://www.w3.org/2000/svg" version="1.1" viewBox="0 0 512 512">
  <!-- Generator: Adobe Illustrator 30.0.0, SVG Export Plug-In . SVG Version: 2.1.1 Build 123)  -->
  <defs>
    <style>
      .st0 {
        fill: #35538a;
      }
    </style>
  </defs>
  <rect class="st0" x="-292.9" y="56.66" width="70.1" height="109.34"/>
  <g id="_5-Star_Hotel">
    <path class="st0" d="M492.92,174.67h-125.59v-7.54h10.05c2.77,0,5.02-2.25,5.02-5.02v-22.15c0-2.77-2.25-5.02-5.02-5.02h-241.13c-2.77,0-5.02,2.25-5.02,5.02v22.15c0,2.77,2.25,5.02,5.02,5.02h10.05v7.54H20.71c-2.77,0-5.02,2.25-5.02,5.02v22.2c0,2.77,2.25,5.02,5.02,5.02h6.28v285.89c0,2.77,2.25,5.02,5.02,5.02h449.6c2.77,0,5.02-2.25,5.02-5.02V206.92h6.28c2.77,0,5.02-2.25,5.02-5.02v-22.2c0-2.77-2.25-5.02-5.02-5.02ZM141.28,157.09v-12.11h231.08v12.11h-231.08ZM156.35,167.14h200.94v224.8h-200.94v-224.8ZM455.25,401.99v15.92H58.39v-15.92h396.86ZM298.06,487.79h-13.21v-42.9c0-2.77-2.25-5.02-5.02-5.02h-46.02c-2.77,0-5.02,2.25-5.02,5.02v42.9h-13.21v-59.83h82.49v59.83ZM25.74,196.88v-12.16h120.56v12.16H25.74ZM37.04,206.92h109.26v185.02H53.37c-2.77,0-5.02,2.25-5.02,5.02v25.97c0,2.77,2.25,5.02,5.02,5.02h10.3v59.83h-26.62V206.92ZM73.71,427.96h112.78v59.83h-112.78v-59.83ZM196.54,487.79v-59.83h9.19v59.83h-9.19ZM239.04,487.79v-37.88h35.97v37.88h-35.97ZM308.31,487.79v-59.83h8.79v59.83h-8.79ZM327.15,487.79v-59.83h112.78v59.83h-112.78ZM476.4,487.79h-26.62v-59.83h10.05c2.77,0,5.02-2.25,5.02-5.02v-25.97c0-2.77-2.25-5.02-5.02-5.02h-92.48v-185.02h109.26l-.2,280.86ZM487.9,196.88h-120.56v-12.16h120.56v12.16Z"/>
    <path class="st0" d="M325.59,76.46l-2.36,13.97c-.77,4.48,2.23,8.75,6.72,9.52,1.79.31,3.63.02,5.24-.83l12.51-6.58c13.16,6.93,13.66,7.54,16.38,7.54,4.55.09,8.31-3.52,8.41-8.07.01-.53-.03-1.06-.12-1.58l-2.36-13.97,10.05-10.05c3.26-3.17,3.34-8.39.17-11.65-1.27-1.31-2.94-2.16-4.74-2.42l-14.12-1.61-6.28-12.91c-2.02-4.08-6.96-5.75-11.04-3.73-1.62.8-2.93,2.11-3.73,3.73l-6.28,12.91-14.02,2.01c-4.52.7-7.62,4.94-6.92,9.47.27,1.74,1.09,3.36,2.34,4.6l10.15,9.65ZM336.44,60.34c2.68-.43,4.99-2.13,6.18-4.57l5.02-10.05,5.02,10.05c1.21,2.42,3.51,4.1,6.18,4.52l11.35,1.61-7.89,8.04c-1.96,1.9-2.86,4.64-2.41,7.33l1.96,11.25-10.05-5.32c-2.39-1.26-5.25-1.26-7.64,0l-10.05,5.32,1.91-11.25c.49-2.69-.39-5.44-2.36-7.33l-8.59-7.99,11.35-1.61Z"/>
    <path class="st0" d="M234.72,58.83l-2.36,13.97c-.77,4.48,2.23,8.75,6.72,9.52,1.79.31,3.63.02,5.24-.83l12.51-6.58c13.16,6.93,13.66,7.54,16.38,7.54,4.55-.02,8.23-3.72,8.21-8.27,0-.46-.04-.92-.12-1.38l-2.36-13.97,10.05-10.05c3.27-3.17,3.35-8.38.18-11.65-1.26-1.3-2.91-2.15-4.71-2.42l-14.02-2.01-6.23-12.51c-2.02-4.08-6.96-5.75-11.04-3.73-1.62.8-2.93,2.11-3.73,3.73l-6.28,12.71-14.02,2.01c-4.5.67-7.61,4.86-6.94,9.36.27,1.79,1.12,3.45,2.42,4.71l10.1,9.85ZM245.57,42.7c2.69-.4,5.01-2.09,6.23-4.52l5.02-10.05,5.02,10.05c1.21,2.42,3.51,4.1,6.18,4.52l11.35,1.66-8.14,7.94c-1.96,1.9-2.86,4.64-2.41,7.33l1.96,11.2-10.05-5.32c-2.39-1.26-5.25-1.26-7.64,0l-10.05,5.32,1.96-11.25c.45-2.69-.45-5.44-2.41-7.33l-8.39-7.89,11.35-1.66Z"/>
    <path class="st0" d="M143.84,76.46l-2.56,13.97c-.77,4.48,2.23,8.75,6.72,9.52,1.79.31,3.63.02,5.24-.83l12.51-6.58c13.16,6.93,13.66,7.54,16.38,7.54,4.55-.02,8.23-3.72,8.21-8.27,0-.46-.04-.92-.12-1.38l-2.36-13.97,10.05-10.05c3.25-3.23,3.26-8.48.03-11.72-1.24-1.25-2.86-2.07-4.6-2.34l-13.71-1.61-6.28-12.91c-2.02-4.08-6.96-5.75-11.04-3.73-1.62.8-2.93,2.11-3.73,3.73l-6.28,12.91-14.02,2.01c-4.5.67-7.61,4.86-6.94,9.36.27,1.79,1.12,3.45,2.42,4.71l10.1,9.65ZM154.69,60.34c2.68-.43,4.99-2.13,6.18-4.57l5.02-10.05,5.02,10.05c1.21,2.42,3.51,4.1,6.18,4.52l11.35,1.61-8.19,7.99c-1.96,1.9-2.86,4.64-2.41,7.33l1.96,11.25c-15.97-8.39-11.96-8.39-27.93,0l1.96-11.25c.41-2.69-.53-5.42-2.51-7.28l-7.99-7.99,11.35-1.61Z"/>
    <path class="st0" d="M56.38,98.67l-2.36,13.97c-.76,4.49,2.27,8.74,6.75,9.5,1.76.3,3.57.01,5.15-.8l12.51-6.58c13.16,6.88,13.66,7.54,16.38,7.54,4.55-.02,8.23-3.72,8.21-8.27,0-.46-.04-.92-.12-1.38l-2.36-13.97,10.05-10.05c3.26-3.13,3.37-8.31.24-11.58-1.27-1.32-2.95-2.18-4.76-2.44l-14.02-2.06-6.03-12.51c-2.02-4.08-6.96-5.75-11.04-3.73-1.62.8-2.93,2.11-3.73,3.73l-6.43,12.66-13.97,2.06c-4.5.67-7.61,4.86-6.94,9.36.26,1.77,1.09,3.4,2.36,4.65l10.1,9.9ZM67.23,82.49c2.67-.37,4.99-2.05,6.18-4.47l5.02-10.05,5.02,10.05c1.19,2.42,3.51,4.1,6.18,4.47l11.35,1.66-8.19,7.99c-1.95,1.88-2.86,4.61-2.41,7.28l1.96,11.3-10.05-5.32c-2.39-1.26-5.25-1.26-7.64,0-.5,0,2.56-1.36-10.05,5.32l1.96-11.3c.44-2.68-.46-5.4-2.41-7.28l-8.29-7.99,11.35-1.66Z"/>
    <path class="st0" d="M413.05,98.67l-2.36,13.97c-.76,4.49,2.27,8.74,6.75,9.5,1.76.3,3.57.01,5.15-.8l12.51-6.58c13.16,6.88,13.66,7.54,16.38,7.54,4.55-.02,8.23-3.72,8.21-8.27,0-.46-.04-.92-.12-1.38l-2.36-13.97,10.05-10.05c3.26-3.13,3.37-8.31.24-11.58-1.27-1.32-2.95-2.18-4.76-2.44l-14.02-2.06-6.03-12.51c-2.02-4.08-6.96-5.75-11.04-3.73-1.62.8-2.93,2.11-3.73,3.73l-6.28,12.71-14.12,2.01c-4.5.67-7.61,4.86-6.94,9.36.26,1.77,1.09,3.4,2.36,4.65l10.1,9.9ZM423.9,82.49c2.67-.37,4.99-2.05,6.18-4.47l5.02-10.05,5.02,10.05c1.19,2.42,3.51,4.1,6.18,4.47l11.35,1.66-8.19,7.99c-1.95,1.88-2.86,4.61-2.41,7.28l1.96,11.3-10.05-5.32c-2.39-1.26-5.25-1.26-7.64,0-3.48,1.51-6.84,3.29-10.05,5.32l1.96-11.3c.44-2.68-.46-5.4-2.41-7.28l-8.29-7.99,11.35-1.66Z"/>
    <path class="st0" d="M171.42,381.89h170.8c2.77,0,5.02-2.25,5.02-5.02v-43.96c0-2.77-2.25-5.02-5.02-5.02h-170.8c-2.77,0-5.02,2.25-5.02,5.02v43.96c0,2.77,2.25,5.02,5.02,5.02ZM176.44,337.94h160.75v33.91h-160.75v-33.91Z"/>
    <path class="st0" d="M53.72,370.24h28.89c2.77,0,5.02-2.25,5.02-5.02v-28.89c0-2.77-2.25-5.02-5.02-5.02h-28.89c-2.77,0-5.02,2.25-5.02,5.02v28.89c0,2.77,2.25,5.02,5.02,5.02ZM58.74,341.35h18.84v18.84h-18.84v-18.84Z"/>
    <path class="st0" d="M100.74,370.24h28.89c2.77,0,5.02-2.25,5.02-5.02v-28.89c0-2.77-2.25-5.02-5.02-5.02h-28.89c-2.77,0-5.02,2.25-5.02,5.02v28.89c0,2.77,2.25,5.02,5.02,5.02ZM105.76,341.35h18.84v18.84h-18.84v-18.84Z"/>
    <path class="st0" d="M53.72,322.46h28.89c2.77,0,5.02-2.25,5.02-5.02v-28.89c0-2.77-2.25-5.02-5.02-5.02h-28.89c-2.77,0-5.02,2.25-5.02,5.02v28.89c0,2.77,2.25,5.02,5.02,5.02ZM58.74,293.58h18.84v18.84h-18.84v-18.84Z"/>
    <path class="st0" d="M100.74,322.46h28.89c2.77,0,5.02-2.25,5.02-5.02v-28.89c0-2.77-2.25-5.02-5.02-5.02h-28.89c-2.77,0-5.02,2.25-5.02,5.02v28.89c0,2.77,2.25,5.02,5.02,5.02ZM105.76,293.58h18.84v18.84h-18.84v-18.84Z"/>
    <path class="st0" d="M53.72,274.69h28.89c2.77,0,5.02-2.25,5.02-5.02v-28.89c0-2.77-2.25-5.02-5.02-5.02h-28.89c-2.77,0-5.02,2.25-5.02,5.02v28.89c0,2.77,2.25,5.02,5.02,5.02ZM58.74,245.8h18.84v18.84h-18.84v-18.84Z"/>
    <path class="st0" d="M100.74,274.69h28.89c2.77,0,5.02-2.25,5.02-5.02v-28.89c0-2.77-2.25-5.02-5.02-5.02h-28.89c-2.77,0-5.02,2.25-5.02,5.02v28.89c0,2.77,2.25,5.02,5.02,5.02ZM105.76,245.8h18.84v18.84h-18.84v-18.84Z"/>
    <path class="st0" d="M384.01,370.24h28.89c2.77,0,5.02-2.25,5.02-5.02v-28.89c0-2.77-2.25-5.02-5.02-5.02h-28.89c-2.77,0-5.02,2.25-5.02,5.02v28.89c0,2.77,2.25,5.02,5.02,5.02ZM389.04,341.35h18.84v18.84h-18.84v-18.84Z"/>
    <path class="st0" d="M431.03,370.24h28.89c2.77,0,5.02-2.25,5.02-5.02v-28.89c0-2.77-2.25-5.02-5.02-5.02h-28.89c-2.77,0-5.02,2.25-5.02,5.02v28.89c0,2.77,2.25,5.02,5.02,5.02ZM436.06,341.35h18.84v18.84h-18.84v-18.84Z"/>
    <path class="st0" d="M384.01,322.46h28.89c2.77,0,5.02-2.25,5.02-5.02v-28.89c0-2.77-2.25-5.02-5.02-5.02h-28.89c-2.77,0-5.02,2.25-5.02,5.02v28.89c0,2.77,2.25,5.02,5.02,5.02ZM389.04,293.58h18.84v18.84h-18.84v-18.84Z"/>
    <path class="st0" d="M431.03,322.46h28.89c2.77,0,5.02-2.25,5.02-5.02v-28.89c0-2.77-2.25-5.02-5.02-5.02h-28.89c-2.77,0-5.02,2.25-5.02,5.02v28.89c0,2.77,2.25,5.02,5.02,5.02ZM436.06,293.58h18.84v18.84h-18.84v-18.84Z"/>
    <path class="st0" d="M384.01,274.69h28.89c2.77,0,5.02-2.25,5.02-5.02v-28.89c0-2.77-2.25-5.02-5.02-5.02h-28.89c-2.77,0-5.02,2.25-5.02,5.02v28.89c0,2.77,2.25,5.02,5.02,5.02ZM389.04,245.8h18.84v18.84h-18.84v-18.84Z"/>
    <path class="st0" d="M431.03,274.69h28.89c2.77,0,5.02-2.25,5.02-5.02v-28.89c0-2.77-2.25-5.02-5.02-5.02h-28.89c-2.77,0-5.02,2.25-5.02,5.02v28.89c0,2.77,2.25,5.02,5.02,5.02ZM436.06,245.8h18.84v18.84h-18.84v-18.84Z"/>
    <path class="st0" d="M171.82,314.48h28.89c2.77,0,5.02-2.25,5.02-5.02v-28.89c0-2.77-2.25-5.02-5.02-5.02h-28.89c-2.77,0-5.02,2.25-5.02,5.02v28.89c0,2.77,2.25,5.02,5.02,5.02ZM176.84,285.59h18.84v18.84h-18.84v-18.84Z"/>
    <path class="st0" d="M218.84,314.48h28.89c2.77,0,5.02-2.25,5.02-5.02v-28.89c0-2.77-2.25-5.02-5.02-5.02h-28.89c-2.77,0-5.02,2.25-5.02,5.02v28.89c0,2.77,2.25,5.02,5.02,5.02ZM223.86,285.59h18.84v18.84h-18.84v-18.84Z"/>
    <path class="st0" d="M265.91,314.48h28.89c2.77,0,5.02-2.25,5.02-5.02v-28.89c0-2.77-2.25-5.02-5.02-5.02h-28.89c-2.77,0-5.02,2.25-5.02,5.02v28.89c0,2.77,2.25,5.02,5.02,5.02ZM270.93,285.59h18.84v18.84h-18.84v-18.84Z"/>
    <path class="st0" d="M312.93,314.48h28.89c2.77,0,5.02-2.25,5.02-5.02v-28.89c0-2.77-2.25-5.02-5.02-5.02h-28.89c-2.77,0-5.02,2.25-5.02,5.02v28.89c0,2.77,2.25,5.02,5.02,5.02ZM317.95,285.59h18.84v18.84h-18.84v-18.84Z"/>
    <path class="st0" d="M171.82,265.5h28.89c2.77,0,5.02-2.25,5.02-5.02v-28.89c0-2.77-2.25-5.02-5.02-5.02h-28.89c-2.77,0-5.02,2.25-5.02,5.02v28.89c0,2.77,2.25,5.02,5.02,5.02ZM176.84,236.61h18.84v18.84h-18.84v-18.84Z"/>
    <path class="st0" d="M218.84,265.5h28.89c2.77,0,5.02-2.25,5.02-5.02v-28.89c0-2.77-2.25-5.02-5.02-5.02h-28.89c-2.77,0-5.02,2.25-5.02,5.02v28.89c0,2.77,2.25,5.02,5.02,5.02ZM223.86,236.61h18.84v18.84h-18.84v-18.84Z"/>
    <path class="st0" d="M265.91,265.5h28.89c2.77,0,5.02-2.25,5.02-5.02v-28.89c0-2.77-2.25-5.02-5.02-5.02h-28.89c-2.77,0-5.02,2.25-5.02,5.02v28.89c0,2.77,2.25,5.02,5.02,5.02ZM270.93,236.61h18.84v18.84h-18.84v-18.84Z"/>
    <path class="st0" d="M312.93,265.5h28.89c2.77,0,5.02-2.25,5.02-5.02v-28.89c0-2.77-2.25-5.02-5.02-5.02h-28.89c-2.77,0-5.02,2.25-5.02,5.02v28.89c0,2.77,2.25,5.02,5.02,5.02ZM317.95,236.61h18.84v18.84h-18.84v-18.84Z"/>
    <path class="st0" d="M171.82,216.52h28.89c2.77,0,5.02-2.25,5.02-5.02v-28.89c0-2.77-2.25-5.02-5.02-5.02h-28.89c-2.77,0-5.02,2.25-5.02,5.02v28.89c0,2.77,2.25,5.02,5.02,5.02ZM176.84,187.63h18.84v18.84h-18.84v-18.84Z"/>
    <path class="st0" d="M218.84,216.52h28.89c2.77,0,5.02-2.25,5.02-5.02v-28.89c0-2.77-2.25-5.02-5.02-5.02h-28.89c-2.77,0-5.02,2.25-5.02,5.02v28.89c0,2.77,2.25,5.02,5.02,5.02ZM223.86,187.63h18.84v18.84h-18.84v-18.84Z"/>
    <path class="st0" d="M265.91,216.52h28.89c2.77,0,5.02-2.25,5.02-5.02v-28.89c0-2.77-2.25-5.02-5.02-5.02h-28.89c-2.77,0-5.02,2.25-5.02,5.02v28.89c0,2.77,2.25,5.02,5.02,5.02ZM270.93,187.63h18.84v18.84h-18.84v-18.84Z"/>
    <path class="st0" d="M312.93,216.52h28.89c2.77,0,5.02-2.25,5.02-5.02v-28.89c0-2.77-2.25-5.02-5.02-5.02h-28.89c-2.77,0-5.02,2.25-5.02,5.02v28.89c0,2.77,2.25,5.02,5.02,5.02ZM317.95,187.63h18.84v18.84h-18.84v-18.84Z"/>
    <path class="st0" d="M165.04,439.86h-22.4c-2.77,0-5.02,2.25-5.02,5.02v22.35c0,2.77,2.25,5.02,5.02,5.02h22.4c2.77,0,5.02-2.25,5.02-5.02v-22.35c0-2.77-2.25-5.02-5.02-5.02ZM160.02,462.22h-12.36v-12.31h12.36v12.31Z"/>
    <path class="st0" d="M114.8,439.86h-22.4c-2.77,0-5.02,2.25-5.02,5.02v22.35c0,2.77,2.25,5.02,5.02,5.02h22.4c2.77,0,5.02-2.25,5.02-5.02v-22.35c0-2.77-2.25-5.02-5.02-5.02ZM109.78,462.22h-12.36v-12.31h12.36v12.31Z"/>
    <path class="st0" d="M421.24,439.86h-22.4c-2.77,0-5.02,2.25-5.02,5.02v22.35c0,2.77,2.25,5.02,5.02,5.02h22.4c2.77,0,5.02-2.25,5.02-5.02v-22.35c0-2.77-2.25-5.02-5.02-5.02ZM416.22,462.22h-12.36v-12.31h12.36v12.31Z"/>
    <path class="st0" d="M371,439.86h-22.4c-2.77,0-5.02,2.25-5.02,5.02v22.35c0,2.77,2.25,5.02,5.02,5.02h22.4c2.77,0,5.02-2.25,5.02-5.02v-22.35c0-2.77-2.25-5.02-5.02-5.02ZM365.98,462.22h-12.36v-12.31h12.36v12.31Z"/>
  </g>
</svg>