<?xml version="1.0" encoding="UTF-8"?>
<svg id="Layer_1" xmlns="http://www.w3.org/2000/svg" version="1.1" viewBox="0 0 500 500">
  <!-- Generator: Adobe Illustrator 30.0.0, SVG Export Plug-In . SVG Version: 2.1.1 Build 123)  -->
  <defs>
    <style>
      .st0 {
        fill: #2c3493;
        fill-rule: evenodd;
      }
    </style>
  </defs>
  <path class="st0" d="M249.99,456.98c-12.37,0-22.43-10.07-22.43-22.45s10.06-22.43,22.43-22.43,22.43,10.06,22.43,22.43c0,12.37-10.06,22.45-22.43,22.45h0ZM215.48,329.29l-79.08,55.15c-.13-.1-.24-.21-.37-.3-21.17-17.79-37.93-40.26-48.85-65.53l73.64-43.47,13.96,3.74c18.05,4.86,33.39-14.39,24.35-30.96,9.79-5.97,13.13-18.43,7.63-28.49,9.8-5.97,13.13-18.51,7.64-28.53,15.94-9.71,12.69-33.89-5.61-38.95l-.47-.13c6.62-5.05,15.29-8.9,26.71-11.9l2.13,7.96c3.05,11.42,14.84,18.23,26.25,15.16l21.49-5.72,6.31,13.35-8.89,2.71c-7.32,2.23-5.63,13.07,1.94,13.07.64,0,1.3-.1,1.94-.29l22.89-6.88,19.49-5.22c4.3-1.15,8.75,1.41,9.9,5.71,1.15,4.3-1.41,8.74-5.72,9.9-3.6.96-5.65,4.6-4.72,8.17.96,3.56,4.62,5.68,8.18,4.72,4.31-1.15,8.75,1.41,9.9,5.72,1.16,4.3-1.41,8.74-5.72,9.89-3.59.96-5.65,4.63-4.71,8.18.95,3.56,4.62,5.68,8.18,4.71,4.26-1.15,8.74,1.43,9.9,5.72,1.15,4.3-1.41,8.74-5.7,9.9-3.56.95-5.67,4.61-4.71,8.17.96,3.56,4.62,5.68,8.17,4.72l2.58-.69c2.88-.77,5.84.94,6.61,3.82.77,2.88-.94,5.84-3.82,6.61-.55.15-1.08.37-1.58.65l-87.76,49.93-13.81-1.05c-14.14-1.07-26.65,2.34-38.28,10.45ZM166.69,187.5c-6.31,3.65-4.87,12.96,1.94,14.79l24.88,6.67c2.08.55,4.25.26,6.13-.83,6.32-3.64,4.88-12.96-1.94-14.79l-24.88-6.67c-2.07-.55-4.24-.25-6.13.83ZM195.78,231.75c1.14-4.29-1.41-8.76-5.72-9.9l-24.88-6.67c-2.07-.55-4.24-.26-6.12.82-6.26,3.62-4.95,12.94,1.94,14.79l24.88,6.67c4.27,1.14,8.76-1.45,9.9-5.72ZM151.42,244.52c-6.33,3.66-4.85,12.96,1.94,14.78l24.88,6.67c4.3,1.15,8.74-1.41,9.9-5.72,1.15-4.3-1.42-8.74-5.72-9.9l-24.88-6.66c-2.06-.55-4.26-.27-6.13.82h0ZM170.57,163.87c-1.15,4.32,1.41,8.76,5.72,9.9l24.88,6.67c2.07.56,4.24.26,6.12-.82,6.31-3.65,4.9-12.95-1.94-14.79l-24.88-6.67c-4.3-1.15-8.74,1.41-9.89,5.71ZM292.76,124.61l-44.77,11.99,2.09,7.81c1.15,4.31,5.59,6.87,9.9,5.72l26.92-7.15c3.11-.82,6.35.7,7.73,3.61l9.55,20.21.57-.17v-.02l13.02-3.49-13.88-33.05c-1.85-4.39-6.53-6.69-11.13-5.45h0ZM363.58,384.44c21.35-17.84,38.23-40.43,49.2-65.84l-56.9-33.6-74.28,42.27,81.99,57.17ZM249.99,43.02c12.37,0,22.43,10.06,22.43,22.43s-10.06,22.44-22.43,22.44-22.43-10.06-22.43-22.44c0-12.37,10.06-22.43,22.43-22.43ZM398.94,367.3c11.96-15.23,21.26-30.74,28.45-49.06,30.36-77.37,7.51-165.99-58.24-218.66-2.88-2.3-7.08-1.84-9.39,1.04s-1.85,7.08,1.04,9.39c58.89,47.19,80.9,125.54,56.98,196.04l-48.86-28.84c8.39-8.61,6.64-22.8-3.61-29.1,4.7-9.82,1.32-21.73-8.16-27.51,5.47-10.01,2.12-22.55-7.63-28.51,7.69-14.15-2.42-31.37-18.42-31.67l-14.91-35.52c-4.46-10.62-15.77-16.18-26.9-13.18l-51.11,13.69c-21.08,4.65-35.25,11.61-45.18,22.29l-9.09-2.43c-18.22-4.88-33.33,14.54-24.36,30.95-9.79,5.99-13.12,18.46-7.63,28.52-9.9,6.03-13.09,18.55-7.65,28.52-13.72,8.36-13.53,27.92-.34,36.34l-61.68,36.41c-6.25-18.27-9.54-37.68-9.54-57.63,0-85.45,59.59-157.52,142.63-173.87,4.01,15.37,18.02,26.74,34.63,26.74,19.74,0,35.79-16.05,35.79-35.79s-16.05-35.79-35.79-35.79c-18.25,0-33.35,13.73-35.51,31.41C124.77,77.98,59.37,156.69,59.37,248.37c0,54.84,22.82,105.27,63.13,141.69l10.23,8.59c2.93,2.26,7.03,1.78,9.36-1.15.33-.41.59-.86.8-1.31l80.23-55.95c9.13-6.36,18.53-8.93,29.62-8.08l14.04,1.07,85.95,59.93c-20.12,14.21-43.5,24.38-69.08,29.27-4.97-13.79-18.2-23.67-33.68-23.67-19.74,0-35.79,16.05-35.79,35.79s16.05,35.8,35.79,35.8,35.2-15.48,35.76-34.72c44.64-8.48,84.96-32.92,113.19-68.31Z"/>
</svg>