<?xml version="1.0" encoding="UTF-8"?>
<svg id="Layer_1" xmlns="http://www.w3.org/2000/svg" version="1.1" viewBox="0 0 512 512">
  <!-- Generator: Adobe Illustrator 30.0.0, SVG Export Plug-In . SVG Version: 2.1.1 Build 123)  -->
  <defs>
    <style>
      .st0 {
        fill: #35538a;
      }
    </style>
  </defs>
  <rect class="st0" x="-292.9" y="56.66" width="70.1" height="109.34"/>
  <g>
    <path class="st0" d="M325.25,145.71c14.96,0,27.13-12.17,27.13-27.13s-12.17-27.13-27.13-27.13-27.13,12.17-27.13,27.13,12.17,27.13,27.13,27.13ZM325.25,105.91c6.99,0,12.67,5.69,12.67,12.67s-5.69,12.67-12.67,12.67-12.67-5.69-12.67-12.67,5.69-12.67,12.67-12.67Z"/>
    <path class="st0" d="M479.69,125.45L259.28,13.16c-.06-.03-.11-.05-.17-.07-.15-.07-.3-.14-.45-.19-.14-.06-.27-.11-.41-.15-.15-.05-.31-.09-.47-.14-.14-.03-.28-.07-.42-.1-.16-.03-.32-.05-.48-.07-.14-.02-.29-.04-.43-.05-.16-.01-.32-.01-.48-.01-.15,0-.29,0-.44.01-.16,0-.31.03-.47.05-.15.02-.29.04-.44.06-.15.03-.3.07-.45.11-.15.04-.29.08-.44.12-.14.05-.29.1-.43.16-.15.06-.29.12-.44.19-.05.03-.11.04-.17.07L32.31,125.45c-2.42,1.23-3.95,3.72-3.95,6.44v253.19c0,.33.03.65.07.97.02.11.05.21.06.32.04.21.08.42.13.62.03.12.08.24.12.36.06.18.12.36.19.53.05.12.12.24.18.37.08.16.16.32.25.48.07.12.15.23.23.35.1.15.2.29.31.43.09.11.18.22.27.33.12.13.24.26.36.38.11.1.21.2.32.29.14.12.27.23.41.33.12.09.24.17.36.25.07.04.13.09.2.14.08.05.17.09.25.14.08.05.16.1.24.14l220.38,112.27c.49.26,1,.45,1.52.58,0,0,0,0,.01,0,0,0,.01,0,.02,0,.47.12.95.19,1.44.21h.03s0,0,.01,0c.1,0,.19,0,.29,0,.74,0,1.48-.11,2.19-.34t.02,0s0,0,.01,0c.38-.12.74-.27,1.1-.46l69.11-35.21c3.56-1.81,4.98-6.17,3.16-9.72-1.81-3.56-6.17-4.97-9.72-3.16l-12.08,6.16-37.99-19.55,40.46-20.83,38.12,19.7-2.7,1.38c-3.56,1.81-4.97,6.16-3.16,9.72,1.81,3.56,6.17,4.97,9.72,3.16l125.46-63.92c.09-.04.16-.1.24-.14.08-.05.17-.08.26-.14.07-.04.12-.09.19-.14.12-.08.24-.17.36-.25.14-.11.28-.22.41-.33.11-.09.21-.19.32-.29.13-.12.25-.26.36-.39.09-.11.19-.21.27-.32.11-.14.21-.29.31-.44.08-.11.16-.23.23-.35.09-.16.17-.32.25-.48.06-.12.12-.24.18-.37.08-.17.13-.35.19-.53.04-.12.09-.24.12-.37.05-.2.09-.41.13-.62.02-.11.05-.21.06-.32.05-.32.07-.65.07-.97v-253.19c0-2.72-1.52-5.21-3.95-6.44ZM315.11,345.59l-43.3-22.27,33.55-17.26,43.43,22.13-33.68,17.41ZM364.65,336.26l40.99,20.89-34.02,17.51-40.73-20.95,33.76-17.45ZM165.87,326.82l40.77-20.77,33.56,17.26-43.3,22.27-33.68-17.41,2.66-1.36ZM147.35,336.26l33.76,17.45-40.73,20.95-34.02-17.51,40.99-20.89ZM196.88,361.85l43.38,22.42-40.52,20.94-43.56-22.42,40.7-20.94ZM212.66,353.74l43.34-22.3,43.34,22.3-43.34,22.4-43.34-22.4ZM256,315.18l-33.48-17.22,20.22-10.3,13.26-6.76,12.79,6.52,20.69,10.54-33.48,17.22ZM248.77,31.4v135.74l-1.03-1.15s-.08-.09-.13-.14c-6.04-6.37-14.53-9.74-23.31-9.24-8.77.5-16.82,4.8-22.11,11.81l-20.22,26.8-25.22-23.96c-5.74-5.46-13.55-8.28-21.46-7.74-7.9.54-15.27,4.39-20.22,10.58l-34.3,42.86c-2.5,3.12-1.99,7.66,1.13,10.16,3.12,2.49,7.66,1.99,10.16-1.13l34.3-42.86c2.46-3.08,5.98-4.92,9.91-5.18,3.94-.27,7.66,1.08,10.52,3.79l31.14,29.59s.01,0,.02.02l26.84,25.5c1.4,1.33,3.19,1.99,4.98,1.99,1.91,0,3.82-.75,5.24-2.25,2.75-2.89,2.63-7.47-.26-10.22l-22.23-21.12,21.21-28.12c2.72-3.61,6.87-5.82,11.39-6.08,4.49-.24,8.83,1.46,11.94,4.69l11.71,12.99v79.62l-157.47,80.23-48.48,24.7v-85.75l31.18-38.97c2.5-3.12,1.99-7.66-1.13-10.16-3.11-2.5-7.66-1.99-10.16,1.13l-19.89,24.86v-128.07L248.77,31.4ZM51.51,385.09l38.97-19.85,34.09,17.55-38.61,19.85-34.46-17.55ZM101.85,410.73l38.52-19.81,43.6,22.45-38.2,19.74-43.92-22.37ZM161.63,441.18l38.12-19.7,40.46,20.83-37.98,19.55-40.6-20.68ZM293.9,469.96l-37.9,19.31-37.9-19.31,37.9-19.51,37.9,19.51ZM256,434.18l-40.49-20.85,40.49-20.92,40.49,20.92-40.49,20.85ZM271.75,384.27l43.38-22.42,40.7,20.94-43.56,22.42-40.52-20.94ZM366.23,433.1l-38.2-19.74,43.6-22.45,38.52,19.81-43.92,22.37ZM426.03,402.64l-38.6-19.85,34.09-17.55,38.97,19.85-34.46,17.55ZM469.18,290.66l-24.65-27.12c-2.68-2.96-7.26-3.17-10.21-.49-2.96,2.69-3.17,7.26-.49,10.21l35.35,38.91v61.12l-44.79-22.82-161.16-82.11v-63.58l39.75,44.11c1.43,1.58,3.39,2.39,5.37,2.39,1.73,0,3.46-.62,4.84-1.86,2.96-2.67,3.2-7.24.53-10.21l-15.89-17.63,28.72-35.35c3.34-4.11,8.29-6.55,13.58-6.7,5.27-.16,10.37,2.02,13.94,5.94l60.31,66.38c1.42,1.57,3.39,2.37,5.35,2.37,1.73,0,3.47-.62,4.86-1.88,2.96-2.69,3.17-7.26.49-10.21l-60.31-66.38c-6.4-7.05-15.53-10.94-25.03-10.67-9.51.26-18.41,4.65-24.41,12.03l-27.3,33.6-24.81-27.53V31.4l205.95,104.93v154.34Z"/>
  </g>
</svg>