<?xml version="1.0" encoding="UTF-8"?>
<svg id="Goals" xmlns="http://www.w3.org/2000/svg" version="1.1" viewBox="0 0 512 512">
  <!-- Generator: Adobe Illustrator 30.0.0, SVG Export Plug-In . SVG Version: 2.1.1 Build 123)  -->
  <defs>
    <style>
      .st0 {
        fill: #2b548d;
      }
    </style>
  </defs>
  <path class="st0" d="M357.27,425.63c-35.15,32.63-80.89,50.56-128.92,50.56-104.51,0-189.59-85.08-189.59-189.59S123.83,97,228.35,97c40.13,0,78.44,12.4,110.83,35.79,3.55,2.53,8.45,1.74,11.06-1.74,2.53-3.55,1.74-8.45-1.74-11.06-35.15-25.36-76.63-38.79-120.15-38.79-113.28,0-205.39,92.11-205.39,205.39s92.11,205.39,205.39,205.39c51.98,0,101.59-19.43,139.67-54.82,3.16-3,3.4-7.98.39-11.14-3-3.24-7.98-3.4-11.14-.4Z"/>
  <path class="st0" d="M383.89,164.7c-3.55,2.53-4.34,7.5-1.74,11.06,23.38,32.39,35.79,70.78,35.79,110.83,0,42.66-13.9,83.03-40.13,116.6-2.69,3.48-2.05,8.37,1.34,11.06,1.42,1.11,3.16,1.66,4.82,1.66,2.37,0,4.66-1.03,6.24-3,28.44-36.42,43.45-80.1,43.45-126.39,0-43.45-13.43-85-38.79-120.15-2.53-3.55-7.5-4.34-11.06-1.74l.08.08Z"/>
  <path class="st0" d="M310.58,170.55c2.37-3.71,1.26-8.53-2.45-10.9-23.78-15.09-51.43-23.15-79.87-23.15-33.34,0-64.94,10.74-91.32,31.05-3.48,2.69-4.11,7.58-1.42,11.06,1.58,2.05,3.87,3.08,6.24,3.08,1.66,0,3.4-.55,4.82-1.66,23.62-18.17,51.82-27.73,81.68-27.73,25.44,0,50.08,7.11,71.33,20.62,3.63,2.37,8.53,1.26,10.9-2.45l.08.08Z"/>
  <path class="st0" d="M228.35,420.89c-74.02,0-134.29-60.27-134.29-134.29,0-31.28,11.06-61.78,31.05-85.87,2.76-3.32,2.29-8.37-1.03-11.14s-8.29-2.29-11.14,1.03c-22.36,26.94-34.68,60.99-34.68,95.98,0,82.79,67.31,150.09,150.09,150.09s150.09-67.31,150.09-150.09c0-28.44-7.98-56.01-23.15-79.87-2.37-3.71-7.19-4.82-10.9-2.45s-4.74,7.19-2.45,10.9c13.51,21.25,20.62,45.98,20.62,71.33,0,74.02-60.27,134.29-134.29,134.29l.08.08Z"/>
  <path class="st0" d="M260.1,214.23c3.95,1.74,8.69,0,10.43-4.11,1.74-4.03,0-8.69-4.11-10.43-12.01-5.29-24.88-7.9-38.08-7.9-52.3,0-94.8,42.5-94.8,94.8s42.5,94.8,94.8,94.8,94.8-42.5,94.8-94.8c0-13.19-2.69-26.07-7.9-38.08-1.74-3.95-6.4-5.85-10.43-4.11s-5.85,6.4-4.11,10.43c4.34,10.03,6.64,20.7,6.64,31.76,0,43.53-35.47,79-79,79s-79-35.47-79-79,35.47-79,79-79c11.06,0,21.72,2.21,31.76,6.64Z"/>
  <path class="st0" d="M211.52,258.63c-3.08-3.08-8.14-3-11.14,0-7.43,7.5-11.53,17.46-11.53,27.89,0,21.8,17.7,39.5,39.5,39.5,10.43,0,20.38-4.11,27.89-11.53,3.08-3.08,3.16-8.06,0-11.14-3.08-3.08-8.06-3.16-11.14,0-4.58,4.5-10.51,6.95-16.83,6.95-13.03,0-23.7-10.66-23.7-23.7,0-6.24,2.45-12.24,6.95-16.83,3.08-3.08,3-8.14-.08-11.14h.08Z"/>
  <path class="st0" d="M496.3,70.3c-1.18-2.92-4.11-4.9-7.27-4.9h-39.5V25.9c0-3.16-1.9-6.08-4.9-7.27-2.92-1.26-6.32-.55-8.61,1.74l-55.3,55.3c-1.5,1.5-2.29,3.48-2.29,5.61v44.16l-155.7,155.7c-3.08,3.08-3.08,8.06,0,11.14,1.58,1.58,3.55,2.29,5.61,2.29s4.03-.79,5.61-2.29l155.7-155.7h44.16c2.13,0,4.11-.87,5.61-2.29l55.3-55.3c2.29-2.29,2.92-5.69,1.74-8.61l-.16-.08ZM430.42,120.7h-36.26v-36.26l39.5-39.5v28.36c0,4.34,3.55,7.9,7.9,7.9h28.36l-39.5,39.5Z"/>
</svg>