<?xml version="1.0" encoding="UTF-8"?>
<svg id="svg447" xmlns="http://www.w3.org/2000/svg" xmlns:svg="http://www.w3.org/2000/svg" version="1.1" viewBox="0 0 682.67 682.67">
  <!-- Generator: Adobe Illustrator 30.0.0, SVG Export Plug-In . SVG Version: 2.1.1 Build 123)  -->
  <defs>
    <style>
      .st0 {
        fill: #2c3493;
      }
    </style>
  </defs>
  <g id="path465">
    <path class="st0" d="M219.52,681.79H58.28c-11.93,0-21.63-9.7-21.63-21.63v-35.35c0-11.93,9.7-21.63,21.63-21.63h161.24c11.93,0,21.63,9.7,21.63,21.63v35.35c0,11.93-9.7,21.63-21.63,21.63ZM58.28,623.18c-.9,0-1.63.73-1.63,1.63v35.35c0,.9.73,1.63,1.63,1.63h161.24c.9,0,1.63-.73,1.63-1.63v-35.35c0-.9-.73-1.63-1.63-1.63H58.28Z"/>
  </g>
  <g id="path469">
    <path class="st0" d="M68.6,623.18c-5.52,0-10-4.48-10-10v-17.04c0-4.53-.83-8.99-2.46-13.26-2.76-7.23-6.66-16.24-11.56-26.79-2.33-5.01-.16-10.96,4.85-13.29s10.96-.16,13.28,4.85c5.1,10.97,9.18,20.42,12.11,28.08,2.51,6.55,3.78,13.42,3.78,20.4v17.04c0,5.52-4.48,10-10,10Z"/>
  </g>
  <g id="path473">
    <path class="st0" d="M212.66,623.19c-1.31,0-2.64-.26-3.92-.8-5.08-2.17-7.44-8.04-5.28-13.12.73-1.71,1.45-3.22,2.22-4.62l26.98-54.38c7.57-15.48,10.53-32.76,8.52-49.94l-5.47-46.79c-.05-.39-.07-.77-.07-1.16v-120.79c0-15.2-6.51-15.2-9.29-15.2-.36,0-.72-.02-1.07-.06-3.5-.39-8.14,1.85-13.08,6.28-16.02,14.39-29.56,46.48-29.56,70.08,0,18.42,0,39.34,0,50.87,0,8.35-3.27,16.22-9.2,22.16l-.23.23c-9.67,9.67-28.9,11.95-41.14,4.86-.75-.44-1.45-.97-2.06-1.58l-41.72-41.71c-10.98-10.98-17.02-25.57-17.02-41.1v-87.78c-5.62,4.69-10.9,9.17-15.58,13.14-6.38,5.41-11.42,9.69-14.74,12.3-5.23,4.11-7.99,10.49-8.95,20.69,0,.08-.02.15-.02.23l-11.74,99.47c-1.14,12.33,1.49,24.55,7.61,35.34,4.18,7.37,8.97,16.19,13.85,25.51,2.56,4.89.67,10.94-4.22,13.5-4.89,2.56-10.93.67-13.5-4.22-4.78-9.13-9.46-17.74-13.52-24.92-8.17-14.41-11.67-30.73-10.11-47.2,0-.08.02-.15.02-.23l11.74-99.48c1.5-15.61,6.89-26.87,16.49-34.41,3.02-2.38,8.18-6.75,14.16-11.82,9.1-7.72,20.44-17.34,32.28-26.8,3-2.4,7.11-2.86,10.58-1.2,3.46,1.67,5.66,5.17,5.66,9.01v108.87c0,10.18,3.97,19.75,11.17,26.95l40.6,40.59c4.69,1.97,12.93.95,16.05-2.18l.23-.23c2.14-2.14,3.33-4.99,3.33-8,0-11.53,0-32.45,0-50.87,0-29.41,15.9-66.73,36.2-84.96,9.16-8.23,18.84-12.14,28.03-11.34,17.76.26,28.77,13.69,28.77,35.2v120.21l5.4,46.21c2.45,20.99-1.16,42.12-10.44,61.1l-27.1,54.61c-.06.13-.13.26-.2.38-.48.87-.95,1.85-1.45,3.02-1.62,3.8-5.32,6.08-9.2,6.08Z"/>
  </g>
  <g id="path477">
    <path class="st0" d="M624.38,79.54h-95.79c-5.52,0-10-4.48-10-10s4.48-10,10-10h95.79c.9,0,1.63-.73,1.63-1.63V22.5c0-.9-.73-1.63-1.63-1.63h-161.24c-.9,0-1.63.73-1.63,1.63v35.4c0,.9.73,1.63,1.63,1.63h18.79c5.52,0,10,4.48,10,10s-4.48,10-10,10h-18.79c-11.93,0-21.63-9.7-21.63-21.63V22.5c0-11.93,9.7-21.63,21.63-21.63h161.24c11.93,0,21.63,9.7,21.63,21.63v35.4c0,11.93-9.7,21.63-21.63,21.63Z"/>
  </g>
  <g id="path481">
    <path class="st0" d="M601.38,415.18c-1.47,0-2.96-.33-4.33-.99-3.46-1.67-5.66-5.17-5.66-9.01v-108.87c0-10.18-3.97-19.75-11.17-26.95l-40.59-40.59c-4.69-1.97-12.93-.95-16.06,2.18l-.17.17c-2.19,2.19-3.38,5.04-3.38,8.05,0,11.53,0,32.45,0,50.87,0,29.42-15.9,66.73-36.2,84.96-9.16,8.23-18.84,12.14-28.03,11.34-17.76-.26-28.77-13.69-28.77-35.2v-120.21l-5.4-46.21c-2.45-20.99,1.16-42.12,10.44-61.1l27.1-54.61c.06-.12.13-.25.19-.37.48-.87.95-1.86,1.46-3.04,2.17-5.08,8.05-7.43,13.13-5.27,5.08,2.17,7.44,8.05,5.26,13.13-.73,1.7-1.45,3.21-2.21,4.61l-26.99,54.39c-7.57,15.48-10.53,32.77-8.52,49.94l5.47,46.79c.04.39.07.77.07,1.16v120.79c0,15.2,6.51,15.2,9.29,15.2.36,0,.72.02,1.07.06,3.5.37,8.14-1.85,13.07-6.28,16.02-14.39,29.56-46.48,29.56-70.08,0-18.42,0-39.34,0-50.87,0-8.36,3.27-16.23,9.21-22.16l.17-.17c9.71-9.72,28.95-12,41.19-4.91.75.44,1.45.97,2.06,1.58l41.71,41.71c10.98,10.98,17.02,25.57,17.02,41.1v87.78c5.62-4.69,10.9-9.16,15.58-13.13,6.38-5.41,11.42-9.69,14.74-12.3,5.23-4.11,7.99-10.49,8.95-20.69,0-.08.02-.15.03-.23l11.74-99.47c1.14-12.33-1.49-24.55-7.61-35.33-13.08-23.05-36.29-68.06-46.96-95.95-2.51-6.55-3.78-13.42-3.78-20.4v-17.04c0-5.52,4.48-10,10-10s10,4.48,10,10v17.04c0,4.53.83,8.99,2.46,13.26,9.34,24.43,30.56,66.58,45.68,93.23,8.17,14.4,11.67,30.72,10.11,47.2,0,.08-.02.15-.03.23l-11.74,99.48c-1.5,15.61-6.89,26.87-16.49,34.42-3.02,2.38-8.18,6.76-14.16,11.83-9.1,7.72-20.43,17.33-32.28,26.79-1.81,1.44-4.01,2.19-6.24,2.19Z"/>
  </g>
  <g id="path485">
    <path class="st0" d="M341.34,298.24c-5.52,0-10-4.48-10-10v-66.11h-58.75c-8.98,0-16.59-6.67-17.7-15.51-2.73-21.9-21.47-38.42-43.58-38.42s-40.85,16.51-43.58,38.41c-1.11,8.84-8.71,15.51-17.7,15.51h-58.75v55.41c0,5.52-4.48,10-10,10s-10-4.48-10-10v-57.55c0-9.85,8.01-17.85,17.85-17.85h59.03c4.85-30.88,31.64-53.92,63.14-53.92s58.29,23.04,63.14,53.92h59.03c9.84,0,17.85,8.01,17.85,17.85v68.26c0,5.52-4.48,10-10,10Z"/>
  </g>
  <g id="path489">
    <path class="st0" d="M333.49,482.18h-85.52c-5.52,0-10-4.48-10-10s4.48-10,10-10h83.37v-66.11c0-5.52,4.48-10,10-10s10,4.48,10,10v68.26c0,9.84-8.01,17.85-17.85,17.85Z"/>
  </g>
  <g id="path493">
    <path class="st0" d="M471.38,536.11c-31.85,0-58.33-23.41-63.14-53.92h-59.04c-9.84,0-17.85-8.01-17.85-17.85v-58.99c-30.66-4.69-54.21-31.24-54.21-63.19s23.56-58.5,54.21-63.19v-58.98c0-9.85,8.01-17.85,17.85-17.85h85.69c5.52,0,10,4.48,10,10s-4.48,10-10,10h-83.55v66.11c0,2.68-1.07,5.24-2.98,7.12s-4.48,2.92-7.17,2.88h-.24c-24.17.05-43.82,19.73-43.82,43.92s19.64,43.86,43.8,43.92c.14,0,.27,0,.41,0,5.52,0,10,4.48,10,10v66.11h66.1c5.52,0,10.01,4.48,10.01,10,0,24.22,19.7,43.92,43.92,43.92s43.92-19.7,43.92-43.92c0-5.52,4.48-10,10-10h66.09v-56.49c-.14-2.72.83-5.5,2.92-7.58.33-.33.71-.66,1.08-.94,3.03-2.27,7.08-2.64,10.47-.94,3.39,1.69,5.53,5.16,5.53,8.94v59.16c0,9.84-8.01,17.85-17.85,17.85h-59.02c-4.81,30.51-31.3,53.92-63.14,53.92Z"/>
  </g>
</svg>