<?xml version="1.0" encoding="UTF-8"?>
<svg id="Layer_1" xmlns="http://www.w3.org/2000/svg" version="1.1" viewBox="0 0 512 512">
  <!-- Generator: Adobe Illustrator 30.0.0, SVG Export Plug-In . SVG Version: 2.1.1 Build 123)  -->
  <defs>
    <style>
      .st0 {
        fill: #35538a;
      }
    </style>
  </defs>
  <path class="st0" d="M455.06,249.46h-29.51l-1.42-8.07c-1.93-10.96-11.9-18.45-22.72-17.06-2.95.38-5.71,1.36-8.15,2.87-2.68-9.91-12.12-16.47-22.3-15.18-2.94.38-5.69,1.36-8.12,2.86-1.24-4.84-4.26-9.12-8.44-11.9-4.68-3.12-10.3-4.16-15.81-2.92-10.01,2.26-16.62,11.66-15.75,21.88-2.81-.58-5.74-.56-8.64.09-10.63,2.39-17.45,12.85-15.51,23.81l.64,3.62h-81.86l.64-3.62c1.93-10.96-4.88-21.42-15.51-23.81-2.9-.65-5.83-.67-8.64-.09.87-10.22-5.75-19.62-15.76-21.88-5.51-1.24-11.12-.2-15.8,2.92-4.18,2.79-7.2,7.07-8.44,11.9-2.43-1.5-5.19-2.48-8.13-2.86-10.17-1.31-19.61,5.27-22.29,15.18-2.44-1.51-5.2-2.49-8.15-2.87-10.81-1.4-20.79,6.11-22.72,17.06l-1.42,8.07h-29.51c-6.37,0-12.36,2.48-16.87,6.99-4.51,4.51-6.99,10.5-6.99,16.87,0,13.16,10.71,23.86,23.86,23.86h21.09l-10.18,57.71c-.62,3.51,1.73,6.87,5.24,7.48,3.52.62,6.86-1.73,7.49-5.24l20.02-113.51c.72-4.08,4.46-6.99,8.35-6.49,5.16.67,6.98,5.48,6.42,8.68,0,0-9.51,53.92-9.51,53.92-.62,3.51,1.73,6.87,5.24,7.48.38.07.76.1,1.13.1,3.08,0,5.8-2.21,6.35-5.34l12.46-70.66c.72-4.08,4.47-7,8.34-6.5,5.18.67,6.99,5.5,6.42,8.7l-12.53,71.05c-.62,3.51,1.73,6.87,5.24,7.48.38.07.76.1,1.13.1,3.08,0,5.8-2.21,6.35-5.34l15.55-88.19c.73-4.16,4.89-6.91,9-5.98,3.82.86,6.35,4.88,5.62,8.96l-15.48,87.8c-.62,3.51,1.73,6.87,5.24,7.48.38.07.76.1,1.13.1,3.08,0,5.8-2.21,6.35-5.34l12.53-71.05s0-.03,0-.04c.69-4.13,4.98-6.85,9-5.94,3.82.86,6.34,4.88,5.63,8.96l-16.47,93.42c-.45,2.57.69,5.17,2.89,6.57,2.21,1.41,5.04,1.34,7.18-.16l12.85-9.01c1.43-1,3.11-1.53,4.84-1.53,2.76,0,5.35,1.35,6.93,3.6,2.4,3.43,1.9,8.16-1.15,11.01l-56.82,53.11c-1.02.96-1.71,2.22-1.95,3.6l-12.93,73.36c-.62,3.51,1.73,6.86,5.24,7.48.38.07.76.1,1.13.1,3.08,0,5.8-2.21,6.35-5.34l12.56-71.23,55.24-51.63c7.73-7.21,8.98-19.19,2.92-27.86-4-5.7-10.54-9.11-17.51-9.11-4.39,0-8.62,1.34-12.24,3.87l-.08.06,4.71-26.7h98.69l4.71,26.7-.09-.06c-3.61-2.53-7.85-3.86-12.24-3.86-6.97,0-13.52,3.41-17.52,9.11-6.07,8.67-4.81,20.65,2.92,27.86l55.24,51.63,12.56,71.23c.55,3.14,3.28,5.34,6.35,5.34.37,0,.75-.03,1.13-.1,3.51-.62,5.86-3.97,5.24-7.48l-12.93-73.36c-.24-1.38-.93-2.64-1.95-3.6l-56.82-53.11c-3.05-2.85-3.54-7.58-1.15-11,1.58-2.26,4.17-3.6,6.93-3.6,1.73,0,3.4.53,4.83,1.53l12.86,9.01c2.14,1.5,4.97,1.56,7.18.16,2.2-1.4,3.35-4,2.89-6.57l-16.47-93.42c-.72-4.08,1.8-8.1,5.63-8.96,4.4-.99,8.36,2.16,9,5.94,0,.01,12.53,71.09,12.53,71.09.55,3.13,3.28,5.34,6.35,5.34.37,0,.75-.03,1.13-.1,3.51-.62,5.86-3.97,5.24-7.48l-15.48-87.81c-.72-4.07,1.8-8.09,5.62-8.95,4.45-1.01,8.34,2.19,9.01,5.98l15.55,88.19c.55,3.13,3.28,5.34,6.35,5.34.37,0,.75-.03,1.13-.1,3.51-.62,5.86-3.97,5.24-7.48,0,0-12.53-71.05-12.53-71.05-.64-4.5,2.55-8.21,6.41-8.7,3.89-.5,7.63,2.42,8.35,6.5l12.46,70.66c.55,3.13,3.28,5.34,6.35,5.34.37,0,.75-.03,1.13-.1,3.51-.62,5.86-3.97,5.24-7.48,0,0-9.51-53.92-9.51-53.92-.79-4.47,2.54-8.19,6.42-8.68,3.88-.49,7.63,2.41,8.34,6.49l19.82,112.38c.62,3.51,3.97,5.87,7.49,5.24,3.51-.62,5.86-3.97,5.24-7.48l-9.98-56.58h21.09c6.37,0,12.36-2.48,16.87-6.99,4.51-4.51,6.99-10.5,6.99-16.87,0-13.16-10.71-23.87-23.86-23.87h0ZM85.1,284.27h-23.37c-6.03,0-10.94-4.91-10.94-10.94,0-2.92,1.14-5.67,3.21-7.74,2.07-2.07,4.81-3.21,7.74-3.21h27.23l-3.86,21.89ZM211.32,284.27l3.86-21.89h86.42l3.86,21.89h-94.14ZM462.79,281.06c-2.07,2.07-4.82,3.21-7.74,3.21h-23.37l-3.86-21.89h27.23c6.03,0,10.94,4.91,10.94,10.94,0,2.92-1.14,5.67-3.21,7.74h0Z"/>
  <path class="st0" d="M74.88,379.43c-3.51-.63-6.86,1.73-7.49,5.24l-16.38,92.9c-.62,3.51,1.73,6.87,5.24,7.48.38.07.76.1,1.13.1,3.08,0,5.8-2.21,6.35-5.34l16.38-92.9c.62-3.51-1.73-6.87-5.24-7.48Z"/>
  <path class="st0" d="M449.19,383.53c-.62-3.51-3.97-5.86-7.49-5.24-3.51.62-5.86,3.97-5.24,7.48l16.58,94.03c.55,3.13,3.28,5.34,6.35,5.34.37,0,.75-.03,1.13-.1,3.51-.62,5.86-3.97,5.24-7.48l-16.58-94.03Z"/>
  <path class="st0" d="M430.69,140.55c26.59,0,48.23-21.64,48.23-48.23s-21.64-48.23-48.23-48.23-48.23,21.64-48.23,48.23c0,26.59,21.64,48.23,48.23,48.23ZM430.69,57.02c19.47,0,35.31,15.84,35.31,35.31,0,3.28-.46,6.45-1.3,9.47-2.19-16.82-16.6-29.85-34.01-29.85-11.24,0-20.38,9.14-20.38,20.38s9.14,20.38,20.38,20.38c3.57,0,6.46-2.89,6.46-6.46s-2.89-6.46-6.46-6.46c-4.11,0-7.46-3.35-7.46-7.46s3.35-7.46,7.46-7.46c11.79,0,21.39,9.59,21.39,21.39s-9.59,21.39-21.39,21.39c-19.47,0-35.31-15.84-35.31-35.31s15.84-35.31,35.31-35.31Z"/>
  <path class="st0" d="M218.78,167.13c-2.9,2.66-5.07,6.1-6.27,10.07-1.95,6.42-1.13,13.44,2.23,19.26s9.04,10.04,15.57,11.56c4.04.94,8.1.79,11.86-.39.85,3.84,2.75,7.44,5.59,10.46,4.58,4.89,11.07,7.7,17.8,7.7s13.21-2.81,17.8-7.7c2.84-3.03,4.74-6.63,5.59-10.46,3.75,1.18,7.81,1.33,11.85.39,6.53-1.52,12.21-5.74,15.57-11.56s4.18-12.85,2.23-19.26c-1.2-3.97-3.36-7.41-6.27-10.07,2.9-2.66,5.06-6.1,6.27-10.07,1.95-6.42,1.13-13.44-2.23-19.26-3.36-5.83-9.04-10.04-15.57-11.56-4.04-.94-8.1-.79-11.86.39-.85-3.84-2.75-7.44-5.59-10.46-4.58-4.89-11.07-7.7-17.8-7.7s-13.21,2.81-17.8,7.7c-2.83,3.03-4.73,6.61-5.58,10.46-3.75-1.18-7.82-1.34-11.86-.39-6.53,1.52-12.21,5.74-15.57,11.56-3.36,5.83-4.18,12.85-2.23,19.26,1.21,3.97,3.36,7.4,6.27,10.07h0ZM305.17,190.01c-1.58,2.74-4.25,4.72-7.31,5.44-2.61.61-5.2.18-7.3-1.23-2.03-1.36-3.77-3.24-5.05-5.44,0,0,0,0,0-.01,0,0,0,0,0,0l-1.08-1.87c3.72-3.55,6.44-8.14,7.7-13.3h2.14c2.55,0,5.06.57,7.25,1.65,0,0,0,0,0,0h.03c2.24,1.12,3.91,3.14,4.69,5.71.91,3.01.53,6.31-1.05,9.05h0ZM285.49,145.51s0,0,0,0c.02-.03.03-.05.05-.08,1.27-2.17,3-4.03,4.94-5.33.03-.02.06-.04.1-.06,2.08-1.39,4.67-1.82,7.28-1.21,3.06.71,5.73,2.7,7.31,5.44,1.58,2.74,1.97,6.04,1.05,9.05-.78,2.57-2.44,4.59-4.72,5.71-2.2,1.08-4.71,1.65-7.26,1.65h-2.14c-1.26-5.16-3.98-9.75-7.7-13.3l1.08-1.87ZM273.91,209.27c-2.15,2.3-5.2,3.61-8.37,3.61s-6.22-1.32-8.37-3.61c-1.83-1.96-2.75-4.41-2.59-6.94.16-2.42.91-4.85,2.15-7.03.01-.02.03-.05.04-.07,0,0,0,0,0,0l1.07-1.85c2.44.72,5.02,1.11,7.69,1.11s5.25-.39,7.69-1.11l1.07,1.85s0,0,0,0c1.27,2.21,2.03,4.66,2.2,7.13.16,2.5-.76,4.95-2.59,6.91h0ZM257.18,125c2.15-2.3,5.2-3.61,8.37-3.61s6.22,1.32,8.37,3.61c1.83,1.96,2.75,4.41,2.59,6.94-.16,2.44-.92,4.9-2.2,7.11,0,0,0,0,0,0l-1.07,1.85c-2.44-.72-5.02-1.11-7.69-1.11s-5.25.39-7.69,1.11l-1.07-1.85c-1.27-2.21-2.03-4.66-2.2-7.14-.16-2.5.76-4.95,2.59-6.91h0ZM265.55,152.71c7.95,0,14.42,6.47,14.42,14.42s-6.47,14.42-14.42,14.42-14.42-6.47-14.42-14.42,6.47-14.42,14.42-14.42ZM225.92,144.26c1.58-2.74,4.25-4.72,7.31-5.44,2.61-.61,5.2-.18,7.3,1.23,2.03,1.36,3.78,3.25,5.06,5.46,0,0,0,0,0,0l1.08,1.87c-3.72,3.55-6.44,8.14-7.7,13.3h-2.14c-2.55,0-5.06-.57-7.25-1.65-.02-.01-.04-.02-.07-.03-2.23-1.11-3.87-3.13-4.65-5.68-.92-3.01-.53-6.31,1.05-9.05ZM224.87,180.96c.78-2.57,2.44-4.59,4.64-5.67.03-.02.07-.03.11-.05,2.19-1.07,4.69-1.64,7.22-1.64h2.14c1.26,5.16,3.98,9.75,7.7,13.3l-1.08,1.87c-1.27,2.21-3.02,4.09-5.06,5.46-.02.01-.03.02-.05.03-2.08,1.38-4.65,1.8-7.25,1.2-3.06-.71-5.73-2.7-7.31-5.44-1.58-2.74-1.97-6.04-1.05-9.05Z"/>
  <path class="st0" d="M291.77,85.95c15.27,3.9,28.12,13.53,36.18,27.12s10.36,29.49,6.46,44.76c-2.89,11.36,3.99,22.95,15.32,25.84,1.72.45,3.5.67,5.29.67,9.72,0,18.18-6.58,20.59-16,8.11-31.78.25-65.76-21.03-90.88-2.31-2.72-6.38-3.06-9.11-.75-2.72,2.31-3.06,6.38-.75,9.11,18.58,21.93,25.45,51.59,18.37,79.33-.94,3.69-4.26,6.27-8.06,6.27-.7,0-1.39-.09-2.08-.27-4.45-1.13-7.14-5.68-6.01-10.13,4.75-18.61,1.96-37.98-7.87-54.54-9.82-16.56-25.48-28.3-44.09-33.05-4.45-1.14-7.15-5.69-6.01-10.14,1.14-4.45,5.69-7.16,10.14-6.01,8.61,2.2,16.78,5.64,24.28,10.23,3.04,1.86,7.02.91,8.88-2.14,1.86-3.04.91-7.02-2.14-8.88-8.6-5.27-17.97-9.22-27.83-11.73-11.35-2.9-22.95,3.98-25.86,15.33-2.9,11.35,3.98,22.95,15.34,25.86Z"/>
  <path class="st0" d="M83.22,202.93c3.85,3.85,8.97,5.97,14.41,5.97s10.56-2.12,14.41-5.97l84.66-84.66c3.85-3.85,5.97-8.97,5.97-14.41s-2.12-10.56-5.97-14.41l-39.38-39.38c-3.85-3.85-8.97-5.97-14.41-5.97s-10.56,2.12-14.41,5.97l-84.66,84.66c-3.85,3.85-5.97,8.97-5.97,14.41s2.12,10.56,5.97,14.41l39.38,39.38ZM187.56,98.58c1.41,1.41,2.19,3.28,2.19,5.28s-.78,3.87-2.19,5.28l-84.66,84.66c-1.41,1.41-3.28,2.19-5.28,2.19s-3.87-.78-5.28-2.19l-5.28-5.28,95.21-95.21,5.28,5.28ZM162.59,73.62l10.55,10.55-95.21,95.21-10.55-10.55,95.21-95.21ZM52.97,143.86l84.66-84.66c1.41-1.41,3.28-2.19,5.28-2.19s3.87.78,5.28,2.19l5.28,5.28-95.21,95.21-5.28-5.28c-1.41-1.41-2.19-3.28-2.19-5.28s.78-3.87,2.19-5.28Z"/>
</svg>