<svg width="512" height="512" viewBox="0 0 512 512" fill="none" xmlns="http://www.w3.org/2000/svg">
<path d="M312.01 409.182H199.99V364.337H312.01V409.182ZM214.99 394.182H297.01V379.337H214.99V394.182Z" fill="#232559"/>
<path d="M387.185 379.337H124.814V164.863H387.185V379.337ZM139.814 364.337H372.185V179.863H139.814V364.337Z" fill="#232559"/>
<path d="M139.814 360.785H76.8999V210.433H139.81L139.814 360.785ZM91.9039 345.785H124.814V225.433H91.8999L91.9039 345.785Z" fill="#232559"/>
<path d="M435.1 360.785H372.19V210.433H435.1V360.785ZM387.19 345.785H420.1V225.433H387.19V345.785Z" fill="#232559"/>
<path d="M191.233 129.039H206.233V165.794H191.233V129.039Z" fill="#232559"/>
<path d="M305.766 129.039H320.766V165.794H305.766V129.039Z" fill="#232559"/>
<path d="M202.155 269.558C196.347 269.558 190.669 267.836 185.84 264.609C181.01 261.382 177.246 256.796 175.024 251.43C172.801 246.064 172.219 240.159 173.352 234.462C174.485 228.766 177.282 223.533 181.389 219.426C185.496 215.319 190.729 212.522 196.425 211.389C202.122 210.255 208.027 210.837 213.393 213.059C218.759 215.282 223.345 219.046 226.572 223.875C229.799 228.704 231.522 234.382 231.522 240.19C231.514 247.976 228.417 255.441 222.911 260.947C217.406 266.453 209.941 269.55 202.155 269.558ZM202.155 225.824C199.314 225.824 196.536 226.667 194.173 228.246C191.81 229.824 189.969 232.068 188.882 234.693C187.794 237.319 187.51 240.208 188.064 242.994C188.619 245.781 189.987 248.341 191.996 250.351C194.006 252.36 196.566 253.728 199.353 254.282C202.14 254.837 205.029 254.552 207.654 253.464C210.279 252.377 212.523 250.535 214.101 248.172C215.68 245.81 216.522 243.032 216.522 240.19C216.518 236.381 215.003 232.73 212.309 230.036C209.616 227.343 205.964 225.828 202.155 225.824Z" fill="#232559"/>
<path d="M309.842 269.558C304.034 269.558 298.356 267.836 293.527 264.609C288.697 261.382 284.933 256.796 282.711 251.43C280.488 246.064 279.906 240.159 281.039 234.462C282.172 228.766 284.969 223.533 289.076 219.426C293.183 215.319 298.416 212.522 304.112 211.389C309.809 210.255 315.714 210.837 321.08 213.059C326.446 215.282 331.032 219.046 334.259 223.875C337.486 228.704 339.209 234.382 339.209 240.19C339.201 247.976 336.104 255.441 330.598 260.947C325.093 266.453 317.628 269.55 309.842 269.558ZM309.842 225.824C307.001 225.824 304.223 226.667 301.86 228.246C299.497 229.824 297.656 232.068 296.569 234.693C295.481 237.319 295.197 240.208 295.751 242.994C296.306 245.781 297.674 248.341 299.683 250.351C301.693 252.36 304.253 253.728 307.04 254.282C309.827 254.837 312.716 254.552 315.341 253.464C317.966 252.377 320.21 250.535 321.788 248.172C323.367 245.81 324.209 243.032 324.209 240.19C324.205 236.381 322.69 232.73 319.996 230.036C317.303 227.343 313.651 225.828 309.842 225.824Z" fill="#232559"/>
<path d="M198.733 134.526C195.597 134.526 192.532 133.597 189.925 131.854C187.318 130.112 185.286 127.636 184.086 124.739C182.886 121.842 182.572 118.655 183.184 115.579C183.795 112.504 185.305 109.679 187.522 107.462C189.74 105.245 192.565 103.735 195.64 103.123C198.715 102.511 201.903 102.825 204.8 104.025C207.697 105.225 210.173 107.257 211.915 109.864C213.657 112.472 214.587 115.537 214.587 118.672C214.582 122.876 212.91 126.905 209.938 129.877C206.966 132.849 202.936 134.521 198.733 134.526ZM198.733 117.818C198.564 117.818 198.399 117.868 198.258 117.962C198.118 118.056 198.009 118.19 197.944 118.346C197.879 118.502 197.862 118.673 197.895 118.839C197.928 119.005 198.01 119.157 198.129 119.276C198.248 119.396 198.401 119.477 198.566 119.51C198.732 119.543 198.904 119.526 199.06 119.461C199.216 119.397 199.349 119.287 199.443 119.147C199.537 119.006 199.587 118.841 199.587 118.672C199.587 118.446 199.497 118.229 199.336 118.069C199.176 117.909 198.959 117.819 198.733 117.818Z" fill="#232559"/>
<path d="M313.267 134.526C310.131 134.526 307.066 133.597 304.459 131.854C301.852 130.112 299.82 127.636 298.62 124.739C297.42 121.842 297.106 118.655 297.718 115.579C298.329 112.504 299.839 109.679 302.057 107.462C304.274 105.245 307.099 103.735 310.174 103.123C313.25 102.511 316.437 102.825 319.334 104.025C322.231 105.225 324.707 107.257 326.449 109.864C328.191 112.472 329.121 115.537 329.121 118.672C329.116 122.876 327.444 126.905 324.472 129.878C321.5 132.85 317.47 134.522 313.267 134.526ZM313.267 117.818C313.098 117.818 312.933 117.868 312.793 117.962C312.652 118.056 312.543 118.19 312.478 118.346C312.413 118.502 312.397 118.673 312.43 118.839C312.462 119.005 312.544 119.157 312.663 119.276C312.783 119.396 312.935 119.477 313.101 119.51C313.266 119.543 313.438 119.526 313.594 119.461C313.75 119.397 313.883 119.287 313.977 119.147C314.071 119.006 314.121 118.841 314.121 118.672C314.121 118.446 314.031 118.229 313.871 118.069C313.711 117.909 313.494 117.819 313.267 117.818Z" fill="#232559"/>
<path d="M174.988 288.204H337.011V303.204H174.988V288.204Z" fill="#232559"/>
</svg>
