<?xml version="1.0" encoding="UTF-8"?>
<svg id="Layer_1" xmlns="http://www.w3.org/2000/svg" version="1.1" viewBox="0 0 512 512">
  <!-- Generator: Adobe Illustrator 30.0.0, SVG Export Plug-In . SVG Version: 2.1.1 Build 123)  -->
  <defs>
    <style>
      .st0 {
        fill: #35538a;
      }
    </style>
  </defs>
  <rect class="st0" x="-292.9" y="56.66" width="70.1" height="109.34"/>
  <path class="st0" d="M480.12,266.16c-.32-4.17-3.8-7.39-7.98-7.39h-114.79l-5.22-104.4c-.21-4.26-3.73-7.6-7.99-7.6h-56v-40c.01-39.75-32.2-71.99-71.95-72-8.19,0-16.33,1.39-24.05,4.13-37.47-13.27-78.6,6.35-91.87,43.82-2.73,7.72-4.13,15.86-4.13,24.05v40h-56c-4.26,0-7.78,3.34-7.99,7.6l-16,320c-.22,4.41,3.18,8.17,7.59,8.39.13,0,.27.01.4.01h464c4.42,0,8-3.58,8-8,0-.21,0-.41-.02-.61l-16-208ZM456.15,441.2l17.05,25.58h-34.1l17.05-25.58ZM477.82,444.87l-13.91-20.87-14.92-149.22h15.75l13.08,170.09ZM432.91,274.78l15,149.95-17.56,26.33-13.56-176.28h16.12ZM341.34,258.78h-15.06l-5.65-96h15.9l4.81,96ZM304.6,162.78l5.65,96h-16.9l-4.8-96h16.05ZM216.15,50.78c30.91.04,55.96,25.09,56,56v40h-32v-40c0-21.72-9.82-42.28-26.73-55.93.9-.04,1.81-.07,2.73-.07ZM192.15,56.19c19.53,9.28,31.98,28.96,32,50.59v40h-64v-40c.02-21.62,12.47-41.3,32-50.59ZM112.15,106.78c.04-30.91,25.09-55.96,56-56,.91,0,1.82.03,2.73.07-16.9,13.65-26.73,34.21-26.73,55.93v40h-32v-40ZM208.74,466.78H32.56l15.2-304h48.39v51.72l-20.44,13.62c-2.23,1.48-3.56,3.98-3.56,6.66v64c0,4.42,3.58,8,8,8h48c4.42,0,8-3.58,8-8v-64c0-2.67-1.34-5.17-3.56-6.66l-20.44-13.62v-51.72h112v24c0,4.42,3.58,8,8,8s8-3.58,8-8v-24h32.39l4.8,96h-45.19c-4.18,0-7.66,3.22-7.98,7.39l-15.43,200.61ZM104.15,228.39l16,10.67v51.72h-32v-51.72l16-10.67ZM239.56,274.78h161.18l14.77,192h-190.72l14.77-192Z"/>
  <path class="st0" d="M360.15,306.78c-4.42,0-8,3.58-8,8v64c-.01,13.25-10.75,23.99-24,24h-16c-13.25-.01-23.99-10.75-24-24v-64c0-4.42-3.58-8-8-8s-8,3.58-8,8v64c.02,22.08,17.92,39.98,40,40h16c22.08-.02,39.98-17.92,40-40v-64c0-4.42-3.58-8-8-8Z"/>
</svg>