<svg width="512" height="512" viewBox="0 0 512 512" fill="none" xmlns="http://www.w3.org/2000/svg">
<path d="M405.016 166.024L354.136 115.144C353.088 114.087 351.765 113.344 350.317 112.998C348.87 112.651 347.354 112.716 345.941 113.184C344.528 113.652 343.273 114.505 342.318 115.647C341.363 116.789 340.746 118.175 340.536 119.648C339.695 125.531 337.232 131.063 333.424 135.625C329.616 140.187 324.613 143.598 318.975 145.477C313.338 147.356 307.288 147.627 301.505 146.262C295.722 144.896 290.433 141.947 286.231 137.746C282.029 133.544 279.08 128.255 277.715 122.471C276.349 116.688 276.621 110.639 278.5 105.001C280.378 99.3636 283.79 94.3605 288.352 90.5524C292.913 86.7444 298.445 84.2817 304.328 83.4405C305.802 83.2303 307.188 82.6131 308.33 81.6582C309.472 80.7034 310.325 79.4488 310.793 78.0357C311.261 76.6225 311.325 75.1068 310.979 73.659C310.632 72.2112 309.889 70.8887 308.832 69.8405L257.952 18.9605C256.452 17.4607 254.417 16.6182 252.296 16.6182C250.175 16.6182 248.14 17.4607 246.64 18.9605L202.456 63.1285C200.28 54.9859 195.999 47.5598 190.043 41.5968C184.087 35.6338 176.666 31.3442 168.526 29.1594C160.386 26.9745 151.814 26.9715 143.672 29.1505C135.531 31.3296 128.106 35.614 122.146 41.5727C116.186 47.5315 111.899 54.9546 109.718 63.0956C107.537 71.2366 107.537 79.8084 109.72 87.949C111.903 96.0896 116.19 103.512 122.152 109.47C128.113 115.428 135.538 119.711 143.68 121.888L99.544 166.024C98.0442 167.525 97.2017 169.559 97.2017 171.68C97.2017 173.802 98.0442 175.836 99.544 177.336L143.696 221.544C134.004 224.148 125.371 229.724 119.013 237.489C112.654 245.253 108.889 254.815 108.247 264.831C107.605 274.846 110.119 284.811 115.434 293.324C120.749 301.836 128.599 308.469 137.88 312.288L119.2 366.168C116.718 371.759 115.552 377.844 115.791 383.956C116.029 390.068 117.666 396.044 120.576 401.424L148.656 467.824C148.76 468.08 148.88 468.328 149.016 468.568C150.983 472.173 152.009 476.215 152 480.32V488C152 490.122 152.843 492.157 154.343 493.657C155.843 495.158 157.878 496 160 496C162.122 496 164.157 495.158 165.657 493.657C167.157 492.157 168 490.122 168 488V480.32C167.991 473.665 166.343 467.115 163.2 461.248L135.112 394.848C135.001 394.574 134.872 394.307 134.728 394.048C132.894 390.702 131.875 386.971 131.753 383.157C131.631 379.343 132.409 375.554 134.024 372.096L153.592 315.776C154.432 315.776 155.256 315.896 156.104 315.896C166.663 315.906 176.929 312.427 185.306 306.001C193.684 299.574 199.705 290.561 202.432 280.36L216 293.872V376C216 378.122 216.843 380.157 218.343 381.657C219.843 383.158 221.878 384 224 384C226.122 384 228.157 383.158 229.657 381.657C231.157 380.157 232 378.122 232 376V264C232 257.635 234.529 251.531 239.029 247.03C243.53 242.529 249.635 240 256 240C262.365 240 268.47 242.529 272.971 247.03C277.471 251.531 280 257.635 280 264V360.888C280.014 372.065 282.615 383.086 287.6 393.088L290.528 398.96C294.399 406.74 296.414 415.311 296.414 424C296.414 432.69 294.399 441.261 290.528 449.04L282.528 465.04C280.867 468.376 280.002 472.051 280 475.776V488C280 490.122 280.843 492.157 282.343 493.657C283.843 495.158 285.878 496 288 496C290.122 496 292.157 495.158 293.657 493.657C295.157 492.157 296 490.122 296 488V475.776C295.992 474.539 296.265 473.316 296.8 472.2L304.8 456.2C309.776 446.197 312.366 435.177 312.366 424.004C312.366 412.832 309.776 401.812 304.8 391.808L301.872 385.936C299.004 380.176 297.145 373.966 296.376 367.576C301.572 372.791 307.748 376.927 314.548 379.745C321.348 382.564 328.639 384.01 336 384C342.365 384 348.47 381.472 352.971 376.971C357.471 372.47 360 366.366 360 360V314.4C370.325 311.846 379.508 305.93 386.104 297.585C392.699 289.24 396.332 278.939 396.432 268.302C396.532 257.666 393.093 247.299 386.655 238.831C380.218 230.364 371.148 224.277 360.872 221.528L405.016 177.32C406.511 175.821 407.35 173.79 407.35 171.672C407.35 169.555 406.511 167.524 405.016 166.024ZM336 368C325.395 367.988 315.228 363.769 307.73 356.271C300.231 348.772 296.013 338.605 296 328V286.4L302.112 280.288C304.633 289.762 310.002 298.234 317.494 304.558C324.985 310.881 334.237 314.753 344 315.648V360C344 362.122 343.157 364.157 341.657 365.657C340.157 367.158 338.122 368 336 368ZM337.144 222.664C335.943 223.851 335.149 225.388 334.875 227.053C334.6 228.719 334.86 230.429 335.616 231.938C336.373 233.447 337.587 234.679 339.086 235.456C340.584 236.233 342.291 236.516 343.96 236.264C350.606 235.324 357.38 236.497 363.323 239.618C369.266 242.739 374.077 247.651 377.075 253.656C380.073 259.662 381.107 266.459 380.029 273.085C378.952 279.71 375.818 285.83 371.072 290.576C366.325 295.323 360.206 298.456 353.58 299.534C346.955 300.611 340.158 299.578 334.152 296.58C328.146 293.582 323.235 288.771 320.114 282.828C316.993 276.885 315.819 270.111 316.76 263.464C317.011 261.795 316.728 260.089 315.951 258.59C315.174 257.092 313.943 255.877 312.434 255.121C310.924 254.364 309.215 254.105 307.549 254.379C305.883 254.654 304.347 255.448 303.16 256.648L296 263.824C295.988 258.572 294.942 253.372 292.921 248.524C290.901 243.675 287.945 239.272 284.222 235.566C280.499 231.86 276.083 228.923 271.226 226.924C266.369 224.924 261.165 223.901 255.912 223.912C250.659 223.924 245.46 224.97 240.611 226.991C235.763 229.012 231.36 231.968 227.653 235.69C220.169 243.208 215.977 253.392 216 264V271.248L201.336 256.584C200.149 255.384 198.613 254.59 196.947 254.315C195.281 254.041 193.572 254.3 192.062 255.057C190.553 255.813 189.322 257.028 188.545 258.526C187.768 260.025 187.484 261.731 187.736 263.4C188.677 270.047 187.503 276.821 184.382 282.764C181.261 288.707 176.35 293.518 170.344 296.516C164.338 299.514 157.541 300.547 150.916 299.47C144.29 298.392 138.171 295.259 133.424 290.512C128.678 285.766 125.544 279.646 124.467 273.021C123.389 266.395 124.423 259.598 127.421 253.592C130.419 247.587 135.23 242.675 141.173 239.554C147.116 236.433 153.89 235.26 160.536 236.2C162.206 236.454 163.913 236.173 165.414 235.396C166.914 234.62 168.13 233.389 168.888 231.879C169.645 230.369 169.905 228.658 169.631 226.992C169.356 225.325 168.562 223.788 167.36 222.6L116.504 171.68L167.416 120.8C168.617 119.614 169.411 118.077 169.685 116.412C169.96 114.746 169.7 113.036 168.944 111.527C168.187 110.017 166.973 108.786 165.474 108.009C163.975 107.232 162.269 106.949 160.6 107.2C153.962 108.128 147.201 106.948 141.27 103.827C135.338 100.706 130.537 95.8019 127.542 89.8058C124.548 83.8097 123.512 77.0248 124.58 70.4082C125.648 63.7917 128.767 57.6776 133.496 52.9285C139.595 47.1181 147.696 43.877 156.12 43.877C164.544 43.877 172.645 47.1181 178.744 52.9285C182.245 56.4385 184.882 60.714 186.448 65.4176C188.014 70.1212 188.466 75.1244 187.768 80.0325C187.516 81.7018 187.8 83.4079 188.577 84.9067C189.354 86.4054 190.585 87.6198 192.094 88.3763C193.604 89.1327 195.313 89.3922 196.979 89.1178C198.645 88.8434 200.181 88.049 201.368 86.8485L252.32 35.9525L288.168 71.8085C281.239 75.1179 275.204 80.0415 270.572 86.1659C265.94 92.2903 262.844 99.4368 261.546 107.005C260.247 114.574 260.783 122.343 263.109 129.662C265.435 136.98 269.483 143.633 274.913 149.063C280.343 154.493 286.996 158.541 294.315 160.867C301.633 163.193 309.403 163.729 316.971 162.431C324.54 161.132 331.686 158.037 337.811 153.404C343.935 148.772 348.859 142.738 352.168 135.808L388.024 171.656L337.144 222.664Z" fill="#232559"/>
<path d="M488 184H440C437.878 184 435.843 183.157 434.343 181.657C432.843 180.157 432 178.122 432 176C432 173.878 432.843 171.843 434.343 170.343C435.843 168.843 437.878 168 440 168H488C490.122 168 492.157 168.843 493.657 170.343C495.157 171.843 496 173.878 496 176C496 178.122 495.157 180.157 493.657 181.657C492.157 183.157 490.122 184 488 184Z" fill="#232559"/>
<path d="M431.352 92.0008C429.591 92.0008 427.879 91.4196 426.482 90.3476C425.085 89.2755 424.081 87.7724 423.625 86.0714C423.169 84.3704 423.288 82.5665 423.961 80.9396C424.635 79.3126 425.827 77.9534 427.352 77.0728L468.952 53.0728C470.789 52.0287 472.964 51.7533 475.002 52.3068C477.041 52.8603 478.778 54.1978 479.834 56.0273C480.891 57.8568 481.18 60.0298 480.64 62.0722C480.101 64.1145 478.775 65.8604 476.952 66.9288L435.352 90.9288C434.137 91.6339 432.757 92.0038 431.352 92.0008Z" fill="#232559"/>
<path d="M472.912 300C471.507 300.003 470.127 299.633 468.912 298.928L427.312 274.928C426.394 274.407 425.589 273.709 424.943 272.875C424.297 272.041 423.822 271.088 423.545 270.07C423.269 269.052 423.196 267.989 423.332 266.942C423.468 265.896 423.81 264.887 424.337 263.974C424.865 263.06 425.568 262.26 426.406 261.619C427.244 260.978 428.201 260.509 429.221 260.239C430.241 259.97 431.304 259.904 432.349 260.047C433.395 260.19 434.401 260.539 435.312 261.072L476.912 285.072C478.437 285.953 479.628 287.312 480.302 288.939C480.976 290.566 481.094 292.37 480.639 294.071C480.183 295.772 479.179 297.275 477.781 298.347C476.384 299.419 474.673 300 472.912 300Z" fill="#232559"/>
<path d="M72 184H24C21.8783 184 19.8434 183.157 18.3431 181.657C16.8429 180.157 16 178.122 16 176C16 173.878 16.8429 171.843 18.3431 170.343C19.8434 168.843 21.8783 168 24 168H72C74.1217 168 76.1566 168.843 77.6569 170.343C79.1571 171.843 80 173.878 80 176C80 178.122 79.1571 180.157 77.6569 181.657C76.1566 183.157 74.1217 184 72 184Z" fill="#232559"/>
<path d="M80.6478 92.0008C79.2431 92.0038 77.8628 91.6339 76.6478 90.9288L35.0478 66.9288C33.2254 65.8604 31.8995 64.1145 31.3595 62.0722C30.8195 60.0298 31.1093 57.8568 32.1656 56.0273C33.2219 54.1978 34.959 52.8603 36.9977 52.3068C39.0364 51.7533 41.2113 52.0287 43.0478 53.0728L84.6478 77.0728C86.1728 77.9534 87.3647 79.3126 88.0386 80.9396C88.7124 82.5665 88.8306 84.3704 88.3749 86.0714C87.9191 87.7724 86.9148 89.2755 85.5177 90.3476C84.1206 91.4196 82.4088 92.0008 80.6478 92.0008Z" fill="#232559"/>
<path d="M39.088 300C37.327 300 35.6152 299.419 34.2182 298.347C32.8211 297.275 31.8168 295.772 31.361 294.071C30.9052 292.37 31.0234 290.566 31.6973 288.939C32.3711 287.312 33.563 285.953 35.088 285.072L76.688 261.072C77.5982 260.539 78.6049 260.19 79.6502 260.047C80.6955 259.904 81.7588 259.97 82.7788 260.239C83.7988 260.509 84.7554 260.978 85.5935 261.619C86.4316 262.26 87.1346 263.06 87.6621 263.974C88.1897 264.887 88.5313 265.896 88.6673 266.942C88.8032 267.989 88.7309 269.052 88.4545 270.07C88.1781 271.088 87.703 272.041 87.0566 272.875C86.4102 273.709 85.6052 274.407 84.688 274.928L43.088 298.928C41.8731 299.633 40.4927 300.003 39.088 300Z" fill="#232559"/>
</svg>
