<svg width="512" height="512" viewBox="0 0 512 512" fill="none" xmlns="http://www.w3.org/2000/svg">
<path d="M488.336 333.439C483.696 327.471 466.016 309.567 433.68 328.959C420.144 337.071 410.4 345.711 401.808 353.311C396.496 358.031 391.904 362.095 387.216 365.343C383.584 367.871 382.688 372.847 385.216 376.463C387.728 380.127 392.72 380.991 396.336 378.479C401.808 374.687 406.944 370.127 412.4 365.295C420.496 358.143 429.648 350.031 441.904 342.671C454.752 334.959 465.472 334.159 472.912 340.335C479.008 345.407 480.32 353.087 480.256 354.015L404.384 426.735L300.128 476.991C293.84 479.935 282.448 480.863 275.904 479.071L147.312 440.159C146.56 439.935 145.776 439.823 144.992 439.823H134V455.823H143.808L271.44 494.447C275.184 495.487 279.568 495.999 284.096 495.999C292.144 495.999 300.656 494.415 306.976 491.471L412.48 440.639C413.248 440.271 413.952 439.791 414.544 439.199L491.472 365.487C498.24 358.687 496.848 344.319 488.336 333.439Z" fill="#232559"/>
<path d="M361.552 367.28C351.968 357.04 336.528 352 315.712 352H270.272C268.592 352 267.056 347.472 265.808 346.24C255.84 336.432 232.464 319.888 188.192 319.888C180.528 319.888 173.312 320.352 166.768 321.328C162.4 321.984 159.392 326.048 160.032 330.4C160.688 334.768 164.752 337.728 169.12 337.136C174.88 336.256 181.296 335.824 188.176 335.824C226.752 335.824 245.904 350.016 254.56 357.664C259.008 361.536 261.536 368 268.816 368H315.728C331.952 368 343.44 371.488 349.888 378.368C355.904 384.816 356.72 400 356.592 400H264.016C259.6 400 256.016 403.6 256.016 408C256.016 412.416 259.6 416 264.016 416H364.224C368.624 416 372.224 412.288 372.224 407.856L372.336 405.584C372.816 398.096 373.952 380.512 361.552 367.28Z" fill="#232559"/>
<path d="M136 464H80V448H128V336H80V320H136C140.416 320 144 323.312 144 327.712V455.712C144 460.16 140.416 464 136 464Z" fill="#232559"/>
<path d="M24 496C19.584 496 16 492.416 16 488C16 483.584 19.584 480 24 480H80V336H24C19.584 336 16 332.416 16 328C16 323.584 19.584 320 24 320H88C92.416 320 96 323.312 96 327.712V487.712C96 492.16 92.416 496 88 496H24Z" fill="#232559"/>
<path d="M355.056 318.304C339.424 318.304 327.248 314.848 326.512 314.64C323.744 313.824 321.6 311.6 320.944 308.768C320.48 306.768 309.968 259.456 351.344 231.504C354.992 229.008 359.984 230 362.448 233.648C364.912 237.312 363.952 242.288 360.288 244.752C334.752 262 334.656 289.408 335.792 300.384C343.408 301.888 358.8 303.92 373.472 300.112C393.152 294.976 406.4 283.776 413.952 265.92C418.08 256.144 425.792 247.584 435.136 241.76C423.312 237.296 406.48 232.688 389.392 234.416C385.136 234.688 381.088 231.616 380.672 227.216C380.24 222.832 383.472 218.912 387.872 218.48C424.368 215.072 458.096 234.592 459.52 235.424C462.416 237.12 463.936 240.448 463.328 243.76C462.72 247.072 460.112 249.632 456.816 250.208C444.864 252.256 433.296 261.264 428.704 272.144C419.216 294.576 402 309.184 377.536 315.584C369.84 317.6 362.096 318.304 355.056 318.304Z" fill="#232559"/>
<path d="M235.904 286.304C228.864 286.304 221.104 285.6 213.376 283.584C188.912 277.2 171.696 262.576 162.208 240.144C157.616 229.264 146.048 220.256 134.096 218.208C130.784 217.632 128.176 215.072 127.584 211.76C126.976 208.464 128.496 205.136 131.392 203.424C131.84 203.152 142.48 196.944 158.096 192.016C162.32 190.72 166.8 193.024 168.128 197.232C169.456 201.456 167.12 205.936 162.896 207.264C160.352 208.08 157.952 208.928 155.728 209.744C165.088 215.568 172.8 224.128 176.928 233.92C184.48 251.776 197.728 262.96 217.408 268.112C232.176 271.936 247.52 269.904 255.104 268.4C256.368 256.896 256.288 227.616 226.864 210.416C217.792 205.104 207.232 202.304 195.504 202.08C191.088 202 187.568 198.352 187.648 193.92C187.728 189.52 191.488 186.08 195.792 186.08C210.288 186.352 223.456 189.888 234.928 196.592C272.304 218.448 274.176 258.608 269.936 276.784C269.28 279.616 267.152 281.84 264.368 282.656C263.68 282.864 251.52 286.304 235.904 286.304Z" fill="#232559"/>
<path d="M295.744 176C293.088 176 290.576 175.504 288 175.216V359.792L304 359.808V175.168C301.264 175.488 298.576 176 295.744 176Z" fill="#232559"/>
<path d="M295.744 184C251.632 184 215.744 148.112 215.744 104C215.744 59.888 251.632 24 295.744 24C339.856 24 375.744 59.888 375.744 104C375.744 148.112 339.856 184 295.744 184ZM295.744 40C260.464 40 231.744 68.72 231.744 104C231.744 139.28 260.464 168 295.744 168C331.024 168 359.744 139.28 359.744 104C359.744 68.72 331.024 40 295.744 40Z" fill="#232559"/>
<path d="M294.256 312.496C292.384 312.496 290.512 311.84 288.992 310.512L256.992 282.512C253.664 279.6 253.328 274.56 256.24 271.232C259.152 267.872 264.208 267.568 267.536 270.48L299.536 298.48C302.864 301.392 303.2 306.432 300.288 309.76C298.688 311.584 296.48 312.496 294.256 312.496Z" fill="#232559"/>
<path d="M296.976 342C294.72 342 292.464 341.04 290.88 339.184C288.016 335.808 288.432 330.768 291.792 327.904L323.568 300.88C326.912 298.016 331.968 298.416 334.848 301.792C337.712 305.168 337.296 310.208 333.936 313.072L302.16 340.096C300.656 341.376 298.8 342 296.976 342Z" fill="#232559"/>
<path d="M393.008 63.9998C390.256 63.9998 387.552 62.5598 386.08 59.9998C383.856 56.1758 385.168 51.2798 389.008 49.0558L416.704 33.0558C420.512 30.8318 425.424 32.1438 427.632 35.9998C429.856 39.8238 428.544 44.7198 424.704 46.9438L397.008 62.9438C395.728 63.6638 394.352 63.9998 393.008 63.9998Z" fill="#232559"/>
<path d="M440 112H408C403.584 112 400 108.416 400 104C400 99.584 403.584 96 408 96H440C444.416 96 448 99.584 448 104C448 108.416 444.416 112 440 112Z" fill="#232559"/>
<path d="M184 112H152C147.584 112 144 108.416 144 104C144 99.584 147.584 96 152 96H184C188.416 96 192 99.584 192 104C192 108.416 188.416 112 184 112Z" fill="#232559"/>
<path d="M199.008 63.9994C197.648 63.9994 196.272 63.6634 195.008 62.9434L167.312 46.9434C163.488 44.7194 162.176 39.8394 164.384 35.9994C166.592 32.1594 171.504 30.8794 175.312 33.0554L203.008 49.0554C206.832 51.2794 208.144 56.1594 205.936 59.9994C204.448 62.5594 201.744 63.9994 199.008 63.9994Z" fill="#232559"/>
</svg>
