<?xml version="1.0" encoding="UTF-8"?>
<svg id="Layer_1" xmlns="http://www.w3.org/2000/svg" version="1.1" viewBox="0 0 512 512">
  <!-- Generator: Adobe Illustrator 30.0.0, SVG Export Plug-In . SVG Version: 2.1.1 Build 123)  -->
  <defs>
    <style>
      .st0 {
        fill: #2c3493;
      }
    </style>
  </defs>
  <g id="_03-Building">
    <path class="st0" d="M480,112h-64v-48h8c8.83,0,15.99-7.17,16-16v-16c0-8.83-7.17-15.99-16-16H88c-8.83,0-15.99,7.17-16,16v16c0,8.83,7.17,15.99,16,16h8v48H32c-8.83,0-15.99,7.17-16,16v16c0,8.83,7.17,15.99,16,16h8v208c0,4.42,3.58,8,8,8s8-3.58,8-8v-208h40v200c0,4.42,3.58,8,8,8s8-3.58,8-8V64h288v296c0,4.42,3.58,8,8,8s8-3.58,8-8v-200h40v208c0,4.42,3.58,8,8,8s8-3.58,8-8v-208h8c8.83,0,15.99-7.17,16-16v-16c0-8.83-7.17-15.99-16-16ZM96,144H32v-16h64v16ZM88,48v-16h336v16s-336,0-336,0ZM480,144h-64v-16h64v16ZM224,280c0,4.42,3.58,8,8,8h48c4.42,0,8-3.58,8-8v-64c0-4.42-3.58-8-8-8h-48c-4.42,0-8,3.58-8,8v64ZM240,224h32v48h-32v-48ZM232,176h48c4.42,0,8-3.58,8-8v-64c0-4.42-3.58-8-8-8h-48c-4.42,0-8,3.58-8,8v64c0,4.42,3.58,8,8,8ZM240,112h32v48h-32v-48ZM312,280c0,4.42,3.58,8,8,8h48c4.42,0,8-3.58,8-8v-64c0-4.42-3.58-8-8-8h-48c-4.42,0-8,3.58-8,8v64ZM328,224h32v48h-32v-48ZM320,176h48c4.42,0,8-3.58,8-8v-64c0-4.42-3.58-8-8-8h-48c-4.42,0-8,3.58-8,8v64c0,4.42,3.58,8,8,8ZM328,112h32v48h-32v-48ZM136,280c0,4.42,3.58,8,8,8h48c4.42,0,8-3.58,8-8v-64c0-4.42-3.58-8-8-8h-48c-4.42,0-8,3.58-8,8v64ZM152,224h32v48h-32v-48ZM144,176h48c4.42,0,8-3.58,8-8v-64c0-4.42-3.58-8-8-8h-48c-4.42,0-8,3.58-8,8v64c0,4.42,3.58,8,8,8ZM152,112h32v48h-32v-48ZM463.37,408.66c-10.54-21.74-36.71-30.82-58.45-20.28-8.85,4.29-15.99,11.43-20.28,20.28-7.71,1.48-14.78,5.27-20.3,10.86-7.74,7.48-12.17,17.72-12.34,28.48h-16v-120c0-4.42-3.58-8-8-8h-144c-4.42,0-8,3.58-8,8v120h-16c-.16-10.76-4.6-21-12.34-28.48-5.51-5.59-12.59-9.37-20.3-10.86-10.54-21.74-36.71-30.82-58.45-20.28-8.85,4.29-15.99,11.43-20.28,20.28-7.71,1.48-14.78,5.27-20.3,10.86-7.74,7.48-12.17,17.72-12.34,28.48v40c0,4.42,3.58,8,8,8h464c4.42,0,8-3.58,8-8v-40c-.16-10.76-4.6-21-12.34-28.48-5.51-5.59-12.59-9.37-20.3-10.86ZM264,336h56v112h-56v-112ZM192,336h56v112h-56v-112ZM39.57,430.92c3.75-4.04,8.94-6.45,14.45-6.7,3.43,0,6.5-2.14,7.68-5.37,4.94-14.53,20.72-22.31,35.25-17.37,8.17,2.78,14.59,9.2,17.37,17.37,1.15,3.25,4.23,5.41,7.68,5.37,5.49.31,10.66,2.71,14.45,6.7,4.69,4.46,7.41,10.61,7.57,17.08H32c.15-6.47,2.88-12.62,7.57-17.08ZM480,480H32v-16h448v16ZM368,448c.15-6.47,2.88-12.62,7.57-17.08,3.77-4.01,8.95-6.42,14.45-6.7,3.45.06,6.55-2.11,7.68-5.37,4.94-14.53,20.72-22.31,35.25-17.37,8.17,2.78,14.59,9.2,17.37,17.37,1.11,3.28,4.22,5.45,7.68,5.37,5.49.34,10.65,2.73,14.45,6.7,4.69,4.46,7.41,10.61,7.57,17.08h-112Z"/>
  </g>
</svg>