<svg width="512" height="512" viewBox="0 0 512 512" fill="none" xmlns="http://www.w3.org/2000/svg">
<path d="M490.867 37.4547C479.823 32.9467 464.068 28.8477 444.039 25.2707C439.963 24.5457 436.066 27.2587 435.338 31.3357C434.609 35.4137 437.324 39.3097 441.402 40.0377C487.698 48.3047 495.688 56.7007 496.859 58.3887C495.574 60.2407 486.105 70.1587 427.378 79.0437C423.711 79.5977 421 82.7497 421 86.4587V294.657C403.866 292.29 384.969 290.32 364.557 288.774C366.503 285.482 367.786 281.754 368.216 277.773H383.964C393.634 277.773 401.5 269.906 401.5 260.237V227.117C401.5 217.448 393.634 209.581 383.964 209.581H377.071C385.731 182.876 382.848 153.535 369.039 128.715C367.025 125.096 362.461 123.794 358.839 125.807C355.22 127.821 353.918 132.388 355.932 136.007C366.632 155.241 369.648 177.637 364.587 198.63C359.791 190.478 350.931 184.992 340.809 184.992H271.514C248.239 178.792 234.412 163.525 221.456 149.091C218.487 145.817 214.126 144.373 209.777 145.23C205.448 146.084 201.97 149.066 200.474 153.206C194.93 168.862 187.452 179.274 177.373 184.993H171.193C161.279 184.993 152.574 190.254 147.714 198.129C145.911 190.77 144.976 182.801 144.976 174.49C144.976 153.041 156.431 130.344 172.213 120.521C182.183 114.316 192.507 113.763 202.901 118.878C205.848 120.33 209.399 119.693 211.659 117.305C235.706 91.9057 272.945 83.0337 306.527 94.6997C317.161 98.3917 326.858 103.891 335.349 111.044C338.517 113.712 343.248 113.307 345.917 110.139C348.585 106.971 348.181 102.24 345.013 99.5707C335.113 91.2317 323.82 84.8257 311.448 80.5297C273.991 67.5167 232.596 76.4667 204.482 103.263C191.036 98.3637 176.945 99.9077 164.287 107.785C144.086 120.359 129.976 147.788 129.976 174.489C129.976 186.991 131.844 198.924 135.427 209.581H128.036C118.366 209.581 110.5 217.448 110.5 227.117V260.237C110.5 269.906 118.366 277.773 128.036 277.773H143.784C144.214 281.753 145.497 285.479 147.442 288.771C127.424 290.287 108.862 292.211 92 294.519V86.6087C92 82.8957 89.282 79.7407 85.61 79.1917C25.998 70.2707 16.431 60.2507 15.14 58.3897C16.437 56.5197 26.079 46.4207 86.361 37.4717C132.325 30.6467 192.57 26.8887 256 26.8887C311.239 26.8887 363.446 29.6807 406.978 34.9637C411.081 35.4637 414.828 32.5337 415.327 28.4217C415.826 24.3097 412.897 20.5717 408.785 20.0727C364.666 14.7187 311.834 11.8887 256.001 11.8887C189.247 11.8887 126.431 15.9777 79.123 23.4017C55.809 27.0607 37.404 31.3587 24.421 36.1757C13.937 40.0667 0 46.6007 0 58.3887V220.311C0 224.453 3.357 227.811 7.5 227.811C11.643 227.811 15 224.453 15 220.311V76.4467C26.043 82.1227 44.938 87.8947 77 93.0357V350.84C22.263 341.824 15.555 332.172 15 331.167V257.304C15 253.162 11.643 249.804 7.5 249.804C3.357 249.804 0 253.162 0 257.304V331.389C0 341.33 8.645 355.84 83.39 367.026C83.76 367.081 84.131 367.109 84.5 367.109C86.284 367.109 88.024 366.472 89.396 365.291C91.049 363.866 92 361.792 92 359.609V309.664C112.382 306.812 135.395 304.535 160.577 302.882C169.913 320.484 188.583 341.413 203.115 352.778L199.91 380.194L182.365 385.472C181.154 383.646 179.612 382.029 177.748 380.744C173.372 377.728 167.94 376.876 162.847 378.406L133.309 387.287C104.962 395.818 84.206 419.233 79.148 448.36L71.5 491.293C70.773 495.371 73.49 499.266 77.568 499.992C81.652 500.72 85.541 498.001 86.267 493.924L93.921 450.959C98.008 427.429 114.756 408.535 137.629 401.651L167.166 392.77C168.131 392.481 168.879 392.849 169.235 393.095C169.589 393.338 170.192 393.895 170.263 394.888C171.929 418.06 177.392 462.021 195.257 496.091C196.598 498.648 199.206 500.11 201.906 500.11C203.079 500.11 204.27 499.834 205.383 499.251C209.051 497.328 210.465 492.794 208.542 489.126C193.413 460.275 187.81 423.14 185.736 400.122L199.24 396.06C200.152 403.397 203.033 410.386 207.63 416.091C214.714 424.883 228.274 435.552 252.635 436.45C252.73 436.453 252.823 436.455 252.916 436.455C256.931 436.455 260.257 433.276 260.406 429.231C260.558 425.091 257.326 421.612 253.187 421.46C238.165 420.907 226.766 415.934 219.309 406.679C215.205 401.587 213.305 394.787 214.096 388.024L217.091 362.396C230.178 370.078 243.377 374.151 255.999 374.151C268.624 374.151 281.826 370.076 294.917 362.39L297.906 388.028C298.694 394.788 296.794 401.585 292.692 406.676C290.066 409.936 286.88 412.709 283.222 414.917C279.676 417.059 278.537 421.668 280.679 425.214C282.088 427.547 284.566 428.838 287.106 428.838C288.426 428.838 289.763 428.489 290.976 427.757C296.137 424.64 300.645 420.713 304.372 416.086C309.014 410.326 311.903 403.254 312.783 395.839L326.279 399.932C324.219 422.935 318.628 460.195 303.456 489.125C301.533 492.793 302.947 497.327 306.615 499.25C307.727 499.833 308.918 500.109 310.092 500.109C312.792 500.109 315.401 498.647 316.741 496.09C334.606 462.02 340.069 418.059 341.735 394.887C341.806 393.893 342.41 393.337 342.763 393.094C343.119 392.847 343.866 392.478 344.833 392.77L374.367 401.649C397.242 408.534 413.99 427.428 418.083 450.99L425.731 493.923C426.458 498.001 430.35 500.715 434.43 499.991C438.508 499.264 441.225 495.37 440.498 491.292L432.855 448.391C427.791 419.231 407.035 395.817 378.686 387.285L349.15 378.405C344.058 376.873 338.626 377.726 334.249 380.743C332.441 381.989 330.934 383.548 329.738 385.307L312.061 379.946L308.893 352.769C323.428 341.173 340.86 322.252 351.414 302.885C377.008 304.566 400.357 306.889 420.996 309.805V359.459C420.996 361.644 421.949 363.72 423.605 365.145C424.658 366.042 426.722 367.206 429.618 366.874C503.461 355.703 512 341.272 512 331.389V58.3887C512 46.0827 496.094 39.5887 490.867 37.4547ZM386.5 227.117V260.237C386.5 261.635 385.362 262.773 383.964 262.773H368.38V224.581H383.964C385.362 224.581 386.5 225.719 386.5 227.117ZM213.107 162.218C220.093 169.918 227.665 178.029 237.255 184.991H200.222C206.22 177.775 210.185 169.664 213.107 162.218ZM158.62 212.565C158.62 205.632 164.26 199.992 171.192 199.992H340.807C347.74 199.992 353.379 205.632 353.379 212.565V274.791C353.379 281.724 347.739 287.364 340.807 287.364H294.315C289.81 287.415 283.705 284.241 281.005 278.796C278.692 274.13 275.132 270.215 270.712 267.475C266.234 264.697 261.184 263.27 256.037 263.27C253.841 263.27 251.626 263.53 249.432 264.057C241.396 265.985 234.597 271.517 230.777 279.236C228.296 284.25 223.279 287.365 217.684 287.365H171.192C164.259 287.365 158.62 281.725 158.62 274.792V212.565ZM125.5 260.237V227.117C125.5 225.719 126.638 224.581 128.036 224.581H143.62V262.773H128.036C126.638 262.774 125.5 261.636 125.5 260.237ZM256 359.151C230.635 359.494 199.92 335.991 177.618 302.363H217.108C228.468 302.363 239.207 296.22 244.165 285.999C245.997 282.222 249.199 279.536 252.931 278.641C256.808 277.711 260.812 278.564 263.994 281.05C265.687 282.372 266.968 284.155 267.848 286.115C272.129 295.647 283.273 302.424 294.314 302.363H334.38C313.376 334.958 280.019 360.216 256 359.151ZM497 331.167C496.448 332.166 489.821 341.704 436 350.674V92.8757C467.459 87.7737 486.073 82.0627 497 76.4457V331.167Z" fill="#232559"/>
<path d="M271.482 312.693C262.66 319.799 250.339 319.799 241.517 312.693C238.29 310.093 233.569 310.603 230.971 313.828C228.372 317.054 228.881 321.775 232.107 324.373C239.288 330.158 247.894 333.051 256.5 333.051C265.106 333.051 273.712 330.158 280.893 324.373C284.119 321.775 284.627 317.053 282.029 313.828C279.429 310.603 274.707 310.093 271.482 312.693Z" fill="#232559"/>
</svg>
