<?xml version="1.0" encoding="UTF-8"?>
<svg id="Layer_1" xmlns="http://www.w3.org/2000/svg" version="1.1" viewBox="0 0 512 512">
  <!-- Generator: Adobe Illustrator 30.0.0, SVG Export Plug-In . SVG Version: 2.1.1 Build 123)  -->
  <defs>
    <style>
      .st0 {
        fill: #35538a;
      }
    </style>
  </defs>
  <path class="st0" d="M196,216c5.52,0,10-4.48,10-10s-4.53-10-10-10-10,4.48-10,10,4.48,10,10,10Z"/>
  <path class="st0" d="M256,86c5.52,0,10-4.48,10-10V10c0-5.52-4.48-10-10-10s-10,4.48-10,10v66c0,5.52,4.48,10,10,10Z"/>
  <path class="st0" d="M246,436v66c0,5.52,4.48,10,10,10s10-4.48,10-10v-66c0-5.52-4.48-10-10-10s-10,4.48-10,10Z"/>
  <path class="st0" d="M101.65,135.79c3.91,3.91,10.23,3.91,14.14,0,3.9-3.9,3.9-10.23,0-14.14l-42.43-42.43c-3.9-3.91-10.23-3.91-14.14,0s-3.91,10.24,0,14.14l42.43,42.43Z"/>
  <path class="st0" d="M396.21,386.21c-3.91,3.91-3.91,10.24,0,14.14l42.43,42.43c3.9,3.9,10.23,3.91,14.14,0s3.91-10.24,0-14.14l-42.43-42.43c-3.91-3.9-10.23-3.9-14.14,0Z"/>
  <path class="st0" d="M410.35,135.79l42.43-42.43c3.91-3.9,3.91-10.23,0-14.14s-10.23-3.91-14.14,0l-42.43,42.43c-3.91,3.91-3.91,10.24,0,14.14,3.91,3.91,10.23,3.91,14.14,0Z"/>
  <path class="st0" d="M101.65,386.21l-42.43,42.43c-3.91,3.9-3.91,10.23,0,14.14s10.23,3.91,14.14,0l42.43-42.43c3.9-3.91,3.9-10.24,0-14.14s-10.24-3.91-14.14,0Z"/>
  <path class="st0" d="M89.84,328.64c52.11,44.07,109.57,67.36,166.16,67.36s114.05-23.29,166.16-67.36c39.05-33.02,61.21-65.68,62.13-67.05,2.27-3.38,2.27-7.79,0-11.16-.92-1.37-23.09-34.04-62.13-67.05-52.11-44.07-109.57-67.36-166.16-67.36s-114.05,23.29-166.16,67.36c-39.04,33.02-61.21,65.68-62.13,67.05-2.27,3.38-2.27,7.79,0,11.16.93,1.38,23.09,34.04,62.13,67.05ZM102.75,198.64c33.79-28.57,87.8-62.64,153.25-62.64s119.12,33.87,152.83,62.28c27.84,23.47,46.96,47.23,54.84,57.73-7.82,10.43-26.73,33.94-54.42,57.36-33.79,28.57-87.8,62.64-153.25,62.64s-119.12-33.87-152.82-62.28c-27.84-23.47-46.96-47.23-54.84-57.73,7.82-10.43,26.72-33.94,54.41-57.36Z"/>
  <path class="st0" d="M256,346c49.93,0,90-40.53,90-90s-40.38-90-90-90c-10.51,0-21.91,1.93-32.21,5.94-5.15,2-7.7,7.8-5.7,12.95,1.88,4.84,7.14,7.92,13.91,5.34,7.62-2.85,16.15-4.22,24-4.22,38.6,0,70,31.4,70,70s-31.2,70-70,70-70-31.4-70-70c0-4.67.41-8.26,1.16-12.77,1.03-5.43-2.54-10.62-7.96-11.66-5.41-1.02-10.66,2.56-11.7,7.98-1.02,5.43-1.5,11.16-1.5,16.45,0,49.62,40.38,90,90,90Z"/>
  <path class="st0" d="M296,256c0-22.05-17.95-40-40-40s-40,17.95-40,40,17.95,40,40,40,40-17.95,40-40ZM236,256c0-11.03,8.97-20,20-20s20,8.97,20,20-8.97,20-20,20-20-8.97-20-20Z"/>
  <rect class="st0" x="-292.9" y="56.66" width="70.1" height="109.34"/>
</svg>