<?xml version="1.0" encoding="UTF-8"?>
<svg id="Layer_1" xmlns="http://www.w3.org/2000/svg" version="1.1" viewBox="0 0 1000 1000">
  <!-- Generator: Adobe Illustrator 30.1.0, SVG Export Plug-In . SVG Version: 2.1.1 Build 136)  -->
  <defs>
    <style>
      .st0 {
        fill: #231f20;
      }

      .st1 {
        fill: #fff;
      }

      .st2 {
        fill: #faa819;
      }
    </style>
  </defs>
  <path class="st0" d="M926.53,422.97h-255.88c-29.38-65.03-94.76-110.31-170.76-110.31s-141.38,45.28-170.76,110.31H73.25c-13.98,0-25.32,11.34-25.32,25.32v103.43c0,13.98,11.34,25.32,25.32,25.32h255.88c29.38,65.03,94.76,110.31,170.76,110.31s141.38-45.28,170.76-110.31h255.88c13.98,0,25.32-11.34,25.32-25.32v-103.43c0-13.98-11.34-25.32-25.32-25.32Z"/>
  <g>
    <path class="st1" d="M538.88,546.04l-57.13-51.6.32,48.57c-10.33,0-20.84-1.25-20.84-17.02v-76.07h2.53l1.24.49,57,52.4-.32-49.5h20.73v93.21h-2.29l-1.22-.48h-.01Z"/>
    <g>
      <path class="st2" d="M602.99,496.2c1.17,0,2.23-.1,3.18-.29.93-.19,1.74-.45,2.44-.8.74-.37,1.39-.78,1.96-1.25.55-.44,1.02-.94,1.42-1.48.85-1.15,1.46-2.36,1.83-3.59.19-.65.34-1.28.43-1.86.09-.55.14-1.11.14-1.66,0-.41-.03-.88-.09-1.39-.06-.56-.16-1.18-.29-1.84-.11-.62-.3-1.24-.53-1.86-.25-.63-.56-1.28-.95-1.95-.34-.59-.78-1.14-1.3-1.64-.55-.53-1.2-1.01-1.95-1.44-.7-.41-1.56-.72-2.55-.93-1.04-.22-2.25-.34-3.61-.34h-10.33v22.3h10.22ZM600.07,453.88c5.56,0,10.53.71,14.94,2.14,2.23.72,4.27,1.6,6.12,2.62,1.88,1.04,3.59,2.24,5.12,3.6,1.52,1.35,2.86,2.85,4.03,4.49,1.16,1.63,2.14,3.4,2.93,5.3,1.58,3.77,2.36,8,2.36,12.68,0,3.68-.55,7.36-1.66,11.04-.56,1.87-1.3,3.66-2.22,5.37-.91,1.69-2,3.31-3.27,4.85-1.28,1.56-2.77,2.97-4.45,4.21-.42.31-.85.61-1.29.9l20.83,32.51h-24.07l-18.17-27.36h-8.49v27.36c-12.36,0-20.61-1.7-20.61-16.65v-73.04h27.9,0Z"/>
      <path class="st2" d="M661.3,497.9c0,3.59.64,6.92,1.9,10,.64,1.55,1.4,3.01,2.29,4.38.9,1.37,1.92,2.64,3.06,3.82,1.15,1.19,2.38,2.24,3.7,3.15,1.33.92,2.75,1.71,4.25,2.36,1.48.64,3.05,1.13,4.7,1.46,1.64.32,3.36.49,5.16.49,3.42,0,6.59-.65,9.49-1.94,1.45-.64,2.82-1.43,4.1-2.35,1.27-.92,2.45-1.96,3.53-3.13,1.11-1.2,2.09-2.47,2.93-3.82.86-1.37,1.6-2.83,2.22-4.39.62-1.55,1.08-3.16,1.39-4.81.31-1.65.46-3.39.46-5.21,0-3.66-.64-7.06-1.91-10.19-.65-1.59-1.4-3.07-2.27-4.43-.89-1.38-1.88-2.66-2.98-3.83-1.1-1.17-2.3-2.22-3.59-3.13-1.3-.92-2.69-1.71-4.17-2.35-2.96-1.29-6.19-1.95-9.68-1.95s-6.72.65-9.68,1.95c-1.48.65-2.87,1.43-4.18,2.35-1.31.92-2.52,1.97-3.65,3.14-1.12,1.17-2.12,2.45-2.99,3.83-.87,1.37-1.62,2.84-2.24,4.41-.62,1.58-1.09,3.21-1.4,4.89-.31,1.68-.46,3.45-.46,5.31h0ZM640.11,497.9c0-3.06.3-6.06.89-9.01.59-2.94,1.48-5.79,2.65-8.54,1.17-2.75,2.58-5.35,4.21-7.8,1.63-2.44,3.49-4.72,5.57-6.85,2.08-2.12,4.34-4.03,6.77-5.7,2.44-1.68,5.02-3.12,7.77-4.33,2.76-1.22,5.63-2.13,8.61-2.74,2.98-.61,6.05-.92,9.19-.92s6.14.31,9.11.92c2.96.61,5.83,1.53,8.58,2.74,2.75,1.21,5.35,2.65,7.79,4.33,2.45,1.68,4.74,3.58,6.86,5.7,2.11,2.11,4,4.39,5.68,6.86,1.65,2.43,3.09,5.03,4.29,7.8,1.2,2.77,2.1,5.62,2.7,8.54.61,2.95.91,5.95.91,9.02s-.3,6.2-.91,9.18c-.6,2.97-1.5,5.84-2.7,8.61-1.2,2.77-2.63,5.37-4.29,7.78-1.66,2.43-3.56,4.68-5.7,6.77-4.26,4.17-9.14,7.44-14.65,9.79-2.77,1.18-5.64,2.07-8.57,2.65-2.95.59-5.98.89-9.1.89s-6.21-.3-9.18-.89c-2.96-.59-5.83-1.48-8.61-2.65-2.77-1.18-5.36-2.59-7.78-4.21-2.44-1.64-4.7-3.51-6.77-5.59-2.09-2.09-3.95-4.34-5.59-6.77-1.63-2.43-3.04-5.02-4.21-7.78-1.18-2.77-2.07-5.65-2.66-8.61-.59-2.97-.88-6.02-.88-9.17h0Z"/>
      <path class="st2" d="M837.17,484.96l27.53-31.08h26.95l-37.34,40.53,36.94,49.17h-26.09l-25.84-35.73-2.16,2.16v33.57c-12.67,0-20.84-.46-20.84-15.72v-73.98h20.84v31.08h0Z"/>
      <path class="st2" d="M781.96,543.58c-3.5-.08-6.83-.44-9.96-1.07-3.17-.64-6.15-1.56-8.91-2.75-2.78-1.2-5.36-2.62-7.72-4.26-2.37-1.65-4.53-3.52-6.46-5.59-3.86-4.15-6.82-8.91-8.84-14.27-1.02-2.69-1.78-5.46-2.28-8.31-.51-2.85-.76-5.79-.76-8.82,0-3.35.26-6.59.78-9.71.51-3.12,1.29-6.09,2.32-8.92,1.04-2.85,2.3-5.5,3.78-7.95,1.48-2.46,3.2-4.73,5.14-6.82,1.95-2.09,4.07-3.94,6.38-5.54,2.31-1.61,4.81-2.98,7.5-4.13,2.71-1.15,5.54-2,8.5-2.57,2.97-.57,6.07-.86,9.29-.86,2.97,0,5.78.2,8.42.6,2.65.4,5.15,1.02,7.49,1.84,2.29.8,4.37,1.64,6.21,2.49,1.87.87,3.55,1.77,5.04,2.72l1.29.82-8.16,19.6-1.88-1.43c-.9-.68-1.98-1.4-3.24-2.14-1.27-.75-2.69-1.52-4.25-2.29-1.48-.73-3.08-1.28-4.79-1.65-1.73-.37-3.58-.56-5.57-.56-3.01,0-5.9.63-8.66,1.88-1.4.64-2.71,1.4-3.92,2.28-1.23.9-2.38,1.93-3.44,3.08-1.07,1.16-2.03,2.42-2.88,3.78-.85,1.36-1.59,2.83-2.21,4.38-.62,1.54-1.08,3.16-1.39,4.84-.31,1.67-.46,3.44-.46,5.3,0,2,.14,3.88.42,5.65.29,1.78.71,3.48,1.28,5.09.57,1.61,1.26,3.1,2.05,4.46.8,1.36,1.73,2.61,2.77,3.74,1.05,1.14,2.19,2.14,3.43,3,1.23.86,2.58,1.6,4.06,2.22,1.48.62,3.03,1.08,4.66,1.38,1.65.31,3.43.46,5.32.46,2.2,0,4.22-.17,6.07-.52,1.81-.34,3.48-.86,4.99-1.54,1.56-.7,2.94-1.43,4.11-2.16,1.14-.71,2.1-1.44,2.86-2.17l1.85-1.76c8.17,14.15-3.91,28.45-20.26,28.16h.02Z"/>
    </g>
    <g>
      <path class="st2" d="M279.12,453.09l14.79,43.53,10.39-25.87-7.09-17.67h19.51l16.8,41.48,12.64-41.48h20.86l-32.05,86.13-3.2.04-17.74-44.23-22.45,48.18-25.6-66.17c-4.43-11.44.4-23.95,13.13-23.95h0Z"/>
      <path class="st2" d="M195.2,497.53c0,3.59.64,6.92,1.9,10,.64,1.55,1.4,3.01,2.29,4.38.9,1.37,1.92,2.64,3.06,3.82,1.15,1.19,2.38,2.24,3.7,3.15,1.33.92,2.75,1.71,4.25,2.36,1.48.64,3.05,1.13,4.7,1.46,1.64.32,3.36.49,5.16.49,3.42,0,6.59-.65,9.49-1.94,1.45-.64,2.82-1.43,4.1-2.35,1.27-.92,2.45-1.96,3.53-3.13,1.11-1.2,2.09-2.47,2.93-3.82.86-1.37,1.6-2.83,2.22-4.39.62-1.55,1.08-3.16,1.39-4.81.31-1.65.46-3.39.46-5.21,0-3.66-.64-7.06-1.91-10.19-.65-1.59-1.4-3.07-2.27-4.43-.89-1.38-1.88-2.66-2.98-3.83-1.1-1.17-2.3-2.22-3.59-3.13-1.3-.92-2.69-1.71-4.17-2.35-2.96-1.29-6.19-1.95-9.68-1.95s-6.72.65-9.68,1.95c-1.48.65-2.87,1.43-4.18,2.35-1.31.92-2.52,1.97-3.65,3.14-1.12,1.17-2.12,2.45-2.99,3.83-.87,1.37-1.62,2.84-2.24,4.41-.62,1.58-1.09,3.21-1.4,4.89-.31,1.68-.46,3.45-.46,5.31h0ZM174.01,497.53c0-3.06.3-6.06.89-9.01.59-2.94,1.48-5.79,2.65-8.54,1.17-2.75,2.58-5.35,4.21-7.8,1.63-2.44,3.49-4.72,5.57-6.85,2.08-2.12,4.34-4.03,6.77-5.7,2.44-1.68,5.02-3.12,7.77-4.33,2.76-1.22,5.63-2.13,8.61-2.74,2.98-.61,6.05-.92,9.19-.92s6.14.31,9.11.92c2.96.61,5.83,1.53,8.58,2.74,2.75,1.21,5.35,2.65,7.79,4.33,2.45,1.68,4.74,3.58,6.86,5.7,2.11,2.11,4,4.39,5.68,6.86,1.65,2.43,3.09,5.03,4.29,7.8,1.2,2.77,2.1,5.62,2.7,8.54.61,2.95.91,5.95.91,9.02s-.3,6.2-.91,9.18c-.6,2.97-1.5,5.84-2.7,8.61-1.2,2.77-2.63,5.37-4.29,7.78-1.66,2.43-3.56,4.68-5.7,6.77-4.26,4.17-9.14,7.44-14.65,9.79-2.77,1.18-5.64,2.07-8.57,2.65-2.95.59-5.98.89-9.1.89s-6.21-.3-9.18-.89c-2.96-.59-5.83-1.48-8.61-2.65-2.77-1.18-5.36-2.59-7.78-4.21-2.44-1.64-4.7-3.51-6.77-5.59-2.09-2.09-3.95-4.34-5.59-6.77-1.63-2.43-3.04-5.02-4.21-7.78-1.18-2.77-2.07-5.65-2.66-8.61-.59-2.97-.88-6.02-.88-9.17h0Z"/>
      <path class="st2" d="M373.92,453.51h18.78v69.68h40.45v20.02h-39.48c-9.99,0-21.57-6.03-21.57-22.39v-67.31h1.83Z"/>
      <path class="st2" d="M137.78,523.75c2.31,0,4.38-.3,6.22-.9,1.68-.55,3-1.41,3.94-2.57.44-.54.77-1.16,1-1.85.23-.71.34-1.53.34-2.44,0-1.97-.5-3.41-1.51-4.33-.58-.53-1.25-.98-1.99-1.35-.78-.39-1.65-.69-2.62-.91-1.03-.23-2.11-.42-3.2-.53-1.07-.11-2.2-.18-3.36-.18h-7.87v15.05h9.05,0ZM137.2,488.68c1.44,0,2.67-.2,3.68-.62.94-.39,1.72-.96,2.32-1.72.67-.86,1.18-1.77,1.51-2.72.33-.94.49-1.96.49-3.06,0-1.23-.19-2.28-.58-3.14-.37-.81-.92-1.5-1.66-2.05-.81-.61-1.78-1.06-2.89-1.37-1.16-.32-2.5-.49-4.03-.49h-7.29v15.17h8.46ZM135.21,453.49c4.63,0,8.81.47,12.52,1.41,3.77.95,7.07,2.4,9.9,4.34,2.91,1.99,5.1,4.48,6.57,7.47,1.46,2.96,2.18,6.37,2.18,10.23,0,2.81-.35,5.42-1.06,7.81-.71,2.41-1.79,4.6-3.21,6.54-1.24,1.68-2.68,3.19-4.3,4.49,2.9,1.67,5.37,3.66,7.41,5.97,1.75,1.98,3.06,4.17,3.94,6.56.88,2.38,1.31,4.94,1.31,7.69,0,2.45-.22,4.74-.67,6.85-.45,2.14-1.14,4.1-2.05,5.86-1.81,3.49-4.27,6.33-7.36,8.49-1.52,1.06-3.13,1.98-4.84,2.74-1.71.77-3.52,1.39-5.4,1.86-1.87.47-3.77.82-5.69,1.05-1.92.23-3.88.35-5.86.35h-9.51c-10.13,0-20.96-5.67-20.96-20.67v-69.02h27.08v-.02Z"/>
    </g>
  </g>
  <polyline class="st1" points="47.92 471.36 53.45 488.24 71.33 488.24 56.86 498.67 62.39 515.54 47.92 505.11"/>
  <polyline class="st1" points="952.08 505.11 937.61 515.54 943.14 498.67 928.67 488.24 946.55 488.24 952.08 471.36"/>
  <g>
    <polygon class="st1" points="582.82 368.17 588.06 384.2 605.04 384.2 591.31 394.1 596.55 410.12 582.82 400.22 569.09 410.12 574.33 394.1 560.6 384.2 577.57 384.2 582.82 368.17"/>
    <polygon class="st1" points="499.89 334.08 505.13 350.1 522.11 350.1 508.37 360 513.62 376.02 499.89 366.12 486.16 376.02 491.4 360 477.67 350.1 494.64 350.1 499.89 334.08"/>
    <polygon class="st1" points="416.96 368.17 422.2 384.2 439.17 384.2 425.44 394.1 430.69 410.12 416.96 400.22 403.23 410.12 408.47 394.1 394.74 384.2 411.71 384.2 416.96 368.17"/>
  </g>
  <g>
    <polygon class="st1" points="416.96 598.78 422.2 614.8 439.17 614.8 425.44 624.7 430.69 640.72 416.96 630.82 403.23 640.72 408.47 624.7 394.74 614.8 411.71 614.8 416.96 598.78"/>
    <polygon class="st1" points="499.89 632.87 505.13 648.89 522.11 648.89 508.37 658.8 513.62 674.82 499.89 664.92 486.16 674.82 491.4 658.8 477.67 648.89 494.64 648.89 499.89 632.87"/>
    <polygon class="st1" points="582.82 598.78 588.06 614.8 605.04 614.8 591.31 624.7 596.55 640.72 582.82 630.82 569.09 640.72 574.33 624.7 560.6 614.8 577.57 614.8 582.82 598.78"/>
  </g>
</svg>