<?xml version="1.0" encoding="UTF-8"?>
<svg id="Layer_1" xmlns="http://www.w3.org/2000/svg" version="1.1" viewBox="0 0 1000 1000">
  <!-- Generator: Adobe Illustrator 30.1.0, SVG Export Plug-In . SVG Version: 2.1.1 Build 136)  -->
  <defs>
    <style>
      .st0 {
        fill: #f9a619;
      }

      .st1 {
        fill: #ee3b56;
      }
    </style>
  </defs>
  <path class="st0" d="M629.04,850.81c-10.51-29.5-24.45-76.18-30.37-106.25-1.49-7.59-3.01-14.81-4.85-22.21l-12.2-48.74-7.47-32.06c-6.52-28.03-10.85-56.01-19.04-83.54l-6.12-20.51-7.92.65c-15.51,1.27-30.47,1.32-45.43,5.43-7.87,2.17-12.32,7.62-14.46,15.38l-10.41,37.84-21.38,68.06c-10.38,33.08-20.26,65.1-30.1,98.23l-8.04,27.01c-6,20.24-13.49,39.48-20.76,59.22-2.66,7.24,1.24,14.02,7.94,16.68,10.08,3.96,20.06,6.55,30.49,9.41,4.11,1.12,9.36,3.49,13.77,1.47,4.9-10.75,6.72-21.93,9.91-33.26l12.55-44.71,64.55-9.53c4.83-.7,10.16-.9,15.01-.87l6.27,26.29,11.23,45.11c1.79,7.17,3.56,13.52,6.05,20.56,19.04,2.44,40.68-9.24,57.5-17.35,3.51-1.69,4.51-8.86,3.29-12.3ZM513.29,737.67l-33.08,4.66c1.59-8.21,3.29-16.18,5.5-24.25l25.91-94.3,9.66,45.95,12.57,65.42-20.56,2.51Z"/>
  <path class="st0" d="M496.26,509.15c-6.27,7.74-8.07-5.1-26.69,10.9-13.04,11.2-20.71,26.09-27.28,41.92-6.62,15.98-12.55,31.32-17.87,47.72-4.48,13.89-9.26,27.13-12.8,41.2l-25.84,102.24-19.17,73.01c-.82,3.06-7.87,5-10.73,5.53l-12.92,2.34c-10.78,1.97-48.89,5.95-52.87-6.02l-10.88-33.01-16.75-58.55-39.93-146.9c-3.66-13.37-10.63-24.72-9.04-30.82,9.31-5.8,70.67-21.58,72.52-6.62l2.74,22.13,11.58,65.17,16.88,75.6c2.89,12.94,5.18,24.64,10.11,37.94,1.77-4.85,2.86-8.74,3.91-13.67l9.63-44.71,8.54-36.84,5.2-23.95,2.09-9.83,13.17-48.72c5.68-20.99,12.82-40.58,23.5-59.62,14.26-25.44,42.24-48.29,73.34-38.61,14.69,4.58,25.99,17.03,29.57,32.16Z"/>
  <path class="st0" d="M357.72,508.58c-3.21,6.37-10.68,11.63-17.5,14.66-17.13,7.62-37.37,5.38-54.44-1.89-38.76-16.48-59.55-48.24-79.83-83.89l-21.53-37.86-14.19,12.7c6.9,38.39,15.16,74.91,25.24,112.4-1.49,4.73-7.64,7-12.5,8.09l-10.65,2.39c-13.87,3.11-38.31,11.77-41.03-6.85l-10.41-71.59-4.41-28.23-17.1-103.01c-2.71-16.28-6.45-31.79-10.08-48.02-1.37-6.05-2.02-11.82-.55-18.07,10.8-7.07,49.29-24.77,58.45-13.87.72,2.71,2.61,7.14,2.91,9.63l6.42,51.48,4.13,33.61c.72,6.05,2.12,11.58,3.78,18.12,12.89-15.53,24.94-39.21,30.02-57.63,4.13-15.01,10.11-47.07,7.44-60.72l-4.08-20.86c7.34-5.08,14.74-7.99,22.83-10.38l24.3-7.17c2.24-.67,7.19-.37,8.89,1,13.52,11.15,3.81,74.06-2.54,91.51-7.99,26.96-20.06,53-39.23,74.33,12.82,21.73,26.64,45.83,44.83,63.93,17.13,18.65,39.95,38.73,67.06,35.85,11.65-1.22,16.88-10.16,23.3-11.63,6.3-1.44,19.57,33.93,10.46,51.98Z"/>
  <path class="st0" d="M811.29,208.75c-15.83-8.29-35.8,4.36-44.88,15.81-22.98,28.98-35.05,78.12-40.58,114.34l-5.95,38.96c-2.27,14.91-2.81,29.57-3.56,44.58l-.52,10.6c-.2,4.01-.87,8.39-2.74,11.85-14.29,2.07-28.03.7-41.95-2.96l-12-35.35-20.84-56.83-16.68-45.18-1.07,48.39-.77,62.73c-.02,2.07-.47,5.6-1.59,6.67-3.91,3.61-20.74,2.44-27.46,2.12-5.75-.3-23.2-1.44-21.93-9.73,2.71-18,4.83-35.17,6.32-53.22l1.87-22.65,2.69-37.27c1.99-27.73,3.78-54.62,3.78-82.27,0-4.75,3.39-7.59,7.89-8.14,14.16-1.77,28.13-.3,42.19,2.94,3.54.8,6.4,3.83,7.62,7.09l16.73,44.36,25.17,71.3c7.27-52.55,14.44-102.94,44.98-147.97,14.19-16.06,29.42-27.88,52.55-26.16,10.36.75,20.91,6.42,26.84,15.26,3.31,4.93,12.77,28.53,3.88,30.74Z"/>
  <path class="st0" d="M634.52,440.62c-.85-1-3.66-2.41-4.68-2.14-4.43,1.24-3.41,15.21-22.23,17.97-36.97,5.48-65-39.21-73.46-69.33l-11.18-39.71c7.07-6.5,14.39-12.45,20.14-20.11,12.97-17.33,20.44-38.49,18.79-59.87-1.34-17.82-6.6-34.28-17.82-47.8-14.51-17.45-34.4-28.6-56.78-31.12-19.72-2.22-38.88-1.57-57.33,5.92-14.34,5.83-7.57,20.31-6.92,28.53l3.14,40.83c1.42,18.65,2.12,36.82,2.56,55.51.42,17.67,1.44,25.02,1.89,41.27l1.12,41.27.75,32.39c.1,4.73,2.17,8.49,7.19,10.08,8.66,2.76,44.88,8.31,42.74-8.91l-1.42-11.38c-2.32-18.6-2.49-36.44-3.21-55.76l15.56-4.51c5.95,34.43,11.92,65.57,28.53,97.14,18.2,34.6,59.07,61.01,97.43,40.55,11.95-6.37,17.75-15.46,20.34-28.3,2.14-10.78,2.22-23.97-5.15-32.54ZM513.16,290.68c-2.81,11.82-7.32,22.45-17.15,30.15-4.9,4.95-10.83,9.09-18.79,10.9.2-17.35-.07-32.98-1.07-49.81l-2.61-44.41-1.52-17.23c13.57-1.77,24.84,4.78,32.39,15.43,11.48,16.21,13.37,35.7,8.76,54.97Z"/>
  <path class="st0" d="M821.52,771.18c-.45,14.66,1.47,24.15-13.99,30.99-10.31,4.56-20.29,7.17-31.17,9.96-18.97,4.88-37.81,5.75-57.21,7.29l-14.71,1.17-15.04,1.34-20.94,2.39-19.54,3.09c-5.97.95-9.88-5.65-10.8-10.88-5.6-31.39-5.1-62.26-7.47-94.05l-7.67-103.56-4.56-53.17-2.54-22.11c-.77-6.65-.35-11.58,6.7-14.71,14.69-6.57,30.84-11.1,47.22-11.8,6.77-.27,19.74,0,20.49,8.81,1.64,19.52,1.37,38.39.57,58l-1.64,39.63-.05,18.82-1.02,52.38.87,39.9,1.32,30.72,72.84-11.2c10.8-1.67,21.73-4.31,30.57-10.41l12.65-8.71c1.72-1.17,4.03-3.29,5.6-3.78,1.79-.55,5.3,2.76,5.97,4.85,3.63,11.5,3.93,22.93,3.53,35.03Z"/>
  <path class="st0" d="M883.9,493.09c-3.56-19.84-6.72-50.61-8.04-71.27l-5.68-89.54-1.22-34.83c-.62-17.85-2.19-35.2-5-52.85-8.04-5.63-16.63-5.03-25.69-5.87-2.27-.22-5.35-.72-8.21-.62l-14.04.45c-3.81.12-12.07,0-14.31,3.86-8.49,14.59-14.06,29.47-20.01,45.13l-17.33,45.51-9.81,27.53-14.91,44.24-8.31,24.74-7.34,21.88c-1.24,3.68-.05,8.31,3.66,9.51l29.28,9.43c3.24,1.05,7.89.97,11.08,0l12.25-45.18,47.12,1.27.95,37.54.37,38.06c.05,4.98,2.39,11.9,8.56,11.68,14.69-.52,29.18-3.34,42.77-8.39,4.83-1.79,4.58-8.46,3.88-12.27ZM790.15,385.4l21.48-64.62c3.53-10.6,7.32-20.09,10.51-30.27,2.61,21.96,3.14,42.59,3.66,63.83l.75,32.04-36.39-.97Z"/>
  <path class="st0" d="M423.1,444.7l-3.29-14.29-16.9-76.8-6.92-38.14-13.29-79.34c-1.67-9.91-3.34-19.27-5.8-28.78-1.37-5.3-6.77-7.09-11.2-6.97-14.09.35-34.68,3.61-48.32,8.19-7.49,2.54-14.36,31.42-16.83,40.73l-9.21,34.78-17.62,71.25-10.41,41.5c-2.32,9.24,2.39,14.29,9.53,18.6,4.31,2.59,8.66,5.45,13.09,7.59l16.03,7.79c2.22-4.68,3.41-8.96,4.31-13.54l6.55-33.78,18.15-.25,28.9.52,4.83,33.51,4.33,28.63,2.91,17.4c8.12,4.33,53.55-8.19,51.16-18.6ZM319.09,346.49c3.04-14.94,5.75-28.08,9.48-42.05l11.92-44.44,12.72,86.66-34.13-.17Z"/>
  <path class="st0" d="M733.09,727.02c-1.82-.53-2.53-5.91-2.39-7.86l3.77-51.26.86-37.87c.23-9.93-.43-19.71-1.09-29.6-.33-4.95-2.58-19.3,5.59-20.44l24.29-3.37c6.56-.91,12.9-1.26,20.12-1.66,4.64-.26,12.36,3.87,11.78,9.33l-3.37,31.83c-3.43,32.41-2.61,64.08.14,96.93-2.1,3.55-7.56,6.17-11.53,7.1l-26.58,6.27c-6.49,1.53-14.41,2.69-21.58.59Z"/>
  <path class="st0" d="M186.92,580.03c-9.11,11.3-19.81,17.9-31.99,24.22-11.54,5.98-24.16,7.94-37.36,9.05-14.73,1.24-27.1-2.44-38.77-11.55-6.64-5.18-11.93-14.28-9.95-23.14,1.87-8.37,10.18-14.56,18.88-14.2,27.17,1.1,31.58,17.17,67.55,19.32,14.23.85,26.39-8.56,31.68-7.38.81.18.49,3.01-.05,3.68Z"/>
  <path class="st0" d="M863.04,579.64c-8.96-2.08-38.66-11.89-39.53-20.92-.48-4.93,33.2,6.74,54.52-8.24l30.27-21.26c6.46-4.54,14.46-3.27,20.68,1.44,4.97,3.76,7.4,10.93,4.91,18.75-8.94,28.1-44.24,36.41-70.85,30.25Z"/>
  <path class="st1" d="M758.31,556.69c-8.79-2.57-14.53-6.96-18.72-15.19-4.49-8.84-2.78-19.24,1.91-28,5.26-9.82,13.98-14.21,25.27-14.9,13.68-.84,26.62,5.85,31.79,19.24,4.61,11.93.55,26.39-10.78,34.2-9.17,6.32-18.65,7.82-29.47,4.65ZM789.22,542.29c3.24-1.14,3.99-3.97,2.97-6.54l-2.97,6.54Z"/>
  <path class="st1" d="M193.29,623.07c-5.08,30.82,10.87,43.98,3.2,63.29-2.42,6.09-6.94,9.88-12.57,10.96-16.49,3.17-25.44-17.61-24.07-32.87,3.21-35.68,33.94-66.21,39.46-62.59,2.46,1.61-3.77,7.59-6.02,21.2Z"/>
  <path class="st1" d="M670.37,222.53c-2.55-9.6-8.85-21.64-16.01-30-10.96-12.79-26.38-16.53-30.7-28.53-2.13-5.91-.76-12.18,4.42-15.9,3.53-2.54,9.41-2.51,14.61.02,16.03,7.81,17.33,9.66,26.52,28.4,4.88,9.96,10.35,41.32,3.64,48.53-.49.52-2.23-1.57-2.48-2.53Z"/>
  <path class="st1" d="M862.91,652.78c-5.31,2.2-13.79.29-16.77-4.24-4.75-7.21-4.58-15.95-5.96-24.17-4.63-27.58-15.99-26.16-16.28-33-.05-1.12,3.23-2.29,4.31-1.84,17.61,7.4,31.94,15.47,39.79,33.65,4.28,9.91,2.99,26.24-5.1,29.59Z"/>
  <path class="st0" d="M702.22,177.94c-8.13,11.17-1.49,12.61-8.23,16.84-1.12.7-3.36-2.69-3.4-4.11-.59-19.87.48-39.32,14.69-54.28,5.45-5.73,13.29-8.53,20.13-3.87,12.1,8.22-7,25.52-11.95,30.87-4.03,4.35-7.62,9.57-11.26,14.55Z"/>
  <path class="st0" d="M423.93,855.11c.43-.32.74,1.88.4,2.29l-1.25,1.51c-.35.42-2.48-1.36-2.05-1.68l2.91-2.12Z"/>
  <path class="st0" d="M580.46,851.82c-1.23-1.81-1.93-3.88-1.79-6.32,1.11,1.47,1.64,2.9,1.79,6.32Z"/>
  <path class="st0" d="M351.75,820.89c-.08-5.15,1.26-9.49,3.21-13.49.84,5.91-.49,9.71-3.21,13.49Z"/>
  <path class="st0" d="M368.84,794.53l3.96-9.34c.9,3.85-.37,7.13-3.96,9.34Z"/>
  <path class="st0" d="M688.6,789.18c-2.56.98-5.39,1.58-8.76,1.63,2.32-1.43,4.52-2,8.76-1.63Z"/>
  <path class="st0" d="M797.16,789.3c-1.17,1.19-2.3,2.4-2.52,1.92s-1.28-1.87-.78-2.05l2.53-.94c2.45-1.07,2.94-.89.77,1.08Z"/>
  <path class="st0" d="M789.22,542.29l2.97-6.54c1.02,2.58.27,5.4-2.97,6.54Z"/>
</svg>