<?xml version="1.0" encoding="UTF-8"?>
<svg id="Layer_1" xmlns="http://www.w3.org/2000/svg" version="1.1" viewBox="0 0 1000 1000">
  <!-- Generator: Adobe Illustrator 30.1.0, SVG Export Plug-In . SVG Version: 2.1.1 Build 136)  -->
  <defs>
    <style>
      .st0 {
        fill: #2f7dc1;
      }

      .st1 {
        fill: #701619;
      }

      .st2 {
        fill: #0061a2;
      }

      .st3 {
        fill: #f15b40;
      }

      .st4 {
        fill: #aa2024;
      }

      .st5 {
        fill: #044d80;
      }

      .st6 {
        fill: #fdb525;
      }

      .st7 {
        fill: #003764;
      }

      .st8 {
        fill: #fff;
      }

      .st9 {
        fill: #e31f29;
      }

      .st10 {
        fill: #ffd41c;
      }
    </style>
  </defs>
  <path class="st6" d="M872.44,169.13c0-8.51,6.94-15.44,15.45-15.44s15.46,6.93,15.46,15.44-6.95,15.46-15.46,15.46-15.45-6.93-15.45-15.46ZM899.59,169.13c0-7.22-5.21-12.44-11.7-12.44s-11.68,5.23-11.68,12.44,5.22,12.48,11.68,12.48,11.7-5.22,11.7-12.48ZM881.94,160.33h6.52c4.19,0,6.46,1.46,6.46,5.14,0,3.01-1.72,4.45-4.58,4.7l4.72,7.66h-3.34l-4.54-7.52h-1.97v7.52h-3.26v-17.5ZM885.2,167.82h2.86c1.95,0,3.61-.27,3.61-2.62,0-2.06-1.9-2.39-3.56-2.39h-2.9v5.01Z"/>
  <path class="st8" d="M194.02,173.63s2.7-28.37,32.61-24.55c20.51,3.58,25.79,26.61,20.22,37.25-5.6,10.66-16.62,22.16-36.43,14.89-11.97-4.67-18.89-18.44-16.4-27.59Z"/>
  <g>
    <g>
      <g>
        <g>
          <path class="st10" d="M859.58,581.82l42.7-184.68-38.58,8.55,33.28-213.41-124.94,14.58.47,109.34-30.99-.74-11.32-131.11,20.29-54.46-12.17.75v-5.94h-61.1l2.36,9.59-9.62.61,15.05,48.82-20.08,93.06-71.24,4.07-5.71-112.97-82.93,14.44,22.69,164.68-66.98,12.79,2.69-45.81-90.17,1.89,1.49,61.82-97.04,1.39-.25-154.82-15.25-9.42.13-2.46c-7.94-4.37-5.62-18.77-5.62-18.77-.67-.69-2.63-3.04-4.35-5.14.91-3.16,1.44-6.52,1.44-9.98,0-19.86-16.15-35.99-36-35.99s-36,16.13-36,35.99c0,3.81.61,7.48,1.7,10.94-1.58,1.92-3.24,3.84-3.87,4.48,0,0,1.91,14.34-6.14,18.89l.13,5.19-28.19,13.57,34.19,227.44-82.75,6.85,51.56,126.02-34.46,22.82,70.2,119.32,653.69,2.23,70.96-138.69-49.3-15.69ZM144.76,525.27l-10.35-35.24,18.77.75,4.2,24.53-12.62,9.96ZM204.02,270.44l-7.57-19.23,2.84-1.81-2.01-4.01,6.77-1.5.3,3.77,4.2-.35,1.78,21.56-6.31,1.58ZM216.07,268.54l-4.04-22.13,5.28-.43-.4-5,6.16-.52.41,5.02,5.74-.47,1.65,19.9-14.79,3.65ZM244.48,266.21l-9.35-.57-2.45-18.81,4.18-.35-.52-6.22,6.61-.56.36,4.13,3.53-.28-2.37,22.67ZM221.38,203.52c-15.14,0-27.47-12.32-27.47-27.49s12.33-27.48,27.47-27.48,27.48,12.33,27.48,27.48-12.32,27.49-27.48,27.49M262.2,215.92l.03-.51.03.52h-.06ZM680.84,152.03l-3.87-8.16,16.46.19,2,7.14-14.6.84ZM701.46,151.47v-7.6l11.75-.75.83,8.92-12.59-.57ZM723.47,143.12l13.11-1.41-1.26,10.33h-13.8l1.95-8.92ZM741.9,371.98v-16.9l15.67-4.13,4.38,27.18-20.05-6.15ZM796.98,233.11l18.37,4.85v19.81h-17.35l-1.02-24.66Z"/>
          <path class="st10" d="M220.17,177.83c0-1.01-.46-1.9-1.16-2.53l5.18-13.98,4.69.89-4.02-7.8-7.15,4.01,3.58,1.78-4.34,14.28-.12-.03c-1.86,0-3.35,1.51-3.35,3.36s1.49,3.33,3.35,3.33c.93,0,1.79-.4,2.41-1.03l19.22,9.07,1.34-3.36-19.68-7.47.06-.55Z"/>
          <polygon class="st6" points="505.06 181.7 532.55 387.39 515.49 188.26 578.41 169.55 505.06 181.7"/>
          <polygon class="st6" points="908.88 596.91 859.56 581.24 902.28 396.53 864.2 404.71 902.28 190.83 772.04 206.85 883.35 205.71 863.39 404.88 798.3 418.85 886.62 415 859.46 581.19 826.35 569.89 890.16 599.76 839.39 733.07 908.88 596.91"/>
          <polygon class="st6" points="179.68 458.96 160.5 244.53 262.7 225.3 145.49 231.52 179.68 458.96"/>
          <polygon class="st6" points="716.98 193.71 743.62 340 730.2 183.73 696.6 184.75 716.98 193.71"/>
          <polygon class="st6" points="149.03 590.69 111.74 472.69 200.47 456.62 91.12 463.09 148.63 590.96 114.06 614.05 176.38 720.05 130.84 617.45 237.74 531.43 149.03 590.69"/>
          <polygon class="st8" points="536.85 204.09 537.75 220.99 555.52 213.87 552.85 202.32 536.85 204.09"/>
        </g>
        <polygon class="st6" points="456.71 323.45 460.46 361.78 463.5 313.14 397.12 315.66 456.71 323.45"/>
      </g>
      <polygon class="st6" points="699.18 133.66 744.68 133.68 730.2 183.73 750.49 129.3 699.18 133.66"/>
    </g>
    <polygon class="st7" points="161.06 768.29 145.49 864.92 882.71 875.31 862.72 768.29 161.06 768.29"/>
    <polygon class="st2" points="894.45 862.52 131.98 849.09 151.53 732.91 871.41 735.08 894.45 862.52"/>
    <path class="st8" d="M548.84,759.57l.18,9.25,4.22.09c0,2.92-1.04,5.54-3.13,7.9l2.5,2.31c2.98-3.29,4.58-6.08,4.81-8.36.15-1.15.2-2.69.2-4.56s-.05-4.28-.2-6.99l-8.59.35Z"/>
    <path class="st8" d="M200.79,763.47c-2.49,17.93-5.47,37.52-8.93,58.74l9.79-.54,2.14-14.57,11.67-.65,3.45,15.77,11.24-.86c-5.08-19.29-9.55-38.74-13.34-58.37l-16.03.49ZM203.96,797.9l4.03-26.31,2.57-.62,4.7,26.93h-11.29Z"/>
    <path class="st8" d="M268.85,814.96c-4.57,0-7.35-2.02-8.33-6.06-.77-3.04-1.15-6.77-1.15-11.17,0-1.4.04-2.84.12-4.35.29-6.35,1.24-11.33,2.82-15,1.31-2.97,3.15-4.42,5.58-4.42.57,0,1.18.06,1.81.22,3.33.85,5.28,3.9,5.85,9.2l9.36-2.69c-.81-10.06-6.15-15.26-16.04-15.58h-.81c-9.41,0-14.93,5.38-16.57,16.12-.86,5.62-1.31,10.94-1.31,15.97s.4,9.39,1.23,13.67c1.65,8.75,5.67,13.6,12.03,14.54,1.43.24,2.8.38,4.12.38,4.51,0,8.28-1.31,11.33-3.91,3.94-3.33,6.26-8.99,6.99-16.95l-10.21-2.36c-.04,8.27-2.31,12.4-6.84,12.4"/>
    <path class="st8" d="M315.4,761.98l.36,24.86-14.63,1.19.21-26.04-9.11.33c.06,8.31.09,16.2.09,23.7,0,13.48-.09,25.63-.26,36.46h10.71l1.04-23.5,13.1-.34,1.03,23.48,8.53.36c-.83-27.46-1.25-47.52-1.25-60.15l-9.83-.33Z"/>
    <path class="st8" d="M332.66,764.83c.7,23.9,1.03,43,1.03,57.34v3.14l9.1.24c-.11-7.83-.16-15.16-.16-21.97,0-15.91.33-29.05,1-39.46l-10.96.71Z"/>
    <path class="st8" d="M360.38,812.73c.03-18.46.42-35.04,1.2-49.83l-11.78.91c.93,25.01,1.39,44.75,1.39,59.23,12.41,0,22.41.05,29.99.19l-.17-10.5h-20.63Z"/>
    <path class="st8" d="M415.97,768.72c-2.68-3.2-5.84-5.15-9.49-5.91-2.03-.4-4.91-.62-8.61-.62-2.95,0-6.47.13-10.51.4.27,19.91.52,40.42.74,61.51,1.71.11,3.35.15,4.91.15,9.98,0,17.09-2.19,21.33-6.58,4.92-5.09,7.65-10.92,8.21-17.51.17-2.15.24-4.24.24-6.26,0-4.2-.38-8.25-1.12-12.03-1.11-5.6-3.02-9.99-5.7-13.15M412.99,796.51c-.32,4.72-1.73,8.76-4.27,12.09-2.54,3.37-6.36,5.14-11.53,5.34-.13-13.66-.27-27.19-.4-40.54.55-.1,1.1-.13,1.65-.13,2.5,0,5.07.77,7.69,2.31,3.2,1.88,5.21,4.7,6.07,8.36.59,2.69.91,5.66.91,8.94,0,1.19-.05,2.37-.12,3.62"/>
    <path class="st8" d="M439.26,764.13c-3.08,0-6.5.15-10.29.48.45,16.89.7,36.9.7,60.12l10.19.2v-19.97l5.92-1.14c2.56,6.06,5.01,13.95,7.34,23.68l9.88-3.42c-2.69-9.38-5.52-17.7-8.49-24.98,5.19-1.87,8.08-6.41,8.67-13.62.05-.86.06-1.7.06-2.52,0-6.01-1.81-10.79-5.48-14.33-3.09-3-9.26-4.49-18.5-4.49M451.04,791.98c-1.87,2.43-5.72,3.67-11.57,3.67h-.77l-.13-21.34c1.8-.39,3.47-.58,4.98-.58,1.9,0,3.57.29,5.07.88,2.66,1.02,4.2,3.55,4.65,7.55.08.73.13,1.47.13,2.15,0,3.07-.79,5.6-2.36,7.66"/>
    <path class="st8" d="M480.43,810.27v-13.81c2.57-.23,5.16-.34,7.73-.34,1.73,0,3.45.05,5.2.14l.15-9.52c-4.84.14-9.82.2-15,.2l-.16-15.29c6.01-.15,10.88-.24,14.58-.24,1.67,0,3.06.02,4.24.05l-.4-11.34-27.37.8c.47,16.97.7,31.95.7,44.9,0,5.4-.04,10.44-.1,15.16,12.41,0,21.83.06,28.33.19l-.16-10.91h-17.74Z"/>
    <path class="st8" d="M540.12,761.29h-9.78c.9,23,1.45,37.15,1.61,42.43-5.08-12.52-10.22-26.41-15.42-41.66l-12.02.76c.52,20.29.9,40.01,1.14,59.16l7.76.04c.03-3.36.03-6.56.03-9.64,0-13.83-.21-24.75-.63-32.73,6.81,18.39,12.11,32.37,15.88,41.92l12.36.8c-.69-20.39-1.04-37.08-1.04-50.19,0-3.94,0-7.57.1-10.87"/>
    <path class="st8" d="M586.26,788.78c-6.07-2.4-9.78-4.55-11.04-6.45-.86-1.2-1.27-2.45-1.27-3.71,0-.73.12-1.49.4-2.22.74-2.02,2.12-3.4,4.11-4.11.76-.28,1.45-.4,2.19-.4,1.25,0,2.43.36,3.62,1.14,1.85,1.25,2.95,4.97,3.34,11.22l8.97-2.18c-.23-7.62-1.72-12.8-4.5-15.59-2.76-2.76-6.32-4.25-10.69-4.43h-.79c-4.07,0-7.61,1.33-10.59,3.99-3.19,2.85-4.93,6.01-5.28,9.52-.09.79-.12,1.58-.12,2.35,0,2.63.48,5.01,1.41,7.25,1.18,2.85,3.19,5.01,6.03,6.53,2.83,1.48,5.9,2.94,9.23,4.42,3.31,1.47,5.22,3.62,5.74,6.49.18,1.02.25,1.99.25,2.83,0,1.54-.31,2.83-.86,3.81-.92,1.52-2.52,2.45-4.8,2.79-.45.09-.91.13-1.34.13-1.76,0-3.43-.56-5.03-1.66-1.99-1.38-2.97-5.07-2.97-11.07l-9.63,2.42c.22,7.16,1.61,12.26,4.16,15.24,2.57,3,5.55,4.85,9.07,5.52,1.25.25,2.53.38,3.8.38,2.22,0,4.41-.38,6.6-1.15,3.49-1.19,6.04-2.93,7.71-5.25,1.67-2.33,2.86-5.16,3.52-8.55.23-1.34.35-2.64.35-3.96,0-2.12-.31-4.25-.93-6.39-1.03-3.5-4.57-6.46-10.67-8.88"/>
    <path class="st8" d="M664.86,807.83l-5.97-36.18-15.59-.9-6.88,41.82c-3.61-20.4-6.14-36.34-7.66-47.88l-10.87.71c5.35,25.03,9.08,45.08,11.19,60.19l12.91-1.06c3.25-15.64,6.25-29.44,8.97-41.42,3.61,14.47,6.12,28.28,7.58,41.42l13.3,1.06c1.96-18.24,6.25-38.5,12.91-60.76l-10.84-.38c-3.93,17.59-6.96,32.04-9.06,43.37"/>
    <path class="st8" d="M710.42,764.46h-.16c-10.15,0-16.14,5.55-17.97,16.65-.91,5.6-1.34,10.87-1.34,15.75s.43,9.58,1.34,13.86c1.84,8.59,6.07,13.29,12.68,14.09,1.33.17,2.59.24,3.8.24,4.88,0,8.91-1.3,12.12-3.87,3.66-2.97,5.49-11.84,5.49-26.65,0-1.31-.01-2.68-.05-4.11-.38-17.23-5.64-25.91-15.89-25.96M717.54,795.23c0,10.05-.92,16.11-2.72,18.16-1.57,1.81-3.57,2.71-5.97,2.71-.62,0-1.24-.07-1.86-.2-3.23-.56-5.3-3.72-6.17-9.52-.46-2.89-.71-6.02-.71-9.36s.25-6.87.71-10.63c.87-7.47,3.82-11.23,8.78-11.23h.1c5.06.05,7.7,5.87,7.84,17.46v2.6Z"/>
    <path class="st8" d="M742.83,764.13c-3.08,0-6.52.15-10.31.48.45,16.89.7,36.9.7,60.12l10.19.2v-19.97l5.92-1.14c2.58,6.06,5,13.95,7.32,23.68l9.9-3.42c-2.68-9.38-5.51-17.7-8.49-24.98,5.2-1.87,8.09-6.41,8.66-13.62.05-.86.08-1.7.08-2.52,0-6.01-1.82-10.79-5.46-14.33-3.11-3-9.29-4.49-18.51-4.49M754.61,791.98c-1.86,2.43-5.73,3.67-11.57,3.67h-.78l-.12-21.34c1.81-.39,3.47-.58,4.98-.58,1.89,0,3.57.29,5.07.88,2.66,1.02,4.2,3.55,4.65,7.55.09.73.11,1.47.11,2.15,0,3.07-.76,5.6-2.33,7.66"/>
    <path class="st8" d="M783.54,812.73c.05-18.46.45-35.04,1.22-49.83l-11.78.91c.94,25.01,1.4,44.75,1.4,59.23,12.39,0,22.39.05,29.97.19l-.18-10.5h-20.64Z"/>
    <path class="st8" d="M844.86,781.87c-1.13-5.6-3.03-9.99-5.71-13.15-2.67-3.2-5.83-5.15-9.49-5.91-2.04-.4-4.91-.62-8.63-.62-2.96,0-6.45.13-10.5.4.29,19.91.54,40.42.76,61.51,1.7.11,3.33.15,4.88.15,9.97,0,17.09-2.19,21.35-6.58,4.9-5.09,7.66-10.92,8.2-17.51.16-2.15.24-4.24.24-6.26,0-4.2-.38-8.25-1.1-12.03M836.16,796.51c-.32,4.72-1.72,8.76-4.27,12.09-2.55,3.37-6.38,5.14-11.51,5.34-.14-13.66-.28-27.19-.42-40.54.58-.1,1.11-.13,1.67-.13,2.49,0,5.06.77,7.7,2.31,3.18,1.88,5.21,4.7,6.05,8.36.6,2.69.91,5.66.91,8.94,0,1.19-.06,2.37-.12,3.62"/>
    <g>
      <polygon class="st1" points="415.47 611.28 419.39 682.87 425.71 686.22 419.75 613.54 415.47 611.28"/>
      <polygon class="st3" points="390.65 682.83 396.97 686.2 425.7 686.2 419.39 682.82 390.65 682.83"/>
      <polygon class="st3" points="362 572.24 368.31 575.6 448.62 578.59 442.29 575.23 362 572.24"/>
      <path class="st9" d="M368.31,575.65l-2.9,35.1-1.03,109.32,5.38-.09,93.35-1.18-14.48-140.16-80.31-2.99ZM396.98,686.24l2.24-71.94,20.52-.76,5.96,72.69h-28.72Z"/>
      <polygon class="st4" points="364.33 719.61 377.37 589.79 448.69 578.64 368.31 575.65 364.79 642.73 364.33 719.61"/>
      <polygon class="st1" points="358.06 716.7 364.38 720.07 368.3 575.6 362 572.24 358.06 716.7"/>
    </g>
    <g>
      <polygon class="st1" points="539.61 625.81 545.08 717.09 551.26 720.45 545.79 629.13 539.61 625.81"/>
      <polygon class="st1" points="463.45 592.69 474.45 717.15 480.65 720.5 469.64 596.03 463.45 592.69"/>
      <polygon class="st3" points="463.45 592.64 469.64 595.98 582.24 594.39 576.06 591.05 463.45 592.64"/>
      <polygon class="st9" points="469.64 596.03 480.65 720.5 529.62 720.56 522.83 632.74 545.79 629.13 551.26 720.45 594.12 720.23 582.24 594.42 469.64 596.03"/>
      <polygon class="st4" points="480.6 720.47 479.82 605.13 581.99 594.42 469.64 596.03 480.6 720.47"/>
    </g>
    <g>
      <polygon class="st0" points="534.59 406.02 527.55 401.7 475.36 404.6 482.4 408.91 534.59 406.02"/>
      <polygon class="st0" points="473.4 443.79 480.43 448.11 535.24 450.74 528.22 446.42 473.4 443.79"/>
      <polygon class="st7" points="481.11 434.76 483.06 409.33 475.36 404.6 474.08 430.46 481.11 434.76"/>
      <polygon class="st7" points="466.46 570.56 473.4 581.09 481.43 448.51 473.4 443.79 466.46 570.56"/>
      <polygon class="st2" points="534.59 406.02 482.4 408.91 481.11 434.77 535.07 437.36 534.59 406.02"/>
      <polygon class="st2" points="480.44 448.11 473.4 581.09 538.4 577.2 535.24 450.74 480.44 448.11"/>
      <polygon class="st5" points="482.4 408.91 481.11 434.76 492.34 435.35 492.61 418.72 534.6 405.87 482.4 408.91"/>
      <polygon class="st5" points="473.4 581.09 490.8 448.62 480.44 448.11 473.95 552.28 473.4 581.09"/>
    </g>
    <g>
      <polygon class="st1" points="792.96 624.32 794.28 686.43 800.65 691.55 798.87 620.34 792.96 624.32"/>
      <polygon class="st1" points="725.33 717.54 732.01 720.98 729.77 596.61 723.69 593.38 725.33 717.54"/>
      <polygon class="st3" points="762.72 686.62 772.7 690.82 800.43 689.96 794.28 686.4 762.72 686.62"/>
      <path class="st9" d="M729.77,596.66l2.25,124.32,14.66-.06,92.52-2.43-8.52-138.7-100.9,16.88ZM772.35,689.89l-.74-62.19,27.26-4.49,1.48,66.44-27.99.24Z"/>
      <polygon class="st4" points="731.97 720.57 738.38 605.57 830.73 579.8 729.77 596.66 731.97 720.57"/>
      <polygon class="st3" points="723.69 593.38 729.77 596.61 830.67 579.73 824.59 576.53 723.69 593.38"/>
    </g>
    <g>
      <polygon class="st7" points="828.53 535.67 827.18 514.56 818.75 510.51 821.09 532.12 828.53 535.67"/>
      <polygon class="st0" points="773.82 534.94 781.27 538.49 828.53 535.67 821.09 532.12 773.82 534.94"/>
      <g>
        <polygon class="st7" points="724.04 575.44 731.86 579.24 731.59 533.99 720.07 530.52 724.04 575.44"/>
        <polygon class="st0" points="851.15 429.92 843.71 426.37 712.33 399.05 719.79 402.58 851.15 429.92"/>
        <polygon class="st0" points="818.75 510.51 826.21 514.05 851.93 512.04 844.5 508.5 818.75 510.51"/>
        <polygon class="st0" points="791.53 453.52 719.88 530.58 727.32 534.14 798.99 457.07 791.53 453.52"/>
        <polygon class="st7" points="724.08 462.72 719.79 402.58 712.33 399.05 716.61 459.18 724.08 462.72"/>
        <polygon class="st2" points="851.95 512.04 826.21 514.05 828.53 535.67 781.27 538.49 852.46 458.57 851.15 429.92 719.79 402.58 724.08 462.72 750.27 459.04 748.58 444.59 798.99 457.07 727.32 534.14 731.72 579.03 858.37 558.87 851.95 512.04"/>
        <polygon class="st5" points="731.17 414.76 851.15 429.92 719.75 402.68 724.08 462.72 731.17 414.76"/>
        <polygon class="st5" points="739.27 569.64 727.21 534.18 731.68 579.2 858.37 558.87 739.27 569.64"/>
      </g>
    </g>
    <g>
      <polygon class="st0" points="618.16 255.33 625.17 259.67 697.93 244.93 691.66 240.66 618.16 255.33"/>
      <g>
        <polygon class="st0" points="592.45 535.61 599.45 539.96 645.14 553.09 638.16 548.74 592.45 535.61"/>
        <polygon class="st0" points="632.96 453.49 557.28 463.16 565.19 467.7 639.97 457.83 632.96 453.49"/>
        <polygon class="st7" points="566.22 577.7 566.69 468.56 557.28 463.16 559.2 573.35 566.22 577.7"/>
        <polygon class="st7" points="639.97 457.83 625.17 259.67 618.16 255.33 632.96 453.49 639.97 457.83"/>
        <polygon class="st7" points="645.14 553.09 644.32 493.9 637.33 489.52 638.16 548.74 645.14 553.09"/>
        <path class="st2" d="M625.17,259.67l14.8,198.16-75.68,9.67,1.93,110.19,125.18,15.46,6.53-348.23-72.76,14.74ZM599.45,539.96l1.71-46.29,43.16.23.82,59.19-45.69-13.13Z"/>
        <polygon class="st5" points="564.29 467.5 566.21 577.65 694.22 591.73 575.78 564.66 564.29 467.5"/>
        <polygon class="st5" points="653.1 274.4 697.93 244.93 625.17 259.67 639.97 457.83 653.1 274.4"/>
      </g>
    </g>
    <g>
      <polygon class="st0" points="267.16 310.77 275.13 314.84 339.54 321.2 331.58 317.14 267.16 310.77"/>
      <polygon class="st7" points="336.79 491.14 373.86 557.78 382.01 560.83 344.77 495.21 336.79 491.14"/>
      <polygon class="st7" points="339.36 464.1 387.36 430.16 383.15 308.04 372.4 300.25 375.02 424 331.38 460.04 339.36 464.1"/>
      <polygon class="st7" points="276.99 315.64 267.16 310.77 243.62 539.41 251.61 543.47 276.99 315.64"/>
      <polygon class="st2" points="432.51 432.9 449.4 286.49 380.36 304.33 387.36 430.16 339.35 464.1 339.54 321.2 275.13 314.84 251.61 543.47 346.33 540.33 344.77 495.21 382.01 560.83 453.1 562.43 396.5 467.56 432.51 432.9"/>
      <polygon class="st5" points="251.61 543.47 289.13 331.82 339.39 321.03 275.13 314.84 251.61 543.47"/>
      <polygon class="st5" points="387.36 430.16 396.28 319.26 449.4 286.49 380.36 304.33 387.36 430.16"/>
      <polygon class="st0" points="372.98 300.34 380.39 305.95 449.4 286.49 441.42 282.42 372.98 300.34"/>
    </g>
    <g>
      <polygon class="st4" points="668.25 604.88 596.3 595.53 601.97 598.63 673.93 607.98 668.25 604.88"/>
      <g>
        <polygon class="st1" points="609.48 720.22 601.97 598.63 596.3 595.52 605.48 716.81 609.48 720.22"/>
        <polygon class="st1" points="673.93 607.98 660.75 477.9 654.21 472.75 668.25 604.88 673.93 607.98"/>
        <polygon class="st1" points="679.95 699.35 676.15 641.85 671.13 642.92 671.93 695.07 679.95 699.35"/>
        <path class="st9" d="M660.75,477.9l13.18,130.08-71.96-9.35,7.51,121.59,102.11,1.66-.06-239.67-50.78-4.3ZM636.09,683.91l-.2-43.62,40.59,3.64-.08,44.77-40.31-4.78Z"/>
        <polygon class="st4" points="601.97 598.63 609.48 720.22 711.59 721.88 617.8 709.55 601.97 598.63"/>
        <polygon class="st4" points="670.02 484.11 711.53 482.2 660.75 477.9 673.78 608.11 670.02 484.11"/>
        <polygon class="st3" points="676.39 688.7 672.04 685.24 635.83 680.25 636.09 683.91 676.39 688.7"/>
      </g>
    </g>
    <g>
      <polygon class="st1" points="300.69 614.05 298.86 714.16 305.6 717.73 307.42 617.63 300.69 614.05"/>
      <polygon class="st1" points="266.22 612.5 260.99 627.06 267.74 630.62 272.94 616.07 296.11 557.12 289.38 553.55 266.22 612.5"/>
      <polygon class="st1" points="231.42 634.43 258.49 715.1 265.23 718.68 238.13 637.99 231.42 634.43"/>
      <polygon class="st1" points="169.5 557.91 183.26 716.42 190 720.02 176.23 561.49 169.5 557.91"/>
      <polygon class="st3" points="169.5 557.87 176.23 561.44 235.84 558.17 229.12 554.59 169.5 557.87"/>
      <polygon class="st9" points="272.94 616.07 267.74 630.62 235.84 558.22 176.23 561.49 190 720.02 241.68 719.26 238.13 637.99 265.23 718.68 285.16 718.63 307.42 617.63 305.6 717.73 344.64 717.78 348.77 555.58 296.11 557.12 272.94 616.07"/>
      <polygon class="st3" points="289.38 553.55 296.11 557.12 348.77 555.58 342.13 552.23 289.38 553.55"/>
      <polygon class="st4" points="176.23 561.49 190 720.02 186.03 567.99 235.84 558.17 176.23 561.49"/>
      <polygon class="st4" points="268.22 628.33 296.11 557.12 348.77 555.58 302.07 563.87 268.22 628.33"/>
    </g>
    <polygon class="st3" points="711.53 482.2 708.43 477.54 654.21 472.75 660.75 477.9 711.53 482.2"/>
  </g>
  <polygon class="st8" points="145.89 524.37 157.39 515.31 153.18 490.78 134.41 490.03 144.76 525.27 145.89 524.37"/>
  <polygon class="st8" points="204.02 270.44 210.33 268.86 208.55 247.3 204.35 247.65 204.04 243.89 197.27 245.39 199.28 249.4 196.44 251.21 204.02 270.44"/>
  <polygon class="st8" points="216.07 268.54 230.86 264.89 229.21 244.99 223.47 245.47 223.06 240.45 216.9 240.97 217.31 245.97 212.03 246.41 216.07 268.54"/>
  <polygon class="st8" points="235.14 265.64 244.48 266.21 246.85 243.55 243.32 243.83 242.96 239.7 236.35 240.26 236.87 246.48 232.69 246.83 235.14 265.64"/>
  <polygon class="st8" points="537.75 220.99 536.85 204.09 552.85 202.32 555.52 213.87 537.75 220.99"/>
  <polygon class="st8" points="721.52 152.03 723.47 143.12 736.58 141.71 735.32 152.03 721.52 152.03"/>
  <polygon class="st8" points="714.05 152.03 713.22 143.12 701.46 143.87 701.46 151.47 714.05 152.03"/>
  <polygon class="st8" points="680.84 152.03 695.44 151.2 693.44 144.06 676.97 143.87 680.84 152.03"/>
  <polygon class="st8" points="798 257.77 815.34 257.77 815.34 237.96 796.98 233.11 798 257.77"/>
  <polygon class="st8" points="741.9 371.98 741.9 355.08 757.57 350.95 761.95 378.13 741.9 371.98"/>
</svg>