<?xml version="1.0" encoding="UTF-8"?>
<svg id="Layer_1" xmlns="http://www.w3.org/2000/svg" version="1.1" viewBox="0 0 1000 1000">
  <!-- Generator: Adobe Illustrator 30.1.0, SVG Export Plug-In . SVG Version: 2.1.1 Build 136)  -->
  <defs>
    <style>
      .st0 {
        fill: #1ea4dc;
      }

      .st1 {
        fill: #f5c61f;
      }

      .st2 {
        fill: #4bb870;
      }

      .st3 {
        fill: #ee4646;
      }

      .st4 {
        fill: #0d24ae;
      }
    </style>
  </defs>
  <path class="st4" d="M170.44,736.36c7.99-.17,14.31-1.91,20.06-7.17,4.24-3.88,10.9-3.78,14.6.11,3.89,4.1,3.73,10.76-.75,14.96-17.81,16.7-52.27,16.33-70.61-4.76-16.85-19.37-14.84-56.76,10.09-72.07,7.95-4.88,17.55-7.83,26.95-8.09,10.43-.29,40.73,5.91,35.84,21.53-1.43,4.55-7.16,9.13-12.5,7.28-5.05-1.75-8.6-8.27-21.7-9.01-16.13-.91-27.64,13.14-27.37,28.6.15,8.89,2.8,15.44,9.11,21.27,4.69,4.33,8.96,7.5,16.28,7.35Z"/>
  <path class="st4" d="M246.18,736.57c16.69,9.33,26.97-11.44,36.22-1.4,2.43,2.63,3.1,7.99.15,11.16-6.86,7.37-16.77,9.51-26.63,9.65-22.02.32-38.33-14.48-38.19-37.31.07-11.23,3.29-21.26,12.42-28.71,10.26-8.38,17.04-9.6,31.16-7.97,15.97,1.85,28.84,19.62,27.59,34.43-.39,4.63-3.02,8.86-8.29,8.94l-40.93.63c-.42,4.83,2.55,8.37,6.5,10.59ZM268.6,712.1c-1.03-8.83-7.79-14.52-15.78-14.18-7.12.3-13.95,6.95-13.88,14.41l29.67-.23Z"/>
  <path class="st4" d="M457.79,726.95c-.16,9.77,14.18,13.51,21.68,11.51,5.3-1.41,16.16-11.38,21.62-2.48,1.33,2.17,1.76,7.66-.03,9.77-6.91,8.14-16.97,9.92-26.99,10.28-22.34.82-39.85-16.68-37.92-39.3.4-4.69.56-9.82,2.63-14.26,4.9-10.51,14.54-18.87,26.19-20.49,11.42-1.59,21.36.15,30.27,7.44,13.15,10.77,16.19,35.48,4.13,35.53l-38.02.15c-1.08,0-3.53.52-3.55,1.84ZM486.91,712.08c-1.08-8.78-7.94-14.8-15.87-14.18-7.33.57-13.86,6.75-13.97,14.49l29.84-.31Z"/>
  <path class="st4" d="M348.52,747.06l-.55-31.71c-.06-3.65-.62-7.92-2.76-10.73-3.09-4.06-8.21-5.1-12.9-3.45-3.78,1.33-8.03,5.57-8.15,10.83l-.78,35.47c-.13,5.99-7.18,8.19-12.36,7.67-4.94-.5-8.49-3.52-8.51-8.93l-.25-52.7c-.03-6.02,3.57-10.14,8.68-11.51,5.67-1.52,10.56,1.86,13.68,7.23,4.78-3.01,8.95-6.91,14.59-7.34,3.89-.3,7.67-.89,11.95.06,8.36,1.84,16.86,9.6,17.92,19.38,1.66,15.27.75,31.13.3,46.88-.18,6.31-9.51,8.35-13.99,6.94-3.83-1.21-6.8-3.77-6.87-8.09Z"/>
  <path class="st4" d="M428.83,745.31c.06,4.63-1.75,6.58-5.08,8.06-8.46,3.78-22.86,3.54-28.98-2.69-2.72-2.77-5.41-7.99-5.46-12.06l-.38-34.36c-.05-4.69-10.36-3-9.86-13.13.22-4.51,4.6-8,9.51-8.73,1.6-5.28-2.1-15.08,6.64-17.92,5.6-1.82,14.59-.41,14.97,5.69l.76,12.12c2.44.85,5.31.73,7.77.63,6.06-.24,9.78,3.09,10.02,8.25.27,5.84-3.89,9.07-9.87,9.66l-8.18.8-.14,28.82c-.06,13.08,18.07-1.05,18.29,14.85Z"/>
  <path class="st4" d="M542.45,744.14c-.13,6.14-3.48,10.09-8.81,11.14-4.39.86-10.69-.76-11.89-6.2-.96-4.36-1.69-9.51-1.29-14.09.56-6.37.2-12,.27-18.32l.25-21.48c.07-6.2,2.2-11.9,7.99-13.16,5.78-1.26,12.3,1.54,13.51,8.19,4.12-2.86,6.31-6.62,10.49-8.01,5.73-1.91,11.56.35,13.5,5.9,1.67,4.75-.45,11.42-6.68,13.18-8.78,2.48-16.6,8.65-16.82,18.67l-.53,24.18Z"/>
  <path class="st4" d="M717.12,537.81c-6.12,5.33-15.18,6.52-21.66,1.25-4.59-3.73-4.99-12.52-.26-16.54,5.15-4.38,14.11-4.32,19.38-.64s4.95,10.26,2.54,15.93Z"/>
  <path class="st4" d="M795.17,629.64c-20.64,7.95-43.49,1.59-55.45-16.7-6.24-9.55-7.71-21.42-4.98-32.64,4.06-16.71,18.33-28.31,35.16-30.97,16.86-2.66,34.07,3.03,44.16,17.13,7.6,10.61,9.93,24.35,5.5,37.65-3.53,10.6-11.92,20.73-24.39,25.53ZM797.81,586.12c-2.43-11.7-11.91-18.39-22.77-17.27-10.49,1.08-18.14,10.43-18.27,21.36-.15,13.15,10.23,23.23,23.16,22.02,12.11-1.13,20.57-13.12,17.88-26.11Z"/>
  <path class="st4" d="M406.39,631.89c-15.43,3.32-31.7-1.23-42.43-12.27-16.15-16.6-15.52-45.38,3.4-60.77,16.69-13.59,41.95-13.8,58.76.2,12.83,10.69,17.41,27.5,12.78,43.74-4.1,14.37-16.12,25.58-32.5,29.1ZM417.08,589.78c-.4-9.1-5.1-16.13-12.39-19.18-7.28-3.05-15.71-2.54-21.84,3.14-9.9,9.18-9.4,25.3.87,34.03,6.46,5.49,15.46,6.09,22.69,2.06,6.69-3.73,11.07-11.12,10.67-20.04Z"/>
  <path class="st4" d="M540.62,622.31c-7.03-7.85-6.11-20.62-1.29-28.76,2.97-5.01,7.73-7.63,12.8-9.67,20.08-8.05,36.77,2.63,36.72-1.85-.08-6.74-5.56-12.03-12.03-12.93-7.35-1.03-14.17.29-21.07,2.37-6.04,1.83-11.55-.49-13.4-6.52-1.58-5.13,1.89-10.18,7.8-12.13,15.39-5.09,41.64-7,53.78,6.6,5.9,6.61,7.94,15.67,7.95,24.45l.02,36.23c0,3.85-1.29,7.74-4.34,9.62-7.08,4.36-15.49,2.6-19.39-5.62-13.83,11.79-34.91,12.33-47.56-1.79ZM585.43,611.08c3.59-3.82,5-8.77,2.98-13.45-6.89-2-14.08-3.06-20.93-1.44-5.76,1.37-9.37,6.18-8.69,11.59.65,5.2,5.17,8.5,10.79,8.69s11.59-.86,15.86-5.4Z"/>
  <path class="st4" d="M314.11,586.12c-.09-5.37-1.32-10.77-5.38-13.8-4.21-3.14-10.17-3.43-15.14-1.07-3.62,1.72-7.41,6.55-7.47,11.85l-.46,39.48c-.05,4.62-4.23,7.46-7.44,8.79-4.35,1.8-8.29.57-12.3-2.07-2.28-1.5-3.69-5.17-3.69-8.33v-58.78c0-3.89,1.02-8.41,4.16-10.73,4.74-3.5,11.79-2.87,16.11.9,1.97,1.71,2.01,4.73,3.32,7.03,3.64-2.57,6.53-6.31,11-8.2,7.63-3.22,16.9-3.33,24.86-.47,10.39,3.73,15.91,14.17,15.94,25.07l.12,45.27c.02,6.26-4.96,10.34-10.6,11.02-5.47.66-12.14-2.71-12.63-9.1-.92-12.17-.2-23.93-.42-36.85Z"/>
  <path class="st4" d="M907.7,629.88c-4.11,2.49-7.99,2.83-12.09,1.14-3.09-1.27-6.85-4.63-6.93-9.18l-.72-40.27c-.13-7.06-6.72-11.82-12.95-11.98-6.55-.17-13.75,4.32-13.94,12.1l-1.01,40.67c-.16,6.58-6.29,9.86-11.98,9.67-5.54-.19-11.34-4.64-11.34-11.07l-.04-61.37c0-5.59,4.54-9.23,9.31-10.13,7.99-1.51,12.83,2.71,14.66,10.91,6.49-9.05,15.52-12.18,25.65-11.67,12.24.62,22.09,8.28,24.55,20.43.61,3.02,1.5,6.06,1.49,9.39l-.12,40.72c-.01,4.05-.89,8.45-4.54,10.67Z"/>
  <path class="st4" d="M220.52,620.6l-.13-36.76c-.02-5.07-3.38-10.22-6.81-12.27-4.89-2.93-11.59-2.82-15.66.84-2.9,2.6-5.53,7.05-5.57,10.96l-.33,37.61c-.06,7.14-5.64,11.34-12.64,10.89-5.46-.35-10.57-3.9-10.57-10.04v-62.27c0-6.28,5.25-10.06,10.78-10.34,6.75-.34,11.57,3.44,12.67,10.69,4.19-3.45,6.8-7.42,11.79-9.19,9.92-3.51,21.65-2.79,30.17,3.88,6.48,5.07,9.63,13.35,9.65,21.46l.11,44.7c.01,5.54-3.45,9.31-8.56,10.75-3.66,1.03-7.14.42-10.33-1.51-2.62-1.59-4.57-5.19-4.59-9.41Z"/>
  <path class="st4" d="M522.95,550.75c5.35,2.99,6.47,9.16,4.16,14.59l-25.29,59.52c-2.15,5.06-7.86,7.68-12.4,7.79-4.8.12-11.53-1.49-13.62-6.33l-26.13-60.55c-1.8-4.18-2-8.03.68-11.88,2.05-2.93,5.93-4.98,10.54-4.67,4.78.32,8.37,2.77,10.14,7.33l17.46,45.19,17.49-45.32c2.64-6.85,10.22-9.05,16.98-5.67Z"/>
  <path class="st4" d="M659.96,609.84c4.69,4.08,10.22-.88,15.45,3.49,2.2,1.84,2.86,4.41,2.89,7.63.05,5.32-3.1,8.73-7.96,10.02-6.79,1.8-13.49,2.33-20.19.75-9.91-2.33-15.94-9.56-15.99-19.9l-.19-41.65c-6.7.32-11.39-3.43-11.53-9.82-.07-3.26,1.03-5.9,2.92-8.03,1.95-2.2,5.08-1.99,8.38-2.89,1.02-8.02-2.54-20,10.03-21.44,3.73-.43,7.4-.14,10.23,2.55,6.49,6.16,1.77,13.47,4.55,18.65,4.91,2.42,15.85-2.43,18.86,7.7,1.37,4.6.29,9.57-4.35,11.75-4.64,2.19-9.6.95-15.21,1.38l-.15,33.78c-.01,2.48.84,4.78,2.26,6.02Z"/>
  <path class="st4" d="M146.89,618.73c.02,7.66-4.59,12.96-11.39,13.37-5.77.35-12.71-4.07-12.7-11.2l.13-86.32c.01-6.85,5.4-10.66,11.37-10.85,6.15-.19,12.3,3.59,12.32,10.54l.28,84.45Z"/>
  <path class="st4" d="M698.7,630.28c-3.8-2.37-4.95-7.62-4.96-12.01l-.12-56.04c-.02-7.85,4.66-12.9,12.14-13.07,6.92-.16,11.86,5.46,11.85,13.08l-.12,58.75c0,4.44-2.88,7.9-5.76,9.57-4.08,2.36-8.56,2.52-13.04-.27Z"/>
  <rect class="st0" x="380.39" y="243.89" width="91.26" height="240.64" rx="45.63" ry="45.63"/>
  <rect class="st2" x="490.48" y="243.89" width="91.26" height="240.64" rx="45.63" ry="45.63"/>
  <rect class="st3" x="600.57" y="243.89" width="91.26" height="240.64" rx="45.63" ry="45.63"/>
  <path class="st1" d="M361.56,289.52c0,11.69-4.46,23.36-13.37,32.27l-145.5,147.31-3.65,3.69s-.05.05-.08.06c-8.07,7.26-18.76,11.69-30.48,11.69-25.2,0-45.62-20.44-45.62-45.63v-149.38c0-25.2,20.42-45.63,45.62-45.63,12.61,0,24.01,5.11,32.27,13.37,8.26,8.26,13.37,19.66,13.37,32.27v37.26l69.53-69.51c17.82-17.84,46.71-17.84,64.54,0,8.91,8.91,13.37,20.58,13.37,32.25Z"/>
  <circle class="st1" cx="315.9" cy="438.68" r="45.66"/>
  <path class="st1" d="M187.3,457.22c-.91,1.05-1.89,2.05-2.94,2.98l2.94-2.98Z"/>
</svg>