<?xml version="1.0" encoding="UTF-8"?>
<svg id="Layer_1" xmlns="http://www.w3.org/2000/svg" version="1.1" viewBox="0 0 1000 1000">
  <!-- Generator: Adobe Illustrator 30.1.0, SVG Export Plug-In . SVG Version: 2.1.1 Build 136)  -->
  <defs>
    <style>
      .st0 {
        fill: #ffd50a;
      }

      .st1 {
        fill: #5d2b9e;
      }

      .st2 {
        fill: #ed2842;
      }
    </style>
  </defs>
  <path class="st2" d="M816.87,355.28c-8.16,1.76-15.23-.81-15.27-8.73-.06-9.94,7.88-15.64,17.01-17.82l96.2-22.93c12.52-2.98,23.8-7.44,37.3-9.78,7.27,9.97,9.33,22.31,3.52,34.28-9.65,2.49-21.63,5.69-32.07,7.03-35.96,4.62-70.11,10.08-106.68,17.95Z"/>
  <path class="st2" d="M919.49,428.27c-20.04-3.77-38.41-8.45-58.01-15.45l-51.39-18.35c-2.52-.9-4.21-7.54-3.19-9.42,1.22-2.24,5.54-7.03,8.2-7.04,29.72-.08,59.28,5.91,88.81,9.64l24.04,3.04c4.02,14.09-.1,25.47-8.46,37.58Z"/>
  <path class="st2" d="M848.15,287.5c-10.51,7.92-41.7,33.81-49.16,25.62-8.15-8.96,2.86-19.61,10.37-25.89,25.37-21.22,48.21-42.01,72.2-65.02,9.17,3.36,26.36,20.26,16.44,27.73l-49.85,37.55Z"/>
  <path class="st1" d="M936.37,538.62l-37.92-.06.78,132.85.85,31.33-.43,66.33c-13.6,2.44-24.5,2.55-39.7,2.15-1.68-5.92-2.48-11.47-2.65-17.69l-1.3-49.19c-.24-9.24.33-17.73.44-26.97l1.2-95.59.93-44.29-50.71-2.44c-5.59-.26-5.7-8.7-6.24-12.46-.96-6.83-3.35-25.97,7.55-25.93l131.37.44c2.57,8.55,10.7,41.53-4.18,41.51Z"/>
  <path class="st1" d="M784.07,764c-16.21.91-31.06-4.28-41.18-17.25-4.28-5.48-9.33-12.23-11.79-19.16-13.14-37-14.03-75.99-5.09-114.14,3.29-14.07,8.14-27.26,15.69-39.49,3.79-6.14,10.35-11.9,16.19-16.36,23.63-17.97,58.83-3.26,67.7,22.47,3.61,10.48,6.11,21.45,3.53,32.65-8.59,4.29-20.15,6.4-30.2,7.85-7.88-5.02-.74-15.93-8.61-26.95-3.52-4.92-12.34-4.7-15.58-.3-5.53,7.51-8.55,15.49-10.29,24.58-5.89,30.61-6.61,61.54,1.89,91.45,1.74,6.14,7.24,13.38,13.29,13.79,6.88.46,12.62-7.48,13.79-14.23l3.59-20.77c3.48-4.16,29.41.63,36.18,2.68,1.22,30.59-14.86,71.27-49.12,73.18Z"/>
  <path class="st1" d="M704.75,728.32c-1.15,6.2-33.11,4.16-38.87,3.09-2.05-7.79-2.55-14.92-2.65-22.67l-.78-56.26-1.26-80.77c-.13-9.14-1.98-17.43.93-26.8,13.08-3.22,25.93-3.61,39.29-1.2.76,2.13,1.89,6,1.91,8.42l.68,133.9.74,42.29Z"/>
  <path class="st1" d="M656.8,755.3l-22.21-39.14-27.69-50.56c19.25-12.31,34.66-27.11,36.35-49.69,1.39-18.66-8.44-37.66-24-47.86-9.22-6.03-20.34-8.92-31.33-10.68-12.84-2.05-26.71,1.89-39.18,4-8.96,1.54-10.73,6.81-10.79,14.64l-.48,59.52.04,10.75.78,105.73c.06,8.53,1.09,15.69,2.11,24.86,11.36.41,21.67.54,33.2.35,4.07-.07,6.2-3.76,6.16-7.2l-.56-43.47c-.15-12.23-2.2-24.26-.2-36.35l43.77,84.97c5.85-.2,9.88-2.33,14.62-4.42l15.71-6.9c2.76-1.22,5.46-5.44,3.7-8.53ZM602.65,623.86c-5.98,8.35-15.53,11.83-25.95,13.47l-.56-29.8c-.07-4.29-.18-9.85.33-14.21,6.77-3.26,14.21-.59,20.28,2.72,10.03,5.5,13.27,17.53,5.89,27.82Z"/>
  <path class="st1" d="M558.82,519.15l-.33,20.43c-11.23,4.57-26.15,3.37-42.86,4.59l-10.64.78.85,93.02,1.7,44.38.93,48.66c.06,3.53,1.35,9.42-.31,12.9-7.27,3.74-35.7,4.85-38.9,1.57-2.11-2.15-2.52-6.29-2.61-9.72l-.94-32.87-.76-156.91-42.97,1.41c-4.02-4.26-6.72-31.93-1.59-37.38l50.04-3.13,32.39-1.68,36.63-1.67c5.02-.24,10.33.02,15.51.26,2.65,4.52,3.98,10.18,3.89,15.36Z"/>
  <path class="st1" d="M387.52,771.18c-30.91,3.91-57.78-15.71-64.5-46.36-1.76-8.01-4.85-17.92-.52-24.52,3.31-4.42,27.58-8.81,31.63-7.03,4.52,1.96,4.78,11.9,6.77,20.93,2.18,9.77,11.33,18.36,21.8,16.64,7.88-1.3,10.86-9.86,11.27-17.14,1.2-21.34-16.64-38.75-31.39-53.32-24.61-24.34-46.77-55.8-27.3-88.91,8.33-14.18,22.6-24.28,41.68-26.02,26.35-2.39,49.4,17.03,53.95,43.47-8.85,7.22-17.34,12.1-27.67,16.82-9.81-2.48-6.03-17.58-16.95-20.8-4.63-1.37-11.07-1.87-14.34,2.57-14.45,19.54,12.46,40.01,24.95,53.52,17.77,19.23,36.66,39.62,39.37,65.98,3.26,31.74-17.32,60.19-48.75,64.17Z"/>
  <path class="st1" d="M304.99,567.03l-.11,18.84-.33,51.65-.76,110.01c-.02,2.05-.76,6.03-1.33,8.25l-20.75,1.15c-5.76.31-12.9-.15-17.73-1.41-.57-5.35-1.7-10.14-1.7-14.38l-.13-159.07c-1.89-5.76-2.74-15.86,3.02-19.25,8.92-5.26,20.75-2.07,30.7-2.55,2.22-.11,4.98-.15,6.31.22,1.59.44,2.83,4.57,2.81,6.53Z"/>
  <path class="st1" d="M231.39,570.54c-8.48-19.8-21.8-37.27-41.14-47.8-10.86-5.92-24.52-9.53-36.92-11.64-13.14-2.24-26-.65-39.81-.04-.43,24.76-.67,47.75.11,71.68l1.61,50.73,2.46,63.26.74,25.34.96,41.86c.09,3.63,1.28,8.62,1.98,12.83,15.64,2.44,28.74.28,42.51-3.81,27.78-8.24,49.06-26.65,62.33-52.36,23.87-46.23,25.65-102.2,5.16-150.04ZM189.54,696.88c-6.5,12.47-14.2,22.1-28.72,27.34l-2.46-38.33-1.37-28.52-1.7-60.94c-.35-12.86-.68-24.74-.56-39.14,17.54,3.87,31.74,15.23,38.2,31.31,14.07,35.11,13.88,75.18-3.39,108.29Z"/>
  <path class="st1" d="M771.6,483.78l-38.7-77.49c-6.61-13.25-12.58-26.08-17.56-39.25,32.13-19.9,51.06-51.27,36.63-87.71-7.59-19.14-25.82-31.7-46.75-34.72-21.04-3.05-39.35-2.07-59.02,3.96-7.72,2.37-8.59,7.44-8.55,14.25l.96,125.3,1.39,52.28,1.65,46.97c.22,6.46.91,12.53,1.52,19.19,8.11,4.11,16.29,4.72,24.91,3l16.71-3.33c2.39-39.42-3.2-68.22-1.89-108.06l20.43,46.36,26.17,57.56c2.31,5.09,7.98,7.07,12.51,5.22l30.93-12.68c4.37-1.78-.02-8.2-1.33-10.85ZM706.77,323.3c-8.24,6.64-16.56,10.09-26.71,10.79l-1.11-23.49c-.44-9.4-.91-18.12-.57-28.02,12.44-1.7,25.45-.15,33.41,9.27,7.68,9.11,4.09,24.1-5.02,31.44Z"/>
  <path class="st1" d="M624.65,493.48l-4.18-19.86-14.18-64.54-17.45-81.06-11.05-50.17-7.64-31.26-36.92-.2c-2.26,0-6.68,3.22-7.42,5.61-7.53,23.73-12.84,46.71-18.69,70.81l-15.38,63.46-10.38,40.29c-3.85,14.95-6.68,29.22-9.83,45.12,14.66,2.96,27.82,4.03,41.22,2.55l13.68-52.21,18.95-1.7c5.87-.52,13.08-1.8,18.51,1.31l11.83,54.84,9.98,46.42c14.77,1.78,28.06.3,42.77-4.05-.15-9.12-2-16.8-3.79-25.36ZM545,378.46c-4.24.28-8.55.37-11.25-.48l6.13-28.37c2.41-11.09,5.11-21.25,8.86-33.17l10.33,61.06-14.07.96Z"/>
  <path class="st1" d="M489.05,318.77c-1.28,1.61-5.26,3.24-7.66,3.55l-41.86,5.55c-.09,14.95.48,27.82.7,41.83l1.26,74.83c.2,12.16.81,23.39.63,35.83-1.33,4.98-34.79,6.92-41.92,5.13l-1.61-41.79c-.76-19.91-.7-39.87-.06-60.15.56-17.12,1.15-33-1.54-50.27l-40.53,5.44c-2.61-3.05-4.87-8.03-4.87-11.44l-.04-23.19c0-2.68,2.65-6.61,6.05-7.11l58.02-8.59,24.73-3.52,39.16-5.61c1.87-.28,5.89.41,6.87,1.5,1,1.07,1.72,3.85,1.83,5.7l1.35,23.52c.15,2.48.76,7.14-.52,8.77Z"/>
  <path class="st1" d="M365.07,473.01c-7.01,34.24-33.83,56.3-67.89,59.13-24.61,2.04-48.86-8.46-64.74-27.61-12.27-14.81-17.84-33.35-19.64-52.21-.7-7.18,3.53-13.27,10.44-15.03l25-6.42c18.14-4.66,1.55,21.99,23.15,44.73,9.72,10.25,25.95,13.14,36.48,2.79,9.77-9.61,11.09-25.08,6.29-38.01-21.04-56.71-58.85-74.62-74.29-125.09-3.81-12.44-4.4-26.76-1.8-39.22,5.66-26.97,26.74-44.73,53.43-48.32,52.36-7.09,74.25,44.14,69.88,51.04-1.28,2-4.83,4.07-7.66,5.33l-16.71,7.38c-2.74,1.22-8.85,3.98-11.55,3.26-8.51-5.79-5.29-20.28-22.67-21.71-5.35-.44-13.58,2.87-15.97,8.4-4.68,10.86-2.78,22.78,2.5,33.02,23.76,46.19,88.06,98.55,75.73,158.53Z"/>
  <path class="st0" d="M117.9,439.62c-1.84,2.71-4.23,5.03-7.58,4.88-1.3-.06-3.02-2.83-3.24-4.25l-3.43-22.16c-1.93-12.48-.18-30.87-3.67-44.9l-23.32-5.27c-7.26-1.64-33.43-6.4-35.56-14.67-1.23-4.77,11.66-11.48,15.71-13.41l37.71-17.98c.83-4.59.36-9.49.15-14.3l-.87-19.61-.71-19.26c-.13-3.43-.43-16.94,2.86-18,5.45-1.75,21.02,19.48,24.98,24l19.56,22.3,32.7-14.78c7.47-3.38,15.93-5.6,23.69-8.36.91-.32,3.33.03,3.84.72,2.9,3.91.06,10.05-1.74,14.61-5.62,14.23-10.24,24.14-18.03,37.29-6.84,11.54-7.3,12.41-1.03,21.11,8.92,12.41,31.42,43.25,32.81,56.87-4.91,8.86-36.49-6.18-43.57-9.44l-18.98-8.74-6.5,11.75c-4.77,8.63-9.31,17.29-14.8,25.4l-10.98,16.21Z"/>
</svg>