<?xml version="1.0" encoding="UTF-8"?>
<svg id="Layer_1" xmlns="http://www.w3.org/2000/svg" version="1.1" viewBox="0 0 1000 1000">
  <!-- Generator: Adobe Illustrator 30.1.0, SVG Export Plug-In . SVG Version: 2.1.1 Build 136)  -->
  <defs>
    <style>
      .st0 {
        fill: #6a8f00;
      }
    </style>
  </defs>
  <g>
    <path class="st0" d="M857.08,612.15c-.76-2.08-1.58-4.12-2.57-6.03-.85-1.65-4.84-1.08-6.04.21-.28,3.17-.37,6.8-.34,10.04l.2,20.21c.02,1.79-.84,4.07-1.9,5-3.24,2.85-5.44.5-12.52,1.45-1.48.2-4.48-.16-5.47-1.33-2.96-3.47-2.55-15.66-2.17-20.42.5-6.18-.1-12.22-.14-18.47-.08-12.43,1.41-11.72-.19-25.61-.53-4.56.53-9.04.46-13.58-.12-7.55-3.59-17.79,3.85-17.99l19.02-.53c4.32-.12,8.44.81,12.68,1.52,5.52.92,10.47,2.71,14.92,6.45,7.83,6.58,10.66,17.31,8.83,27.28-.77,4.21-1.78,7.65-4.31,11.11-5.78,7.91-8.86,5.37-6.99,9.53,2.98,6.61,5.42,13.11,7.87,19.93,1.69,4.71,3.85,8.96,6,13.52.94,1.99,1.74,5.25.21,6.98-3.22,2.46-17.76,1.55-19.64-.46-2.97-3.16-3.68-7.38-5.16-11.24l-4.93-12.92-1.7-4.63ZM861.21,583.18c4.48-3.75,4.43-11.6.17-15.18-3.73-3.13-8.25-4.36-12.65-2.83-1.99,5.67.32,7.31-.76,16.92-.73,6.55,10.53,3.34,13.23,1.08Z"/>
    <path class="st0" d="M582.2,605.72c-1.21-1.06-4.37-.6-5.98.13-.46,5.14-.24,10.21-.24,15.44l.02,15.76c0,3.71-2.46,5.98-6.02,5.89l-5.81-.16c-2.49-.07-6.34,1-8.19-1.43-4.18-9.05-1.38-19.03-1.89-29.88-.36-7.57-.19-14.73.31-22.31.27-4.09-.43-8.23-.91-12.27-.52-4.33.54-8.45.7-12.78.2-5.29-2.1-10.49-.43-15.83.52-1.67,3.56-2.58,5.29-2.62l18.55-.44c6.58-.15,13.22,1.17,19.32,3.42,9.01,3.31,15.02,11.07,16.59,20.34.72,4.27.29,7.98-.38,12.09-1.2,7.3-4.66,13.52-11.52,17.05-.02,1.73.88,3.17,1.51,4.7,5.47,13.22,6.14,18.34,12.97,32.14.77,1.56,1.59,4.86.29,6.06-4.45,2.65-9.88,1.85-14.76,1.53-4.07-.27-6.36-2.36-7.66-6.02l-2.01-5.66-3.85-10.09-1.8-5.25c-1.14-3.34-2.08-6.72-4.11-9.79ZM586.73,584.63c4.17-1.88,5.57-5.63,5.58-9.59.01-3.07-.89-5.36-3.26-7.22-3.64-2.86-7.97-4.25-12.75-2.77-1.3,6.94.15,7.63-.52,16.56-.08,1.09.18,2.91.75,3.86,3.21.56,7.2.5,10.19-.84Z"/>
    <path class="st0" d="M802.06,636.16c-7.14,6.04-15.49,8.55-24.91,7.13-8.73-1.32-16.01-3.75-21.39-11.27-2.07-2.89-4.16-5.92-5.91-9.16-1.37-2.54-1.95-5.86-2.97-8.6-2.62-7.02-2.86-13.83-2.61-21.3l.36-10.94c.08-2.53,1.02-5.06,2.07-7.31,2.5-17.23,19.98-33.02,37.89-29.63,15.63,2.96,22.62,9.14,28.05,23.98l3.08,8.42c2.17,5.93,1.47,12.42,1.58,18.73.1,5.79-.81,10.96-2.26,16.49l-2.31,8.83c-.67,2.54-3.08,4.94-4.41,7.26-1.7,2.97-3.67,5.19-6.25,7.37ZM791.92,613.21c1.07-3.51,2.59-6.53,2.93-9.89,1-9.81.54-14.93-1.92-24.18-1.41-5.3-4.61-10.02-9.67-12.29l-6.82.08c-7.14,6.87-8.19,10.14-9.92,19.69-1.68,9.29-.3,18.72,3.25,27.39,1.81,4.4,5.46,8.59,10.35,8.85,5.91.32,10.15-4.29,11.78-9.65Z"/>
    <path class="st0" d="M660.57,621.21c2.1.07,3.97.62,5.79.3,2.36-.41,4.27.46,5.92,2.04,2.78,2.67,2.92,6.5,3.12,10.05.17,2.99-.11,5.54-3.44,7.07-5.43,2.49-15.96,1.1-15.73,1.08l-8.27.5c-3.66.22-6.62-.61-10.25-.14-1.69.22-4.34-1.02-6.12-.89-3.61.26-6.18-1.67-6.27-5.45-.2-8.31-1.63-8.35-.48-14.6,1.07-5.8-.11-11.66.13-17.45.38-9.33.02-18.26-.39-27.64-.17-3.97,1.43-7.81.47-12-.88-3.86-.2-7.93-.1-11.92.18-7.63,8.43-5.74,16.87-6,4.3-.13,8.28.36,12.58.14l13.61-.72c1.86-.1,5.22.8,6.09,2.43.32,3.61,3.1,16.6-1.71,16.71l-23.83.57c-.97,5.3-1.27,9.86-.71,14.92,7,1.24,13.3,1.61,20.14.73,4.84-.62,6.08,6.43,6.07,8l-.08,6.9c-.06,4.66-7.54,5.13-10.73,4.96l-11.45-.63c-2.31-.13-3.46,1.79-3.65,3.71l-1.1,11.41c-.1.99.61,3.01.76,4.32.45,3.9,6,1.38,12.75,1.61Z"/>
    <path class="st0" d="M686.15,638.31c-4-1.72-4.22-5.25-3.08-8.47l3.03-8.59c1.55-4.38,8.72-.92,11.74.22,5.43,2.06,12.96,1.68,15.84-2.81,1.71-2.66,2.61-6.02,1.2-8.59-2.8-5.1-6-4.89-11.23-8.68l-7.33-5.3c-3.91-2.83-8.8-8.51-10.78-13.5-5.28-13.31,1.2-29.64,14.64-34.6,11.66-4.3,19.11-3.54,30.05,1.19,2.97,1.28,4.05,3.73,3.4,6.72-.82,3.7-1.59,7.49-4.02,10.55-2.81,3.54-9.19-3.22-18.42-.64-4.27,1.2-7.03,6.23-4.58,10.28,4.03,6.63,13.46,7.59,22.09,17.08,9.66,10.62,10.87,19.51,6.4,32.79-3.2,9.52-12.23,16.28-22.47,17.13-11.42.94-15.82-.2-26.49-4.79Z"/>
    <path class="st0" d="M929.03,642.48l-10.65.49c-8.6.4-6.78-9.59-6.89-19.5l-.13-11.47.17-29.34-.31-13.6c-6.64-1.78-18,1.96-18.54-5.12l-.65-8.63c-.27-3.54,2.95-8.21,7.33-7.99,6.81.34,13.31.23,20.16.21l17.98-.05c4.93-.01,15.27-2.85,16.03,3.74.4,3.45.27,6.63.14,10.22-.07,1.85.58,4.8-1.48,5.94-3.03,1.68-12.69-.07-17.48,1.47-.75,1.61-.82,3.82-.84,5.58-.14,13,1.34,22.34.28,35.36-1.34,16.46-.14,14.16-.11,28.27,0,3.21-2.05,4.26-5,4.4Z"/>
  </g>
  <g>
    <path class="st0" d="M446.14,641.23c-2.35-.76-2.59-3.53-3.4-5.24-1.27-2.69-2.54-5.06-4-7.61-1.87-3.28-2.92-7.12-4.43-10.71-1.06-2.52-1.89-4.8-2.74-7.48-.76-2.4-5.18-12.63-6.87-15.14-1.2,2.12-1.28,3.71-1.08,5.79.76,8.02.59,15.65.56,23.6l-.05,13.91c0,1.28-2.45,3.09-3.76,3.13l-9.61.29c-1.45.04-3.39.15-4.45-.6-1.28-.91-1.48-2.77-1.66-4.56l-.82-7.88c-.49-4.69.17-9.29.5-13.98,1.09-15.64-.42-20.04.21-34.52.64-14.93-1.5-18.6-.01-32.21.12-1.08,2.3-2.86,3.4-3.01l9.27-1.32c3.07-.44,5.83,1.4,6.81,4.12,1.71,4.76,3.47,9.34,5.65,13.98,2.21,4.71,3.68,9.38,5.79,14.07l4.48,9.94c.84,1.87,1.42,3.3,2.84,4.86,1.19-3.61.62-6.09.45-9.29l-1.49-28.44c-.13-2.39.09-6.01,1.7-7.64,1.75-1.77,15.69-2.35,17.89-.14,1.62,3.94.61,8.47.93,12.58.42,5.44.08,10.4.02,15.84l-.25,25.43-.52,8.45c-.79,12.87,2.55,22.89-.55,33.08-4.1,1.99-10.08,2.19-14.8.65Z"/>
    <path class="st0" d="M524.89,615.88c-6.4,19.85-18.95,26.75-39.77,26.7-4.52-.01-8.71-.29-12.8-2.36l-.71-21.18c-.27-8.13-.27-16.11-.32-24.18l-.13-19.44.61-29.14c2.31-2.87,6.8-2.21,10.27-2.38l9.7-.47c4.46-.22,18.57,4.66,24.02,10.33,12.84,13.34,12.82,31.23,11.49,48.26-.38,4.92-.85,9.13-2.37,13.86ZM491.04,621.62c19.5.77,18.64-25.65,17.39-37.8-1.03-10.01-6.56-21.82-17.82-19.47-.24,11.34-.6,17.35-.27,28.6.1,3.32.26,6.39.13,9.72-.12,3.12.37,5.99.42,9.11l.15,9.83Z"/>
    <path class="st0" d="M368.4,608.26c-3.47,1.58-2.79,9.73-5.01,11.61-4.8.11-9.28-.05-14.06-.87-1.15-.87-1.31-3.76-.86-5.17,1.72-5.32,2.53-10.39,3.96-15.75l1.98-7.43,3-13.37c1.07-4.78,1.54-9.62,2.71-14.32.71-2.83,1.49-5.06,1.71-8.15.22-3.09,1.28-8.49,4.91-9.55,3.11-.91,7.08-.66,10.41-1.16,8.16-1.23,7.46,14.52,9.14,21.5l2.37,9.85,5.63,24.02c.58,2.49,1.3,5.17,2.06,7.58,1.31,4.18,3.19,7.73,1.69,12.45-3.93.64-8.1.8-12.14.42-2.5-.23-3.57-2.49-4.17-4.58l-2.08-7.22c-3.81-.39-7.59-1.51-11.24.16ZM373.94,579.49c-1.98,3.82-2.59,8.01-3.41,12.28-.15.78,1.66,2.02,2.43,2.25,4.89,1.45,1.36-10.02.98-14.53Z"/>
    <path class="st0" d="M394,642.6l-14.99.24-13.36-.21-15.65.46c-3.74-2.07-2.7-10.06-1.68-13.73,1.34-1.09,4.5-1.79,6.43-1.7,11.56.49,22.41.38,33.99-.26,2.4-.13,6.76.03,7.86,2.39.79,1.7,3.73,12.71-2.6,12.82Z"/>
  </g>
  <g>
    <path class="st0" d="M219.93,606.65c-.88-1.87-5.15-2.39-6.18-.68-1.29,4.6-.51,9.45-.44,14.24.1,6.65.04,12.97-.36,19.55-.15,2.4-4.12,3.68-5.91,3.66l-9.25-.08c-3.07-.03-5.13-1.85-5.5-4.93-.79-6.49-.27-12.82-.3-19.36l-.1-16.98c-.03-5.94.3-11.64.23-17.53l-.29-23.09c-.07-5.65-.58-11.15.03-16.8,1.7-1.16,3.93-1.89,5.89-1.94l17.03-.45c6-.16,17.4,2.62,22.57,5.75,14.97,9.06,15.9,32.46,7.63,43.74-1.89,2.58-4.8,4.69-6.85,7.11l9.52,25.42c1.88,5.01,8.64,16.09,3.68,17.99-4.5,1.73-9.82,1.47-14.86.39-3.09-.66-4.65-3.21-5.74-6.12l-4.42-11.85c-2.27-6.08-3.63-12.15-6.4-18.04ZM227.09,580.98c2.67-4.04,2.77-10.02-.23-13.93-3.04-3.97-8.6-5.58-13.3-3.81-.76,2.34-.57,5.13-.37,7.54.42,5.21-.8,13.14.7,13.73,2.61,1.02,10.34.83,13.21-3.53Z"/>
    <path class="st0" d="M318.09,642.98l-11.14-.25c-3.5-.08-5.44-.73-6.83-4.21l-2.87-7.2c-1.53-3.84-2.91-7.48-4.62-11.27-1.94-4.33-2.19-9.14-5.71-13.08-2.14,3.01-5.61,6.67-5.62,10.15l-.09,15.92c-.02,2.92,1.08,7.45-1.49,9.52-5.18,1.81-11.35,1.07-16.47-.6-2.26-.74-2.82-3.79-2.82-5.94v-30.31s.03-14.56.03-14.56l.32-8.6c.37-9.98.62-19.55-.45-29.6-.22-2.1-.35-5.21.36-6.9,1.2-2.87,4.64-2.89,7.35-3,3.83-.15,9.2-1.41,12.23,1.36,3.25,2.98,1.28,8.32,1.08,12.11-.29,5.63.14,10.87.19,16.31.02,2.06-.1,3.67.25,5.97,8.1-11.75,12.57-23.05,20.35-34.23,4.46-1.52,9.21-.92,13.85-.62,2.3.15,4.9-.02,6.02,2.34,1.06,2.24-.09,4.99-1.53,7.02-3.28,4.64-5.92,9.35-8.91,14.14-2.84,4.56-11.54,16.53-9.65,21.22l8.22,20.42,5.43,12.77c1.89,4.45,11.98,21.3,2.52,21.08Z"/>
    <path class="st0" d="M144.12,630.3c-2.07,5.97,1.14,13.11-5.63,12.97l-12.59-.26c-.99-.02-2.59-.18-3.23-.63-2.05-1.43-.23-8.65,1.5-10.85.48-.61,2.14-1.35,2.97-2.18-3.49-1.71-8.76.91-9.66-3.89-.88-4.72-.43-9.75.69-14.53,3.24-2.2,8.95-.18,11.1-2.06l1.93-9.18,3.48-15.98c1.04-4.76,2.6-9.13,2.92-14.05.31-4.7,1.72-8.7,2.98-13.26,1.19-4.32.85-9.38,2.93-13.52.56-.78,2.88-1.19,3.87-1.2l12.24-.14c2.47-.03,3.68,1.18,4.35,3.45,1.14,3.83,2.66,7.68,3.29,11.64.6,3.78,1.02,7.27,1.89,10.9l3.96,16.51c.96,4,1.53,8.1,2.47,12.14l2.98,12.72c1.64,7.02,3.41,13.52,5,20.56l1.92,8.47c.25,1.12.01,3.23-.78,4.03-1.93,1.95-15.5,2.37-18.12-.14l-3.96-12.56-8.98-.32c-3.21-.12-6.45-.44-9.54,1.36ZM157.75,609l-2.24-13.16c-.12-.73-.96-2.05-1.66-2.89l-2.49,7.62c-.8,2.45-1.1,5.54-1.22,8.32,2.15,1.2,5.13,1.01,7.61.11Z"/>
    <path class="st0" d="M89.44,626.91c-.14,4.42-14.45,2.11-17.8,2.32-1.5-6.76-1.26-12.87.16-19.96l-8-.65c-1.47-.12-2.81-1.45-2.75-2.95.14-3.59.18-6.57.6-10.17.34-2.88,8.99.05,9.14-1.9-.45-7.05.64-14.23.49-21.16l-.31-14.01c-.11-5-.64-9.87.44-14.85,2.54-1.09,5.42-1.2,8.17-1.27,7.67-.2,14.71.46,21.99,2.83,3.97,1.29,8.57,2.67,11.46,5.91,7.06,7.9,9.25,18.77,8.54,29.1-.39,5.67-1.86,14.96-5.73,18.76-3.62,3.55-8.01,8.12-13.23,9.51-5.85,1.56-13.16.21-13.09,3.34.11,4.95.09,10.13-.06,15.14ZM100.18,587.16c1.79-4.34,2.24-9.21,1.98-13.43-.39-6.33-6.79-15.14-12.91-11.71-.51,8.42-.32,16.57-.18,24.89.03,1.9-.77,4.76,1.03,5.97,3.66.15,8.52-1.93,10.09-5.73Z"/>
    <path class="st0" d="M88.08,643.31c-7.58,1.02-8.81,1.83-16.5.11-.81-2.41-1.45-5.86.27-7.95,5.25-1.27,10.95-.97,16.2-.2,1.2,2.39,1.15,5.75.03,8.05Z"/>
  </g>
  <g>
    <g>
      <path class="st0" d="M148.81,520.92c-2.24-.09-5.6-.6-6.44-1.91-.77-1.21-.91-3.74-.91-5.87,0-18.87-.07-37.24-1.04-56.05-.35-6.73-.28-12.46.18-19.17.74-10.87-.13-21.37.01-32.68.03-2.64,4.12-4.18,6.56-4.16l18.13.14c4.07.03,6.16,3.26,6.13,7.03l-.17,24.84,15.42.76c4.64.23,9.75-.21,13.77-2.21l.3-20.44-.54-29.25c-.11-6.01-3.95-13.65.37-19.24,3.86-4.99,24.7-3.94,28.3-1.05,3.89,7.74,2.71,15.41,2.6,23.51l-.4,31.5.84,33.61c.43,17.2.21,33.46-1.91,50.58-.69,5.55,2.91,13.02-1.26,17.62-3.54,3.92-11.25,2.45-16.17,2.82-6.39.48-11.18-2.77-11.26-9.26l-.44-34.32c-.07-5.44.44-11.24-.28-16.26l-28.9,1.14c-1.12,17.14-1.08,33.74-.06,50.51.33,5.39-3.42,8.55-8.39,8.36l-14.45-.55Z"/>
      <path class="st0" d="M112.27,515.33c-.03,9.72-19.95,7.78-26.94,7.12-12.57-1.19-7.72-29.78-8.37-41.76l-.99-18.05c-1.25-22.9,1.8-44.68.4-68.32l-21.41-.95c-4.68-.21-8.54-4.24-8.63-9.32-.2-11.19-1.35-24.75,11.13-24.72l24.78.06,20.17.11,16.12-.57,44.35-1.29c2.29-.07,7.92,1.33,8.16,3.49.81,7.21.84,14.3.74,21.84-.11,8.65-17.67,6.59-25.56,7.15l-27.8,1.98c-3.81.27-5.57,2.81-5.52,6.55l.38,33.75-.9,45.98-.11,36.95Z"/>
      <path class="st0" d="M278.32,433.41l-.42,12.82c-.33,10.22,15.89,2.35,27.11,7.05,6.63,2.77,4.79,11.53,4.94,17.16.13,4.96-1.72,9.5-7.35,9.54l-25.43.16c-8.99.06-17.93.33-26.15-3-2.23-13.24-2.44-25.91-1.83-39.15.21-4.54,1.32-8.95.95-13.48-.37-4.6-.91-9.3-.88-13.68l.28-36.77c.03-4.37.65-8.44,1.72-13.01l51.04-.87c4.04-.07,7.39,3.15,7.66,7.03l.71,10.26c.14,2.06-1.7,7.34-3.82,7.43l-28.33,1.21c-.9,4.37-1.24,10.46,0,13.64.7,1.81,5.23,3.2,7.02,3.27l20.39.84c2.82,6.53,6.43,25.62-4.71,24.87l-15.91-1.07c-3.83-.26-6.84,1.71-6.98,5.76Z"/>
      <path class="st0" d="M303.03,522.09l-49.17.16c-11.46.04-8.91-19.73-5.91-22.91,3.82-4.04,11.97-2.86,17.17-3.07,10.23-.41,19.13-.31,29.4.14,4.18.18,11.68-.82,14.21,3.45,2.24,3.77,3.13,22.19-5.7,22.21Z"/>
    </g>
    <g>
      <path class="st0" d="M698.37,501.73c-2.58,3.71-1.55,20.83-6.56,21.42-9.99,1.18-18.74.53-28.89-.36-1.6-5.4-.74-19.77,7.74-21.91l-15.32-1.65c-1.36-10.09-1.43-19.04.05-28.86l17.59-1.47,5.32-24.14c1.59-7.23,1.95-14.44,4.41-21.41,4.03-11.36,3.45-23.76,6.61-35.33,1.32-4.83,3.82-8.51,3.61-14.09-.19-5.18,1.61-11.4,4.52-15.75l22.29-1.22c4.4-.24,7.87.54,9.42,5.45,1.87,5.92,4.3,12.5,5.31,18.66l2.28,13.81,7.68,34.99,5.06,24.73,7.81,33.6c1.47,6.33,3.61,12.13,4.7,18.7.6,3.61,3.88,9.09,2.28,12.73-2.67,6.07-26.46,5.47-30.62,2.19-2.01-7.54-3.89-13.85-6.97-21.33-10.05-.43-18.46-.48-28.33,1.24ZM719.11,468.74l-1.12-11.66c-.57-5.96-1.29-10.97-5.1-16.76-3.34,9.99-5.19,17.65-6.6,27.71,4.48,1.59,8.58,1.53,12.82.7Z"/>
      <path class="st0" d="M404.4,488.3c4.36-1.31,37.65-1.65,34.42,2.55l-1.49,1.93c8.23,4.75,3.94,7.58,5.54,16.55,1.05,5.88-1.61,10.84-8.07,11.8-4.74.7-10.48,1.54-15.24,1.25-5.86-.36-10.84.1-16.51,0l-16.69-.3c-4.92-.09-10.75-.7-15.34-2.53-3.73-1.49-3.74-7.35-3.83-10.78-.13-5.57-1.97-11.5-1.34-16.6,2.46-19.88-.28-21.48.34-34.68.76-16-.25-31.42-.37-47.61-.07-9.16.97-17.59-.04-26.98-.66-6.12.72-13.53.95-19.59,3.4-6.64,14.82-5.46,22.99-5.35l20.33.27,26.88-.79c1.72-.05,4.85,3.2,4.95,4.97l1.2,21.53c.12,2.09-3.51,5.14-5.52,5.16l-29.94.35c-3.42.04-7.18,3.12-7.1,6.82l.44,20.27c8.34,1.01,14.56,1.77,22.23,2.28,3.66.24,9.83-3.02,13.06-.18,7.86,6.89,5.63,26.44,2.28,29.54-3.26,3.02-21.03,3.18-25.34.54l-11.04,3.38-2.24,19.68c-.61,5.39-.36,12.21,4.48,16.53Z"/>
      <path class="st0" d="M912.52,452.23c-.5,8.9-4.86,33.31,2.93,36.61,11.63-2.17,23.74-2.7,34.11,1.96l-2.1.04c-10.33.21,9.53.79,5.86,14.88-.69,2.66,1.56,7.03-.36,9.72-5.08,7.11-11.7,6.98-22.92,6.93l-17.1-.08h-15.45c-6.18,0-12.38-1.24-18.93-3.17-1.86-9.16-2.99-24.8-1.79-34.13,1.17-9.06-.47-18.4-.03-27.47.77-15.68.06-30.69-.19-46.53-.15-9.5.96-18.35-.4-28.08-.68-4.84.59-10.48.54-15.71-.11-11.07,12.73-9.35,23.92-9.24l20.13.2,24.75-.87c9.85-.34,7.97,17.87,8.03,27.03.01,2.03-3.86,4.73-5.8,4.76l-29.26.48c-4.39.07-7.51,3.66-7.41,7.87l.48,19.2c8.04.93,14.08,1.68,21.46,1.98,4.51.18,10.68-1.85,14.9.11,5.8,5.34,4.14,29.08.23,30.39-4.25,1.42-20.05,2.51-24.22-.41l-11.39,3.51Z"/>
      <path class="st0" d="M503.36,523.99c-13.24,2.1-25.36-.49-37.47-5.25-3.69-1.45-9.92-3.29-10.53-7.95-1.19-9.11,1.6-18.75,7.08-26.1,11.54-1.36,22.98,10.88,37.5,3.83,5.28-2.57,7.48-8.54,7.82-14.12.3-4.98-2.57-11-7.82-14.29-6.1-3.82-26.89-16.43-28.8-23.3-20.76-15.66-18.89-53.22,2.02-69.21,9.55-7.31,22.28-11.08,34.49-10.45,8.13.42,15.88,3.48,23.27,6.15,10.86,3.93,4.2,19.08.75,26.97-3.88,8.85-12.25-.32-26.31-.02-6.39.14-11.48,4.05-13.35,9.37-7.41,21.14,28.3,19.95,45.86,53.52,5.93,11.35,5.19,23.1,2.8,34.64-3.96,19.15-17.22,33.04-37.31,36.22Z"/>
      <path class="st0" d="M780.63,499.62c-2.37-5.85-4.09-26.82,2.87-32.36-6.54-3.02-20.52,1.83-20.82-5.66-.21-5.18-.24-9.54.19-14.58.66-7.74,15.86-3.28,16.06-6.85l.69-34.9-.37-21.22c-.13-7.17.08-14.03.01-21.37-.03-3.27,2.15-5.86,5.44-5.89,23.31-.18,30.48-1.68,53.12,6.49,7.63,2.75,12.45,7.85,16.18,14.33,7.46,12.97,9.7,26.53,8.53,41.3-.93,11.82-2.29,26.34-12.37,35.08-5.86,5.08-12.33,11.41-20.52,12.39l-20.08,2.41-.72,31.01-28.21-.17ZM829.49,426.51c2.49-15.11,3.86-21.41-4.47-32.87-3.71-5.11-8.58-8.2-15.47-5.91-1.54,14.24-.97,27.95-.4,42.5.11,2.78-.69,8.2,1.72,9.71,1.17.73,4.65-.91,6.1-1.1,6.32-.84,11.29-4.87,12.53-12.34Z"/>
      <path class="st0" d="M624.52,524.13c-10.35.44-18.75-1.43-28.08-5.69-10.77-4.91-22.71-11.51-28.31-22.61-5.56-11.04-3.21-4.42-8.78-16.49-1.5-3.25-2.01-10.32-2.59-13.7-.09-.51.79-2,1.06-2.45.35-.59-2.5-1.93-2.6-2.66-3.73-28.93-1.58-55.79,17.59-79.81,4.72-5.92,9.77-10.83,16.21-15.01,11.56-7.52,48.38-16.99,55.06-2.79,2.96,6.3,1.69,16.64.28,23.31-.86,4.09-8.54,3.81-11.6,3.01-14.8-3.87-29.06,1.74-37.48,14.25-2.31,3.42-6.66,7.62-7.14,11.64l-2.67,22.02c-1.83,15.04,2.72,31.49,11.36,44.03,8.24,11.97,24.32,14.85,37.57,11.84,3-.68,9.05-.33,10.14,2.29.67,8.08.32,16.31-.5,24.14-4.93,5.14-13.19,4.44-19.53,4.7Z"/>
      <path class="st0" d="M806.56,523.5c-8.12,1.39-18.95,2.68-25.16-.4-3.88-1.92-3.22-12.06,1.28-12.8,7.56-1.25,15.64-.77,23.23.26,4.25.58,4.71,12.24.65,12.94Z"/>
    </g>
  </g>
</svg>