<?xml version="1.0" encoding="UTF-8"?>
<svg id="Layer_1" xmlns="http://www.w3.org/2000/svg" version="1.1" viewBox="0 0 1000 1000">
  <!-- Generator: Adobe Illustrator 30.1.0, SVG Export Plug-In . SVG Version: 2.1.1 Build 136)  -->
  <defs>
    <style>
      .st0 {
        fill: #905129;
      }
    </style>
  </defs>
  <path class="st0" d="M619.11,516.75l-117.72,95.78-.03-295.5,112.18-98.97,67.17,50.64-61.6,248.05ZM652.8,333.07l15.01-60.13-47.86-35.95.18,227.55,32.68-131.47ZM608.38,510.98l-.08-272.77-62.23,54.6.02,268.57,62.29-50.4ZM534.85,570.47l-.08-49.53.02-206.17-.37-11.41-21.67,19.06.17,265.74,21.92-17.7Z"/>
  <path class="st0" d="M309.42,463.1l28.53-12.65,68.46,30.58c-11.87-20.45-16.43-36.7-11.03-60.62,18.12,2.79,34.79,10.33,47.65,23.16,10.48,11.38,16.07,24.68,20.14,39.95l.14-57.95-89.4-37.09-153.05-63.24,9.51-8.4,53.59,22.26,190.81,79.11-.06,105.39-136.41-60.65-76.93,34.29-60.05,26.46v-184.01s107.81,60.09,107.81,60.09l.28,63.33ZM297.64,468.46l-.12-62.23-84.87-47.32-.02,147.52,85-37.98ZM404.77,434.08c-1.62,23.57,9.98,45.19,30.05,57.16,6.29,3.75,11.67,7.39,19.44,10.28-3.13-31.94-15.57-58.23-49.49-67.44Z"/>
  <path class="st0" d="M262.41,659.26l-61.09,42.76v-148.3s63.39-28.76,63.39-28.76l73.38-32.66,136.72,61.1-.16,148.27-136.65-94.93-75.6,52.53ZM377.47,620.25l.05-98.12-39.4-17.41-28.76,12.75.1,95.06,28.42-19.47,39.6,27.19ZM212.76,679.86l84.89-58.72-.08-98.3-29.69,13.15-55.31,24.81.18,119.06ZM463.27,679.84l.07-119.32-74.11-32.95-.13,100.9,74.17,51.37Z"/>
  <path class="st0" d="M501.53,727.69l-.17-80.25,27.4-23,45.48-37.41,69.93-9.68,130.57-18.53.11,64.69-233.11,88.72-40.21,15.47ZM607.77,615.88c6.07,22.67,1.2,44.03-12.64,63.38l30.11-11.05c1.12-10.3,2.81-19.96,6.52-29.6,8.24-23.51,29.21-38.73,53.74-40.77,5.11,17.79,1.51,34.54-8.18,50.72l86.3-32.86-.16-43.78-184.79,26.08-54.01,44.49-11.85,10.07.13,58.36,24.58-9.37c2.51-45.35,23.24-77.77,70.24-85.66ZM676.26,611.3c-25.18,5.93-36.13,27.55-38.68,51.53,23.37-7.62,40.56-26.72,38.68-51.53ZM592.05,663.06c5.5-9.99,7.62-21.39,6.52-33.39-31.99,8.03-47.58,36.54-49.17,67.39,19.57-7.78,32.89-16.27,42.65-34Z"/>
  <path class="st0" d="M354.28,731.31l-32.46-.21-.17,55.8h-120.31s.05-55.11.05-55.11l73.11-51.09,63.64-44.08,63.8,44.18,72.82,50.69-.08,55.41-120.3-.02-.1-55.57ZM365.74,775.55l63.57-.05v-61.7s-32-22.52-32-22.52l-59.24-40.98-91,63.24.05,62h63.07s.04-55.7.04-55.7l55.47.06.03,55.66ZM235.67,775.32l-.22-53.4-22.88,15.7.02,37.85,23.07-.15ZM463.35,775.4v-38.08s-22.5-15.54-22.5-15.54l-.05,53.78,22.55-.17Z"/>
  <path class="st0" d="M501.59,786.89l-.12-30.54,273.22-103.53.08,134.07h-273.19ZM621.2,723.27l-108.31,40.85.22,11.41,250.61-.02-.23-106.32-83,31.59c14.86,3.07,27.77,8.15,38.63,17.91,7.68,6.92,14.23,14.27,19.45,23.53-23.44,16.81-53.38,19.26-79.65,7.06-12.23-5.68-22.45-13.66-32.46-22.81-1.03-.94-3.33-3.42-5.27-3.2ZM722.54,738.61c-21.54-28.54-55.53-32.85-88.06-20.18,24.05,23.83,55.2,35.37,88.06,20.18Z"/>
  <path class="st0" d="M474.75,388.95l-97.2-40.6-.04-145.04,34.99-26.2.14-89.97h11.2s.13,81.02.13,81.02l50.62-38,.17,258.77ZM463.14,274.85h-57.4c-.24-4.05-.26-7.56-.04-11.51l57.56-.03.07-27.71-57.65.05-.02-11.34,57.67-.06-.05-71.1-33.7,25.32-40.48,30.36v132.04s74.19,30.96,74.19,30.96l.07-57.61-57.61-.28c-.27-3.51-.26-7.19.04-11.11l57.62-.1-.27-27.9Z"/>
  <path class="st0" d="M665.55,479.16l-6.71-9.17,25.46-20.71c-.43-24.79,1.38-48.89,7.16-72.97,4.4-16.83,12.42-31.02,25.14-42.77,14.84-13.71,32.34-23.44,51.96-29.96,14.35,41.84,5.85,86.69-29.28,115.42l-46.12,37.76-27.59,22.41ZM726.19,415.28c10.06-8.03,18.59-16.2,25.41-26.86,12.18-21.13,15.43-46.04,9.33-69.96-29.15,12.42-52.63,31.73-59.12,63.71-4.4,19.08-6.23,37.9-6.23,57.55l30.61-24.44Z"/>
  <path class="st0" d="M803.59,478.39c-14.1,33.29-38.81,54.38-74.99,59.44l-111.75,15.64,86.66-71.43c29.79-22.42,68.02-19.62,100.08-3.65ZM732.67,525.63c10.87-1.82,19.86-5.58,28.56-11.48,11.34-7.56,20.91-17.43,26.95-30.18-25.41-10.29-57.06-10.14-78.96,8.07l-53.47,44.43,76.92-10.84Z"/>
  <path class="st0" d="M501.89,281.3l-.7-40.19c-.16-9.13.56-17.88,2.02-26.81,2.8-21.85,14.23-40.33,31.95-53.18,10.47-7.59,21.18-13.65,33.91-17.26,9.92,33.78,6.9,68.53-18.59,94.45l-13.62,12.83-34.97,30.16ZM513.05,256.58l25.88-22.4c21.75-20.06,27.51-46.46,22.21-75.27-13.01,5.58-24.2,13.85-33.42,24.41-8.03,10.48-12.02,22.44-14.05,35.56-1.32,12.89-1.76,25.49-.63,37.7Z"/>
  <path class="st0" d="M351.6,337.59l-29.17-12.09c-13.51-5.6-25.05-13.85-35-24.48-17.77-20.83-23.22-46.56-20.1-74.31,30.08,3.28,60.36,19.93,74.02,47.67,8.66,19.5,12.44,40.5,10.24,63.21ZM340.36,320.52c-.25-14.85-3.33-27.17-8.17-39.59-3.23-6.12-6.77-11.59-11.11-16.88-11.84-11.9-26.02-20.24-43.21-23.9-.29,12.57,2.06,24.66,7.07,36.26,5.02,11.71,13.03,21,23.4,28.37,9.91,6.81,20.57,12.03,32.02,15.74Z"/>
  <path class="st0" d="M711.53,883.29c4.42.53,9.09,2.84,11.13,6.59,3.91,7.21.92,16.63-6.63,20.05-9.78,4.44-21.37,3.82-30.48-1.82-3.53-2.18-5.01-6.79-4.97-10.66.03-3.87,2.74-7.6,5.82-10.84-1.16-.67-4.76-2.86-4.86-4.52.83-3.87,4.89-6.84,7.94-9.8-5.65-5.71-7.59-13.79-3.66-20.49,4.47-7.61,12.47-9.69,20.74-8.8,7.19.78,13.84.74,21.37,1.14.15,2.1.19,4.74.1,6.59l-8.31.56c2.26,4.99,3.17,10.06.64,15.32-1.93,4.02-5.86,8.08-11.28,9.26-9.24,2.01-12.9-1.77-15,2.8-.46.99,1.5,2.69,2.85,2.85l14.6,1.77ZM709.48,853.83c-3.35-3.2-9.39-3.29-12.92-.43-4,3.23-3.25,9.6.37,12.83,3.31,2.95,8.57,3.32,12.05-.08,3.1-3.02,4.57-8.43.5-12.32ZM711.01,901.87c1.93-1.15,3.05-4.25,2.76-5.99-1-6.07-14.26-6.35-18.55-5.73-1.69.24-3.6,3.6-4.11,5.2-.46,1.45.44,4.99,1.9,5.92,5.39,3.45,12.29,4,18,.59Z"/>
  <path class="st0" d="M336.86,888.52c-9.47,6.39-20.7,4.71-28.06-3.34l-1.14,6.06-10.12-.19v-67.35s11.24-.05,11.24-.05l.29,25.59c6.55-6.56,14.63-8.09,22.98-5.33,7.34,2.43,13.07,9.14,14.69,17.58,1.96,10.2-.87,20.97-9.87,27.04ZM335.87,867.78c.21-9.42-5.98-15.66-14.52-15.28-8.35.37-13.32,7.76-12.5,16.47.73,7.72,6.58,13.86,14.21,13.42,7.33-.42,12.62-6.53,12.81-14.62Z"/>
  <path class="st0" d="M236.75,825.41l11.44.21-.14,42.75c-.05,14.18-11.51,23.58-25.08,23.98-14.81.43-26.59-10-26.56-25.11l.06-41.82,11.1.13.22,42.84c.04,8.48,7.1,13.55,15.02,13.4,6.92-.14,13.49-4.69,13.56-12.48l.39-43.91Z"/>
  <polygon class="st0" points="536.61 825.71 548.66 825.56 524.49 891.35 510.98 891.37 487.11 825.61 498.92 825.69 518.01 879.65 536.61 825.71"/>
  <path class="st0" d="M640.29,892c-7.42-1.39-12.56-6.7-12.7-13.66-.13-6.69,4.45-12.56,11.57-14.28,6.37-1.54,12.63-1.22,20.04-.96.54-2.48.05-6.06-1.64-8.18-2.02-2.54-5.21-3.48-8.68-3.3-4.66.25-7.87,2.65-9.18,7.5l-10.73-.2c1.62-14.78,17.75-18.71,29.94-14.93,7.71,2.4,12.23,9.46,12.24,17.52v29.82s-9.44.14-9.44.14l-1.65-6.93c-4.76,6.63-11.53,9.02-19.77,7.47ZM643.68,883.02c4.02,1.24,8.48.58,11.47-2.28,2.62-2.51,4.35-6.45,4.13-10.48-5.8-.08-20.39-1.75-20.14,6.49.08,2.5,1.8,5.42,4.54,6.27Z"/>
  <path class="st0" d="M369.36,891.92c-7.27-1.33-12.19-6.79-12.49-13.53-.29-6.63,4.33-12.62,11.27-14.34,6.42-1.59,12.64-1.22,20.1-1.01.63-2.38.09-6.11-1.62-8.27-1.91-2.41-5.43-3.32-8.78-3.17-4.62.22-7.8,2.77-9.22,7.42l-10.64-.05c1.47-14.41,17.8-18.91,29.85-15.04,7.92,2.55,12.22,9.49,12.21,17.57l-.04,29.65-9,.13-1.74-6.76c-4.55,6.76-11.91,8.87-19.92,7.41ZM388.49,870.26c-5.75-.05-20.82-1.98-20.17,7.26.22,3.03,2.69,5.83,6.17,6.06,3.87.26,7.71-.42,10.16-3.13,2.27-2.51,3.43-5.89,3.83-10.2Z"/>
  <path class="st0" d="M768.75,876.9l11.24.25c-2.16,5.17-5.34,9.14-9.88,11.99-7.58,4.77-17.34,4.25-24.8-.43-7.07-4.44-11.2-12.26-11.09-21.43.13-10.03,5.6-19.33,14.45-22.76,9.36-3.63,20.14-2.02,26.77,5.65,4.83,5.59,6.26,12.74,5.61,19.75l-35.38-.03c-.34,5.42,3.32,10.49,7.54,12.1,6.07,2.31,11.7.72,15.53-5.09ZM770.08,862.61c-1-8.08-6.93-11.37-13.51-10.78-5.13.46-10.19,4.72-10.92,10.95l24.43-.16Z"/>
  <path class="st0" d="M423.75,863.32l-.38,27.94-10.99-.07-.05-47.32,8.97-.25,1.85,6.73c4.36-5.78,9.87-7.96,16.5-7.69,8.48.35,16.53,6.5,16.58,15.67l.16,32.94-11.12.02-.18-29.8c-.02-2.46-1.68-6.03-3.55-7.4-3.52-2.59-7.69-2.61-11.55-.76-2.81,1.35-6.17,5.52-6.23,10Z"/>
  <polygon class="st0" points="616.56 891.1 605.18 891.29 605.15 823.69 616.58 823.68 616.56 891.1"/>
  <path class="st0" d="M592.74,891.09c-3.94.44-7.44.44-11.44.14l.05-67.52h11.38s0,67.38,0,67.38Z"/>
  <path class="st0" d="M289.05,854.04c-5.54.41-10.18.06-13.95,3.83-1.94,1.94-3.36,6.42-3.39,9.31l-.18,24.21-10.91-.14-.07-47.38,9.71-.28,1.08,8.75c4.01-5.81,9.72-10.56,17.63-9.01l.06,10.71Z"/>
  <polygon class="st0" points="568.72 891.06 557.39 891.28 557.36 844.15 568.67 844.12 568.72 891.06"/>
  <path class="st0" d="M566.95,824.21c2.94,1.59,3.4,5.14,2.56,7.85-.72,2.34-4.03,4.18-7.14,4.01-2.79-.16-5.48-1.95-6.32-4.21-.87-2.36,0-5.61,2.27-7.28,2.16-1.59,5.98-1.82,8.64-.38Z"/>
  <path class="st0" d="M588.25,449.78l-21.7.07c-.36-3.76-.41-7.38-.26-11.58l21.78-.04.18,11.55Z"/>
  <polygon class="st0" points="588.23 415.76 566.27 415.73 566.09 404.35 588.05 404.3 588.23 415.76"/>
  <polygon class="st0" points="588.37 381.95 566.28 382.1 566.12 370.78 588.04 370.53 588.37 381.95"/>
  <polygon class="st0" points="588.2 482.97 566.24 483.17 566.21 471.83 588.08 471.85 588.2 482.97"/>
  <polygon class="st0" points="588.23 347.8 566.24 347.97 566.25 336.52 588.08 336.45 588.23 347.8"/>
  <polygon class="st0" points="588.16 313.97 566.24 313.87 566.22 302.76 588.13 302.75 588.16 313.97"/>
  <polygon class="st0" points="245.87 475.65 234.53 475.73 234.46 452.68 245.66 452.52 245.87 475.65"/>
  <path class="st0" d="M245.77,436.91c-3.78.77-7.34.78-11.3.4v-23.28s11.18-.11,11.18-.11l.11,22.99Z"/>
  <polygon class="st0" points="276.8 437.46 265.48 437.47 265.53 414 276.7 414 276.8 437.46"/>
  <polygon class="st0" points="276.82 465.87 265.49 465.62 265.52 452.37 276.63 452.27 276.82 465.87"/>
  <polygon class="st0" points="245.86 630.82 234.53 630.9 234.42 607.53 245.74 607.47 245.86 630.82"/>
  <path class="st0" d="M245.83,592.25c-3.89.21-7.29.21-11.31.01l-.03-23.34,11.26-.17.09,23.5Z"/>
  <polygon class="st0" points="276.69 616.54 265.51 616.51 265.46 593.54 276.66 593.56 276.69 616.54"/>
  <polygon class="st0" points="276.65 578.19 265.45 578.32 265.43 554.83 276.64 554.83 276.65 578.19"/>
  <path class="st0" d="M443.14,587.81l-33.92-15.02c-.51-4.1-.54-7.72-.05-12.4l34.21,15.3-.24,12.12Z"/>
  <path class="st0" d="M443.25,633.71l-33.98-15.7c-.64-3.8-.64-7.62-.15-12.32l34.24,15.68-.11,12.34Z"/>
</svg>